M48
;GenerationSoftware,Autodesk,EAGLE,9.6.1*%
;CreationDate,2020-12-08T08:47:42Z*%
FMAT,2
ICI,OFF
METRIC,TZ,000.000
T1C0.406
%
G90
M71
T1
X67985Y48641
X67985Y45720
X68239Y57912
X67985Y54102
X68493Y43180
X72430Y41148
X76113Y41275
X79669Y41148
X87289Y54864
X72684Y60325
X74589Y60452
X78145Y60325
X80812Y60325
X97282Y47498
X85448Y58992
X97663Y59563
X93472Y59563
X98425Y47498
X97282Y46355
X98679Y59563
X55499Y41402
X57531Y41402
X58547Y41402
X59563Y41402
X56515Y41402
X46101Y63500
X47117Y63500
X48133Y63500
X49149Y63500
X50165Y63500
X93980Y52959
X94996Y52959
X83922Y50190
X87706Y51486
X92405Y48209
X92431Y46177
X87681Y43002
X87706Y40919
X97104Y44247
X97104Y42367
X92151Y38506
X81373Y41698
X85217Y36678
X88367Y65202
X112522Y57455
X111506Y57480
X110490Y57455
X109474Y57455
X67310Y73660
X76886Y72212
X81701Y44450
X108977Y51300
X80939Y45212
X108269Y50566
X80177Y44450
X107605Y49687
X76367Y56896
X106680Y59055
X82590Y46482
X106680Y58039
X81574Y46841
X106680Y57023
X81107Y47806
X106680Y56007
X81574Y48768
X106705Y54991
X82550Y49149
X106680Y53975
X79288Y44958
X109652Y52620
X78526Y45720
X110719Y52620
X77764Y44958
X115519Y52451
X83352Y44450
X92202Y37084
X63413Y57658
X63349Y52768
X63540Y48641
X63540Y44069
X63540Y42037
X70398Y36703
X74970Y36703
X79415Y36703
X91734Y57277
X70017Y64897
X74716Y64897
X80558Y64897
X85003Y64897
X53340Y37973
X53340Y36957
X53340Y35941
X91440Y35941
X92456Y45161
X93980Y40894
X92151Y40310
X83225Y36678
X86957Y69050
X115595Y56769
X115621Y55753
X115621Y54737
X115595Y53721
X40807Y58471
X40818Y56439
X40818Y55423
X40804Y57455
X67361Y79121
X84684Y70790
X78272Y56261
X76621Y65151
X79288Y56261
X77510Y66294
X80304Y56261
X78399Y67056
X77256Y56261
X74970Y67818
X81320Y57150
X80304Y66040
X63413Y59182
X63413Y54864
X63413Y50673
X63540Y46101
X72430Y36703
X76875Y36703
X81320Y36703
X91734Y55245
X91734Y59563
X72049Y64897
X78145Y64897
X82590Y64897
X63271Y39268
X64414Y39268
X65684Y39268
X68097Y39268
X66954Y39268
X92405Y50241
X86681Y51486
X92456Y44145
X92151Y41961
X87376Y38913
X84709Y41377
X77510Y54483
X41950Y49530
X79542Y54229
X42585Y48641
X71414Y47942
X43347Y47879
X72430Y47879
X44236Y47117
X83606Y57150
X44871Y44196
X82844Y56388
X45633Y44958
X81955Y55499
X46268Y45847
X81193Y54737
X47030Y46609
X74208Y54610
X62013Y56747
X73446Y55372
X60917Y56744
X72684Y56134
X59888Y56744
X71922Y56896
X58866Y56731
X57838Y56718
X70627Y58589
X56733Y56921
X70144Y60071
X55895Y57734
X75478Y53975
X76494Y54102
X55120Y58560
X71160Y50038
X50056Y52588
X72176Y50419
X50507Y53502
X73192Y50800
X51092Y54378
X73954Y51689
X51696Y55242
X73065Y52832
X52254Y56107
X72176Y53340
X52709Y57036
X71160Y53467
X53209Y57983
X73446Y53848
X53766Y58886
M30