G04 EAGLE Gerber RS-274X export*
G75*
%MOMM*%
%FSLAX34Y34*%
%LPD*%
%INTop Copper*%
%IPPOS*%
%AMOC8*
5,1,8,0,0,1.08239X$1,22.5*%
G01*
%ADD10R,1.600000X1.800000*%
%ADD11R,1.300000X1.500000*%
%ADD12R,1.800000X1.600000*%
%ADD13R,0.300000X1.300000*%
%ADD14R,1.800000X2.200000*%
%ADD15R,1.600000X1.803000*%
%ADD16R,1.475000X0.200000*%
%ADD17R,0.200000X1.475000*%
%ADD18R,0.650000X1.250000*%
%ADD19R,1.500000X1.300000*%
%ADD20R,1.930400X5.334000*%
%ADD21R,1.500000X1.500000*%
%ADD22R,1.300000X0.300000*%
%ADD23R,2.200000X1.800000*%
%ADD24R,1.520000X0.440000*%
%ADD25C,0.203200*%
%ADD26C,0.812800*%
%ADD27C,0.406400*%
%ADD28C,1.016000*%
%ADD29C,0.152400*%
%ADD30C,1.524000*%

G36*
X950635Y452642D02*
X950635Y452642D01*
X950732Y452647D01*
X950770Y452661D01*
X950821Y452669D01*
X950978Y452739D01*
X951047Y452765D01*
X951123Y452809D01*
X951899Y453017D01*
X956987Y453017D01*
X956993Y453008D01*
X957054Y452950D01*
X957109Y452886D01*
X957157Y452854D01*
X957200Y452814D01*
X957275Y452775D01*
X957345Y452729D01*
X957401Y452711D01*
X957453Y452684D01*
X957521Y452673D01*
X957616Y452643D01*
X957716Y452640D01*
X957784Y452629D01*
X959816Y452629D01*
X959874Y452637D01*
X959932Y452635D01*
X960014Y452657D01*
X960097Y452669D01*
X960151Y452693D01*
X960207Y452707D01*
X960280Y452750D01*
X960357Y452785D01*
X960401Y452823D01*
X960452Y452853D01*
X960509Y452914D01*
X960574Y452969D01*
X960606Y453017D01*
X965701Y453017D01*
X966477Y452809D01*
X966553Y452765D01*
X966643Y452729D01*
X966730Y452684D01*
X966770Y452678D01*
X966817Y452659D01*
X966988Y452641D01*
X967061Y452629D01*
X977792Y452629D01*
X977879Y452641D01*
X977966Y452644D01*
X978019Y452661D01*
X978074Y452669D01*
X978153Y452704D01*
X978237Y452731D01*
X978276Y452759D01*
X978333Y452785D01*
X978446Y452881D01*
X978510Y452926D01*
X1007974Y482390D01*
X1007985Y482404D01*
X1007992Y482411D01*
X1008014Y482443D01*
X1008026Y482460D01*
X1008086Y482524D01*
X1008112Y482573D01*
X1008145Y482617D01*
X1008176Y482699D01*
X1008216Y482777D01*
X1008224Y482825D01*
X1008246Y482883D01*
X1008258Y483031D01*
X1008271Y483108D01*
X1008271Y583292D01*
X1008259Y583379D01*
X1008256Y583466D01*
X1008239Y583519D01*
X1008231Y583574D01*
X1008196Y583653D01*
X1008169Y583737D01*
X1008141Y583776D01*
X1008115Y583833D01*
X1008019Y583946D01*
X1007974Y584010D01*
X981412Y610572D01*
X981342Y610624D01*
X981278Y610684D01*
X981229Y610710D01*
X981185Y610743D01*
X981103Y610774D01*
X981025Y610814D01*
X980978Y610822D01*
X980919Y610844D01*
X980771Y610856D01*
X980694Y610869D01*
X930040Y610869D01*
X929982Y610861D01*
X929924Y610863D01*
X929842Y610841D01*
X929759Y610829D01*
X929705Y610806D01*
X929649Y610791D01*
X929576Y610748D01*
X929499Y610713D01*
X929454Y610675D01*
X929404Y610646D01*
X929346Y610584D01*
X929282Y610530D01*
X929250Y610481D01*
X929210Y610438D01*
X929171Y610363D01*
X929125Y610293D01*
X929107Y610237D01*
X929080Y610185D01*
X929069Y610117D01*
X929039Y610022D01*
X929036Y609922D01*
X929025Y609854D01*
X929025Y541556D01*
X929033Y541498D01*
X929031Y541440D01*
X929053Y541358D01*
X929065Y541274D01*
X929089Y541221D01*
X929103Y541165D01*
X929146Y541092D01*
X929181Y541015D01*
X929219Y540970D01*
X929249Y540920D01*
X929310Y540862D01*
X929365Y540798D01*
X929413Y540766D01*
X929456Y540726D01*
X929531Y540687D01*
X929601Y540640D01*
X929657Y540623D01*
X929709Y540596D01*
X929777Y540585D01*
X929872Y540555D01*
X929972Y540552D01*
X930040Y540541D01*
X948582Y540541D01*
X948640Y540549D01*
X948698Y540547D01*
X948780Y540569D01*
X948864Y540581D01*
X948917Y540604D01*
X948973Y540619D01*
X949046Y540662D01*
X949123Y540697D01*
X949168Y540735D01*
X949218Y540764D01*
X949276Y540826D01*
X949340Y540880D01*
X949372Y540929D01*
X949412Y540972D01*
X949451Y541047D01*
X949498Y541117D01*
X949515Y541173D01*
X949542Y541225D01*
X949553Y541293D01*
X949583Y541388D01*
X949586Y541488D01*
X949597Y541556D01*
X949597Y551434D01*
X949589Y551492D01*
X949591Y551550D01*
X949569Y551632D01*
X949557Y551716D01*
X949534Y551769D01*
X949519Y551825D01*
X949476Y551898D01*
X949441Y551975D01*
X949403Y552020D01*
X949374Y552070D01*
X949312Y552128D01*
X949258Y552192D01*
X949209Y552224D01*
X949166Y552264D01*
X949091Y552303D01*
X949021Y552350D01*
X948965Y552367D01*
X948913Y552394D01*
X948845Y552405D01*
X948750Y552435D01*
X948650Y552438D01*
X948582Y552449D01*
X941600Y552449D01*
X940707Y553342D01*
X940707Y607946D01*
X941600Y608839D01*
X962168Y608839D01*
X963061Y607946D01*
X963061Y553342D01*
X962168Y552449D01*
X955694Y552449D01*
X955636Y552441D01*
X955578Y552443D01*
X955496Y552421D01*
X955412Y552409D01*
X955359Y552386D01*
X955303Y552371D01*
X955230Y552328D01*
X955153Y552293D01*
X955108Y552255D01*
X955058Y552226D01*
X955000Y552164D01*
X954936Y552110D01*
X954904Y552061D01*
X954864Y552018D01*
X954825Y551943D01*
X954778Y551873D01*
X954761Y551817D01*
X954734Y551765D01*
X954723Y551697D01*
X954693Y551602D01*
X954690Y551502D01*
X954679Y551434D01*
X954679Y541556D01*
X954687Y541498D01*
X954685Y541440D01*
X954707Y541358D01*
X954719Y541274D01*
X954742Y541221D01*
X954757Y541165D01*
X954800Y541092D01*
X954835Y541015D01*
X954873Y540970D01*
X954902Y540920D01*
X954964Y540862D01*
X955018Y540798D01*
X955067Y540766D01*
X955110Y540726D01*
X955185Y540687D01*
X955255Y540640D01*
X955311Y540623D01*
X955363Y540596D01*
X955431Y540585D01*
X955526Y540555D01*
X955626Y540552D01*
X955694Y540541D01*
X979968Y540541D01*
X980026Y540549D01*
X980084Y540547D01*
X980166Y540569D01*
X980250Y540581D01*
X980303Y540604D01*
X980359Y540619D01*
X980432Y540662D01*
X980509Y540697D01*
X980554Y540735D01*
X980604Y540764D01*
X980662Y540826D01*
X980726Y540880D01*
X980758Y540929D01*
X980798Y540972D01*
X980837Y541047D01*
X980884Y541117D01*
X980901Y541173D01*
X980928Y541225D01*
X980939Y541293D01*
X980969Y541388D01*
X980972Y541488D01*
X980983Y541556D01*
X980983Y552162D01*
X981876Y553055D01*
X1001140Y553055D01*
X1002033Y552162D01*
X1002033Y534898D01*
X1001140Y534005D01*
X981876Y534005D01*
X980720Y535162D01*
X980650Y535214D01*
X980586Y535274D01*
X980537Y535300D01*
X980493Y535333D01*
X980411Y535364D01*
X980333Y535404D01*
X980285Y535412D01*
X980227Y535434D01*
X980079Y535446D01*
X980002Y535459D01*
X930040Y535459D01*
X929982Y535451D01*
X929924Y535453D01*
X929842Y535431D01*
X929759Y535419D01*
X929705Y535396D01*
X929649Y535381D01*
X929576Y535338D01*
X929499Y535303D01*
X929454Y535265D01*
X929404Y535236D01*
X929346Y535174D01*
X929282Y535120D01*
X929250Y535071D01*
X929210Y535028D01*
X929171Y534953D01*
X929125Y534883D01*
X929107Y534827D01*
X929080Y534775D01*
X929069Y534707D01*
X929039Y534612D01*
X929036Y534512D01*
X929025Y534444D01*
X929025Y526288D01*
X929033Y526230D01*
X929031Y526172D01*
X929053Y526090D01*
X929065Y526006D01*
X929089Y525953D01*
X929103Y525897D01*
X929146Y525824D01*
X929181Y525747D01*
X929219Y525702D01*
X929249Y525652D01*
X929310Y525594D01*
X929365Y525530D01*
X929413Y525498D01*
X929456Y525458D01*
X929531Y525419D01*
X929601Y525372D01*
X929657Y525355D01*
X929709Y525328D01*
X929777Y525317D01*
X929872Y525287D01*
X929972Y525284D01*
X930040Y525273D01*
X952790Y525273D01*
X953001Y525062D01*
X953071Y525010D01*
X953135Y524950D01*
X953184Y524924D01*
X953228Y524891D01*
X953310Y524860D01*
X953388Y524820D01*
X953435Y524812D01*
X953494Y524790D01*
X953642Y524778D01*
X953719Y524765D01*
X979968Y524765D01*
X980026Y524773D01*
X980084Y524771D01*
X980166Y524793D01*
X980250Y524805D01*
X980303Y524828D01*
X980359Y524843D01*
X980432Y524886D01*
X980509Y524921D01*
X980554Y524959D01*
X980604Y524988D01*
X980662Y525050D01*
X980726Y525104D01*
X980758Y525153D01*
X980798Y525196D01*
X980837Y525271D01*
X980884Y525341D01*
X980901Y525397D01*
X980928Y525449D01*
X980939Y525517D01*
X980969Y525612D01*
X980972Y525712D01*
X980983Y525780D01*
X980983Y530124D01*
X981876Y531017D01*
X1001140Y531017D01*
X1002033Y530124D01*
X1002033Y512860D01*
X1001140Y511967D01*
X981876Y511967D01*
X980983Y512860D01*
X980983Y518668D01*
X980976Y518719D01*
X980977Y518736D01*
X980975Y518741D01*
X980977Y518784D01*
X980955Y518866D01*
X980943Y518950D01*
X980920Y519003D01*
X980905Y519059D01*
X980862Y519132D01*
X980827Y519209D01*
X980789Y519254D01*
X980760Y519304D01*
X980698Y519362D01*
X980644Y519426D01*
X980595Y519458D01*
X980552Y519498D01*
X980477Y519537D01*
X980407Y519584D01*
X980351Y519601D01*
X980299Y519628D01*
X980231Y519639D01*
X980136Y519669D01*
X980036Y519672D01*
X979968Y519683D01*
X955294Y519683D01*
X955236Y519675D01*
X955178Y519677D01*
X955096Y519655D01*
X955012Y519643D01*
X954959Y519620D01*
X954903Y519605D01*
X954830Y519562D01*
X954753Y519527D01*
X954708Y519489D01*
X954658Y519460D01*
X954600Y519398D01*
X954536Y519344D01*
X954504Y519295D01*
X954464Y519252D01*
X954425Y519177D01*
X954378Y519107D01*
X954361Y519051D01*
X954334Y518999D01*
X954323Y518931D01*
X954293Y518836D01*
X954290Y518736D01*
X954279Y518668D01*
X954279Y513334D01*
X954287Y513276D01*
X954285Y513218D01*
X954307Y513136D01*
X954319Y513052D01*
X954342Y512999D01*
X954357Y512943D01*
X954400Y512870D01*
X954435Y512793D01*
X954473Y512748D01*
X954502Y512698D01*
X954564Y512640D01*
X954618Y512576D01*
X954667Y512544D01*
X954710Y512504D01*
X954785Y512465D01*
X954855Y512418D01*
X954911Y512401D01*
X954963Y512374D01*
X955031Y512363D01*
X955126Y512333D01*
X955226Y512330D01*
X955294Y512319D01*
X962168Y512319D01*
X963061Y511426D01*
X963061Y456822D01*
X962168Y455929D01*
X941600Y455929D01*
X940707Y456822D01*
X940707Y511426D01*
X941600Y512319D01*
X948182Y512319D01*
X948240Y512327D01*
X948298Y512325D01*
X948380Y512347D01*
X948464Y512359D01*
X948517Y512382D01*
X948573Y512397D01*
X948646Y512440D01*
X948723Y512475D01*
X948768Y512513D01*
X948818Y512542D01*
X948876Y512604D01*
X948940Y512658D01*
X948972Y512707D01*
X949012Y512750D01*
X949051Y512825D01*
X949098Y512895D01*
X949115Y512951D01*
X949142Y513003D01*
X949153Y513071D01*
X949183Y513166D01*
X949186Y513266D01*
X949197Y513334D01*
X949197Y519176D01*
X949189Y519234D01*
X949191Y519292D01*
X949169Y519374D01*
X949157Y519458D01*
X949134Y519511D01*
X949119Y519567D01*
X949076Y519640D01*
X949041Y519717D01*
X949003Y519762D01*
X948974Y519812D01*
X948912Y519870D01*
X948858Y519934D01*
X948809Y519966D01*
X948766Y520006D01*
X948691Y520045D01*
X948621Y520092D01*
X948565Y520109D01*
X948513Y520136D01*
X948445Y520147D01*
X948350Y520177D01*
X948250Y520180D01*
X948182Y520191D01*
X930040Y520191D01*
X929982Y520183D01*
X929924Y520185D01*
X929842Y520163D01*
X929759Y520151D01*
X929705Y520128D01*
X929649Y520113D01*
X929576Y520070D01*
X929499Y520035D01*
X929454Y519997D01*
X929404Y519968D01*
X929346Y519906D01*
X929282Y519852D01*
X929250Y519803D01*
X929210Y519760D01*
X929171Y519685D01*
X929125Y519615D01*
X929107Y519559D01*
X929080Y519507D01*
X929069Y519439D01*
X929039Y519344D01*
X929036Y519244D01*
X929025Y519176D01*
X929025Y505213D01*
X929029Y505182D01*
X929027Y505151D01*
X929044Y505075D01*
X929065Y504931D01*
X929091Y504872D01*
X929102Y504824D01*
X929641Y503524D01*
X929641Y501300D01*
X929102Y500000D01*
X929094Y499970D01*
X929080Y499942D01*
X929067Y499865D01*
X929031Y499725D01*
X929033Y499660D01*
X929025Y499611D01*
X929025Y455471D01*
X929037Y455385D01*
X929040Y455297D01*
X929057Y455245D01*
X929065Y455190D01*
X929100Y455110D01*
X929127Y455027D01*
X929155Y454988D01*
X929181Y454931D01*
X929277Y454817D01*
X929288Y454801D01*
X929928Y453255D01*
X929929Y453254D01*
X929930Y453253D01*
X930000Y453135D01*
X930073Y453011D01*
X930074Y453010D01*
X930075Y453008D01*
X930179Y452911D01*
X930280Y452815D01*
X930281Y452815D01*
X930282Y452814D01*
X930408Y452749D01*
X930532Y452685D01*
X930534Y452685D01*
X930535Y452684D01*
X930550Y452682D01*
X930811Y452630D01*
X930842Y452633D01*
X930866Y452629D01*
X950539Y452629D01*
X950635Y452642D01*
G37*
%LPC*%
G36*
X993539Y573561D02*
X993539Y573561D01*
X993539Y582579D01*
X1000909Y582579D01*
X1001685Y582371D01*
X1002380Y581970D01*
X1002948Y581402D01*
X1003349Y580707D01*
X1003557Y579931D01*
X1003557Y573561D01*
X993539Y573561D01*
G37*
%LPD*%
%LPC*%
G36*
X993539Y495523D02*
X993539Y495523D01*
X993539Y504541D01*
X1000909Y504541D01*
X1001685Y504333D01*
X1002380Y503932D01*
X1002948Y503364D01*
X1003349Y502669D01*
X1003557Y501893D01*
X1003557Y495523D01*
X993539Y495523D01*
G37*
%LPD*%
%LPC*%
G36*
X979459Y573561D02*
X979459Y573561D01*
X979459Y579931D01*
X979667Y580707D01*
X980068Y581402D01*
X980636Y581970D01*
X981331Y582371D01*
X982107Y582579D01*
X989477Y582579D01*
X989477Y573561D01*
X979459Y573561D01*
G37*
%LPD*%
%LPC*%
G36*
X979459Y495523D02*
X979459Y495523D01*
X979459Y501893D01*
X979667Y502669D01*
X980068Y503364D01*
X980636Y503932D01*
X981331Y504333D01*
X982107Y504541D01*
X989477Y504541D01*
X989477Y495523D01*
X979459Y495523D01*
G37*
%LPD*%
%LPC*%
G36*
X993539Y560481D02*
X993539Y560481D01*
X993539Y569499D01*
X1003557Y569499D01*
X1003557Y563129D01*
X1003349Y562353D01*
X1002948Y561658D01*
X1002380Y561090D01*
X1001685Y560689D01*
X1000909Y560481D01*
X993539Y560481D01*
G37*
%LPD*%
%LPC*%
G36*
X993539Y482443D02*
X993539Y482443D01*
X993539Y491461D01*
X1003557Y491461D01*
X1003557Y485091D01*
X1003349Y484315D01*
X1002948Y483620D01*
X1002380Y483052D01*
X1001685Y482651D01*
X1000909Y482443D01*
X993539Y482443D01*
G37*
%LPD*%
%LPC*%
G36*
X982107Y560481D02*
X982107Y560481D01*
X981331Y560689D01*
X980636Y561090D01*
X980068Y561658D01*
X979667Y562353D01*
X979459Y563129D01*
X979459Y569499D01*
X989477Y569499D01*
X989477Y560481D01*
X982107Y560481D01*
G37*
%LPD*%
%LPC*%
G36*
X982107Y482443D02*
X982107Y482443D01*
X981331Y482651D01*
X980636Y483052D01*
X980068Y483620D01*
X979667Y484315D01*
X979459Y485091D01*
X979459Y491461D01*
X989477Y491461D01*
X989477Y482443D01*
X982107Y482443D01*
G37*
%LPD*%
%LPC*%
G36*
X991507Y571529D02*
X991507Y571529D01*
X991507Y571531D01*
X991509Y571531D01*
X991509Y571529D01*
X991507Y571529D01*
G37*
%LPD*%
%LPC*%
G36*
X991507Y493491D02*
X991507Y493491D01*
X991507Y493493D01*
X991509Y493493D01*
X991509Y493491D01*
X991507Y493491D01*
G37*
%LPD*%
D10*
X585967Y396494D03*
X613967Y396494D03*
X563929Y396494D03*
X535929Y396494D03*
D11*
X911810Y482092D03*
X892810Y482092D03*
D12*
X991508Y571530D03*
X991508Y543530D03*
X991508Y493492D03*
X991508Y521492D03*
D13*
X593200Y615200D03*
X588200Y615200D03*
X583200Y615200D03*
X578200Y615200D03*
X573200Y615200D03*
X568200Y615200D03*
X563200Y615200D03*
X558200Y615200D03*
X553200Y615200D03*
X548200Y615200D03*
X543200Y615200D03*
X538200Y615200D03*
X533200Y615200D03*
X528200Y615200D03*
X523200Y615200D03*
X518200Y615200D03*
X513200Y615200D03*
X508200Y615200D03*
X503200Y615200D03*
X498200Y615200D03*
X493200Y615200D03*
X488200Y615200D03*
X483200Y615200D03*
X478200Y615200D03*
X473200Y615200D03*
X468200Y615200D03*
X463200Y615200D03*
X458200Y615200D03*
X453200Y615200D03*
X448200Y615200D03*
X443200Y615200D03*
X438200Y615200D03*
X433200Y615200D03*
X428200Y615200D03*
X423200Y615200D03*
X418200Y615200D03*
X413200Y615200D03*
X408200Y615200D03*
X403200Y615200D03*
X398200Y615200D03*
D14*
X379200Y647700D03*
X612200Y647700D03*
D15*
X897981Y707097D03*
X869541Y707097D03*
X899556Y357632D03*
X871116Y357632D03*
D11*
X911810Y522732D03*
X892810Y522732D03*
D16*
X852480Y446000D03*
X852480Y450000D03*
X852480Y454000D03*
X852480Y458000D03*
X852480Y462000D03*
X852480Y466000D03*
X852480Y470000D03*
X852480Y474000D03*
X852480Y478000D03*
X852480Y482000D03*
X852480Y486000D03*
X852480Y490000D03*
X852480Y494000D03*
X852480Y498000D03*
X852480Y502000D03*
X852480Y506000D03*
X852480Y510000D03*
X852480Y514000D03*
X852480Y518000D03*
X852480Y522000D03*
X852480Y526000D03*
X852480Y530000D03*
X852480Y534000D03*
X852480Y538000D03*
X852480Y542000D03*
X852480Y546000D03*
X852480Y550000D03*
X852480Y554000D03*
X852480Y558000D03*
X852480Y562000D03*
X852480Y566000D03*
X852480Y570000D03*
D17*
X837100Y585380D03*
X833100Y585380D03*
X829100Y585380D03*
X825100Y585380D03*
X821100Y585380D03*
X817100Y585380D03*
X813100Y585380D03*
X809100Y585380D03*
X805100Y585380D03*
X801100Y585380D03*
X797100Y585380D03*
X793100Y585380D03*
X789100Y585380D03*
X785100Y585380D03*
X781100Y585380D03*
X777100Y585380D03*
X773100Y585380D03*
X769100Y585380D03*
X765100Y585380D03*
X761100Y585380D03*
X757100Y585380D03*
X753100Y585380D03*
X749100Y585380D03*
X745100Y585380D03*
X741100Y585380D03*
X737100Y585380D03*
X733100Y585380D03*
X729100Y585380D03*
X725100Y585380D03*
X721100Y585380D03*
X717100Y585380D03*
X713100Y585380D03*
D16*
X697720Y570000D03*
X697720Y566000D03*
X697720Y562000D03*
X697720Y558000D03*
X697720Y554000D03*
X697720Y550000D03*
X697720Y546000D03*
X697720Y542000D03*
X697720Y538000D03*
X697720Y534000D03*
X697720Y530000D03*
X697720Y526000D03*
X697720Y522000D03*
X697720Y518000D03*
X697720Y514000D03*
X697720Y510000D03*
X697720Y506000D03*
X697720Y502000D03*
X697720Y498000D03*
X697720Y494000D03*
X697720Y490000D03*
X697720Y486000D03*
X697720Y482000D03*
X697720Y478000D03*
X697720Y474000D03*
X697720Y470000D03*
X697720Y466000D03*
X697720Y462000D03*
X697720Y458000D03*
X697720Y454000D03*
X697720Y450000D03*
X697720Y446000D03*
D17*
X713100Y430620D03*
X717100Y430620D03*
X721100Y430620D03*
X725100Y430620D03*
X729100Y430620D03*
X733100Y430620D03*
X737100Y430620D03*
X741100Y430620D03*
X745100Y430620D03*
X749100Y430620D03*
X753100Y430620D03*
X757100Y430620D03*
X761100Y430620D03*
X765100Y430620D03*
X769100Y430620D03*
X773100Y430620D03*
X777100Y430620D03*
X781100Y430620D03*
X785100Y430620D03*
X789100Y430620D03*
X793100Y430620D03*
X797100Y430620D03*
X801100Y430620D03*
X805100Y430620D03*
X809100Y430620D03*
X813100Y430620D03*
X817100Y430620D03*
X821100Y430620D03*
X825100Y430620D03*
X829100Y430620D03*
X833100Y430620D03*
X837100Y430620D03*
D18*
X584829Y377022D03*
X565829Y377022D03*
X575329Y356022D03*
D19*
X768242Y399136D03*
X768242Y380136D03*
X812438Y399136D03*
X812438Y380136D03*
X853078Y378866D03*
X853078Y397866D03*
D11*
X909314Y382778D03*
X890314Y382778D03*
X890270Y423418D03*
X909270Y423418D03*
X958800Y442468D03*
X939800Y442468D03*
X886250Y551688D03*
X905250Y551688D03*
X892810Y502412D03*
X911810Y502412D03*
D19*
X781704Y617372D03*
X781704Y636372D03*
X720744Y617372D03*
X720744Y636372D03*
X825900Y617372D03*
X825900Y636372D03*
D11*
X886250Y595630D03*
X905250Y595630D03*
X666490Y573151D03*
X647490Y573151D03*
X666998Y528955D03*
X647998Y528955D03*
X666998Y484886D03*
X647998Y484886D03*
X666998Y440690D03*
X647998Y440690D03*
X666998Y420370D03*
X647998Y420370D03*
D19*
X702456Y398882D03*
X702456Y379882D03*
X747922Y399136D03*
X747922Y380136D03*
X792118Y399136D03*
X792118Y380136D03*
X832758Y378866D03*
X832758Y397866D03*
D11*
X890270Y403098D03*
X909270Y403098D03*
X958850Y422148D03*
X939850Y422148D03*
X911854Y461772D03*
X892854Y461772D03*
X886250Y572008D03*
X905250Y572008D03*
D19*
X849776Y617372D03*
X849776Y636372D03*
X805580Y617372D03*
X805580Y636372D03*
X761384Y617372D03*
X761384Y636372D03*
X741064Y617372D03*
X741064Y636372D03*
X700424Y617372D03*
X700424Y636372D03*
D11*
X666490Y593471D03*
X647490Y593471D03*
X666998Y549275D03*
X647998Y549275D03*
X666998Y505206D03*
X647998Y505206D03*
X666998Y461010D03*
X647998Y461010D03*
D19*
X722776Y398882D03*
X722776Y379882D03*
D20*
X951884Y484124D03*
X951884Y580644D03*
D21*
X897938Y651930D03*
X897938Y686930D03*
D22*
X1141500Y504600D03*
X1141500Y509600D03*
X1141500Y514600D03*
X1141500Y519600D03*
X1141500Y524600D03*
X1141500Y529600D03*
X1141500Y534600D03*
X1141500Y539600D03*
X1141500Y544600D03*
X1141500Y549600D03*
X1141500Y554600D03*
X1141500Y559600D03*
X1141500Y564600D03*
X1141500Y569600D03*
X1141500Y574600D03*
X1141500Y579600D03*
X1141500Y584600D03*
X1141500Y589600D03*
X1141500Y594600D03*
X1141500Y599600D03*
X1141500Y604600D03*
X1141500Y609600D03*
D23*
X1174000Y628600D03*
X1174000Y485600D03*
D24*
X695734Y772970D03*
X695734Y766570D03*
X695734Y760170D03*
X695734Y753770D03*
X695734Y747370D03*
X695734Y740970D03*
X695734Y734570D03*
X695734Y728170D03*
X750034Y728170D03*
X750034Y734570D03*
X750034Y740970D03*
X750034Y747370D03*
X750034Y753770D03*
X750034Y760170D03*
X750034Y766570D03*
X750034Y772970D03*
D10*
X778032Y706628D03*
X750032Y706628D03*
D19*
X673608Y757326D03*
X673608Y776326D03*
D15*
X830576Y706628D03*
X802136Y706628D03*
D25*
X697695Y454025D02*
X697720Y454000D01*
X697695Y454025D02*
X683787Y454025D01*
X686985Y498000D02*
X697720Y498000D01*
D26*
X679850Y486410D03*
X679850Y457200D03*
D25*
X666490Y573151D02*
X666490Y593471D01*
D26*
X682390Y579120D03*
X679850Y541020D03*
D25*
X666998Y461010D02*
X666998Y440690D01*
X697720Y445504D02*
X697720Y446000D01*
X684930Y431800D02*
X672586Y420370D01*
D26*
X684930Y431800D03*
D25*
X697720Y445504D01*
X702456Y398882D02*
X722776Y398882D01*
X747922Y399136D02*
X760876Y399136D01*
X768242Y399136D01*
X761100Y399360D02*
X761130Y412750D01*
X761100Y399360D02*
X760876Y399136D01*
X792118Y399136D02*
X812438Y399136D01*
D26*
X724300Y411480D03*
X761130Y412750D03*
D25*
X761100Y430620D01*
D26*
X796690Y411480D03*
D25*
X886250Y551688D02*
X886250Y572008D01*
X886250Y551688D02*
X880562Y546000D01*
X872744Y546000D01*
X852480Y546000D01*
D26*
X872890Y548640D03*
D25*
X825900Y617372D02*
X806850Y617372D01*
X805580Y617372D01*
X781704Y617372D02*
X761384Y617372D01*
X781100Y616768D02*
X781704Y617372D01*
X781450Y603250D02*
X781100Y585380D01*
X741100Y585380D02*
X741064Y585416D01*
X720490Y617372D02*
X700424Y617372D01*
X720490Y617372D02*
X720744Y617372D01*
X741064Y594497D02*
X741064Y585416D01*
D26*
X726840Y603250D03*
X745890Y604520D03*
X781450Y603250D03*
D25*
X781100Y616768D01*
D26*
X808120Y603250D03*
D25*
X805100Y600646D02*
X805100Y585380D01*
X805100Y600646D02*
X808120Y603250D01*
X807704Y616518D01*
X806850Y617372D01*
X741064Y594497D02*
X732416Y603145D01*
X726840Y603250D01*
X720490Y609297D01*
X720490Y617372D01*
X408200Y615200D02*
X408200Y630304D01*
X409594Y631698D01*
X565550Y631698D02*
X573200Y624048D01*
X573200Y615200D01*
D26*
X972820Y474980D03*
D25*
X585470Y396494D02*
X575075Y396494D01*
X566693Y396494D01*
X563929Y396494D01*
D27*
X575075Y356276D02*
X575329Y356022D01*
X575075Y356276D02*
X575075Y396494D01*
X585470Y396494D02*
X585967Y396494D01*
X585470Y396494D02*
X566693Y396494D01*
D25*
X686870Y534000D02*
X697720Y534000D01*
X686870Y534000D02*
X679850Y541020D01*
X679850Y490865D02*
X679850Y486410D01*
X679850Y490865D02*
X686985Y498000D01*
X666998Y461010D02*
X670808Y457200D01*
X679850Y457200D01*
X680612Y457200D01*
X683787Y454025D01*
X792118Y399136D02*
X796690Y403708D01*
X796690Y411480D01*
X797100Y411890D01*
X797100Y430620D01*
X749100Y585380D02*
X749100Y598770D01*
X745890Y601980D01*
X745890Y604520D01*
X745890Y612546D01*
X741064Y617372D01*
X880542Y589922D02*
X886250Y595630D01*
X880542Y589922D02*
X854475Y589922D01*
X841642Y589922D01*
X837100Y585380D01*
X854475Y612673D02*
X849776Y617372D01*
D26*
X854475Y589922D03*
D25*
X854475Y612673D01*
X724300Y411480D02*
X724300Y400406D01*
X722776Y398882D01*
X724300Y411480D02*
X729100Y416280D01*
X729100Y430620D01*
X672586Y420370D02*
X666998Y420370D01*
X666998Y549275D02*
X671595Y549275D01*
X679850Y541020D01*
X667785Y528955D02*
X666998Y528955D01*
X667785Y528955D02*
X679850Y541020D01*
X666998Y505206D02*
X666998Y484886D01*
X678326Y484886D02*
X679850Y486410D01*
X678326Y484886D02*
X666998Y484886D01*
D26*
X976630Y595630D03*
X934720Y595630D03*
X984250Y474980D03*
X972820Y463550D03*
X986790Y595630D03*
X554990Y414020D03*
X575310Y414020D03*
X585470Y414020D03*
X595630Y414020D03*
X565150Y414020D03*
D28*
X563929Y414020D02*
X554990Y414020D01*
X563929Y414020D02*
X585967Y414020D01*
X595630Y414020D01*
X585967Y414020D02*
X585967Y396494D01*
X563929Y396494D02*
X563929Y414020D01*
D26*
X461010Y635000D03*
X471170Y635000D03*
X481330Y635000D03*
X491490Y635000D03*
X501650Y635000D03*
D28*
X538480Y635000D02*
X562248Y635000D01*
X565550Y631698D01*
X412896Y635000D02*
X409594Y631698D01*
D25*
X538200Y634720D02*
X538200Y615200D01*
X538200Y634720D02*
X538480Y635000D01*
X872890Y548640D02*
X872890Y546146D01*
X872744Y546000D01*
X682390Y579120D02*
X672459Y579120D01*
X682390Y579120D02*
X688600Y579120D01*
X697720Y570000D01*
X672459Y579120D02*
X666490Y573151D01*
D26*
X939800Y529590D03*
X949960Y529590D03*
D25*
X935390Y534000D02*
X852480Y534000D01*
X935390Y534000D02*
X939800Y529590D01*
X852480Y502000D02*
X839312Y502000D01*
X839216Y501904D01*
D26*
X839216Y501904D03*
D25*
X892810Y502412D02*
X892810Y501092D01*
X852480Y518000D02*
X852480Y522000D01*
D26*
X877062Y514858D03*
D25*
X861979Y510000D02*
X852480Y510000D01*
X892810Y501092D02*
X911810Y482092D01*
X901574Y472052D02*
X885258Y472052D01*
X901574Y472052D02*
X911854Y461772D01*
X880214Y477096D02*
X880214Y491765D01*
X880214Y477096D02*
X885258Y472052D01*
X880214Y491765D02*
X861979Y510000D01*
X862360Y494000D02*
X852480Y494000D01*
X911810Y482092D02*
X924052Y482092D01*
D26*
X924052Y482092D03*
D25*
X924306Y461772D02*
X911854Y461772D01*
D26*
X924306Y461772D03*
D25*
X889508Y502412D02*
X877062Y514858D01*
X869546Y486814D02*
X869546Y472677D01*
X958800Y432562D02*
X958800Y422198D01*
X958800Y432562D02*
X958800Y442468D01*
X869546Y486814D02*
X862360Y494000D01*
X958800Y422198D02*
X958850Y422148D01*
X880258Y451747D02*
X880258Y461965D01*
X869546Y472677D01*
X880258Y451747D02*
X887505Y444500D01*
X947486Y432562D02*
X958800Y432562D01*
X911716Y444500D02*
X887505Y444500D01*
X947352Y432428D02*
X947486Y432562D01*
X947352Y432428D02*
X923788Y432428D01*
X911716Y444500D01*
X865136Y462000D02*
X852480Y462000D01*
X865136Y462000D02*
X869590Y457546D01*
X860447Y450000D02*
X852480Y450000D01*
X860447Y450000D02*
X862478Y447969D01*
X852480Y450000D02*
X852480Y454000D01*
X890270Y401822D02*
X909314Y382778D01*
X890270Y401822D02*
X890270Y402590D01*
X890270Y403098D01*
X890270Y423418D02*
X883412Y423418D01*
X876808Y430022D01*
D26*
X876808Y430022D03*
D25*
X869590Y437240D01*
X869590Y457546D01*
D26*
X877062Y409194D03*
D25*
X862478Y423778D01*
X862478Y447969D01*
X889508Y502412D02*
X892810Y502412D01*
X958800Y442468D02*
X971042Y442468D01*
D26*
X971042Y442468D03*
D25*
X960374Y423672D02*
X958850Y422148D01*
X960374Y423672D02*
X971042Y423672D01*
D26*
X971042Y423672D03*
D25*
X911600Y385064D02*
X909314Y382778D01*
X911600Y385064D02*
X921512Y385064D01*
D26*
X921512Y385064D03*
D25*
X877062Y514858D02*
X869920Y522000D01*
X852480Y522000D01*
X883666Y402590D02*
X890270Y402590D01*
X883666Y402590D02*
X877062Y409194D01*
X817100Y420352D02*
X817100Y430620D01*
X817100Y420352D02*
X813733Y416985D01*
D26*
X813733Y416985D03*
D25*
X825100Y420126D02*
X825100Y430620D01*
X828158Y417068D02*
X834332Y417068D01*
X842798Y408602D01*
X842416Y378866D02*
X832758Y378866D01*
X828158Y417068D02*
X825100Y420126D01*
X842798Y408602D02*
X842798Y379248D01*
X842416Y378866D01*
X853078Y378866D01*
X852170Y377958D01*
X852170Y366776D01*
D26*
X852170Y366776D03*
D25*
X899978Y648970D02*
X897938Y651930D01*
D26*
X883666Y652018D03*
D25*
X673608Y749554D02*
X673608Y757326D01*
X673608Y749554D02*
X682244Y740918D01*
X695682Y740918D01*
X695734Y740970D01*
X682244Y740918D02*
X682244Y736600D01*
X682244Y734060D01*
X682244Y731012D01*
X685086Y728170D01*
X695734Y728170D01*
X682754Y734570D02*
X682244Y734060D01*
X682754Y734570D02*
X695734Y734570D01*
X1125272Y574600D02*
X1141500Y574600D01*
X1125272Y574600D02*
X1125220Y574548D01*
D26*
X1125220Y574548D03*
X1115060Y574802D03*
X1104900Y574548D03*
X1094740Y574548D03*
D28*
X1125220Y574548D01*
D25*
X883754Y651930D02*
X883666Y652018D01*
X883754Y651930D02*
X897938Y651930D01*
D26*
X673100Y736600D03*
D25*
X682244Y736600D01*
X768858Y715802D02*
X778032Y706628D01*
X768858Y715802D02*
X768858Y722122D01*
D26*
X768858Y722122D03*
D28*
X538480Y635000D02*
X501650Y635000D01*
X491490Y635000D01*
X481330Y635000D01*
X471170Y635000D01*
X461010Y635000D01*
X412896Y635000D01*
D25*
X813100Y440082D02*
X813100Y430620D01*
X813100Y440082D02*
X817010Y444500D01*
D26*
X817010Y444500D03*
X1089772Y512996D03*
D25*
X1091376Y514600D01*
X1141500Y514600D01*
X809100Y451830D02*
X809100Y430620D01*
X809100Y451830D02*
X809390Y452120D01*
D26*
X809390Y452120D03*
X1082693Y505663D03*
D25*
X1091745Y505630D02*
X1095715Y509600D01*
X1141500Y509600D01*
X1091745Y505630D02*
X1082726Y505630D01*
X1082693Y505663D01*
X805100Y442249D02*
X805100Y430620D01*
X805100Y442249D02*
X801770Y444500D01*
D26*
X801770Y444500D03*
X1076055Y496873D03*
D25*
X1095744Y504600D02*
X1141500Y504600D01*
X1076210Y497027D02*
X1076055Y496873D01*
X1076210Y497027D02*
X1088171Y497027D01*
X1095744Y504600D01*
D26*
X763670Y568960D03*
D25*
X769100Y574873D02*
X769100Y585380D01*
X763670Y569443D02*
X763670Y568960D01*
X763670Y569443D02*
X769100Y574873D01*
D26*
X1066800Y590550D03*
D25*
X1092750Y564600D01*
X1141500Y564600D01*
X852480Y470000D02*
X829960Y470000D01*
X825900Y464820D01*
D26*
X825900Y464820D03*
X1066800Y580390D03*
D25*
X1087590Y559600D01*
X1141500Y559600D01*
X852480Y474000D02*
X821335Y474000D01*
X815740Y468405D01*
D26*
X815740Y468405D03*
X1066800Y570230D03*
D25*
X1082430Y554600D01*
X1141500Y554600D01*
X852480Y478000D02*
X824717Y478000D01*
X824659Y478057D01*
X811070Y478057D01*
D26*
X811070Y478057D03*
X1066800Y560070D03*
D25*
X1077270Y549600D01*
X1141500Y549600D01*
X852480Y482000D02*
X822436Y482000D01*
X815740Y487680D01*
D26*
X815740Y487680D03*
X1067054Y549910D03*
D25*
X1072364Y544600D01*
X1141500Y544600D01*
X852480Y486000D02*
X831390Y486000D01*
X825500Y491490D01*
D26*
X825500Y491490D03*
X1066800Y539750D03*
D25*
X1066696Y539600D01*
X1141500Y539600D01*
X789100Y445836D02*
X789100Y430620D01*
X789100Y445836D02*
X792880Y449580D01*
D26*
X792880Y449580D03*
X1096518Y526204D03*
D25*
X1104914Y534600D01*
X1141500Y534600D01*
X785100Y457693D02*
X785100Y430620D01*
X785260Y457200D02*
X785100Y457693D01*
D26*
X785260Y457200D03*
X1107186Y526204D03*
D25*
X1110582Y529600D01*
X1141500Y529600D01*
D26*
X777640Y449580D03*
D25*
X781148Y430668D02*
X781100Y430620D01*
X781148Y446072D02*
X777640Y449580D01*
X781148Y446072D02*
X781148Y430668D01*
X1141500Y524600D02*
X1155102Y524600D01*
X1155192Y524510D01*
D26*
X1155192Y524510D03*
D25*
X833100Y443826D02*
X833100Y430620D01*
X833100Y443826D02*
X833520Y444500D01*
D26*
X833520Y444500D03*
D25*
X1087036Y519600D02*
X1141500Y519600D01*
X1087036Y519600D02*
X938276Y370840D01*
D26*
X922020Y370840D03*
D25*
X938276Y370840D01*
X687214Y482430D02*
X679630Y474846D01*
X687214Y482430D02*
X687214Y493012D01*
X688232Y494030D01*
X697690Y494030D01*
X697720Y494000D01*
D26*
X634130Y576580D03*
X633495Y527685D03*
X635400Y486410D03*
X635400Y440690D03*
D25*
X647998Y420370D02*
X648898Y420370D01*
X659446Y409822D01*
X695828Y430620D02*
X713100Y430620D01*
X695828Y430620D02*
X675030Y409822D01*
X659446Y409822D01*
X697720Y566000D02*
X698101Y566000D01*
X698140Y566039D01*
X683348Y566039D01*
X657530Y563111D02*
X647490Y573151D01*
X657530Y563111D02*
X680420Y563111D01*
X683348Y566039D01*
X689531Y530000D02*
X697720Y530000D01*
X689531Y530000D02*
X678446Y518915D01*
X689160Y450000D02*
X697720Y450000D01*
X676038Y432138D02*
X674550Y430650D01*
X659446Y430650D01*
X676038Y432138D02*
X676038Y436878D01*
X649406Y440690D02*
X647998Y440690D01*
X649406Y440690D02*
X659446Y430650D01*
X676038Y436878D02*
X689160Y450000D01*
D26*
X635400Y420370D03*
D25*
X692416Y406942D02*
X692416Y391330D01*
X692416Y406942D02*
X693650Y408176D01*
X711344Y408176D01*
X702456Y381290D02*
X702456Y379882D01*
X702456Y381290D02*
X692416Y391330D01*
X725100Y421932D02*
X725100Y430620D01*
X725100Y421932D02*
X711344Y408176D01*
X737882Y407450D02*
X737882Y391584D01*
X747922Y381544D02*
X747922Y380136D01*
X747922Y381544D02*
X737882Y391584D01*
X751137Y420705D02*
X755152Y420705D01*
X751137Y420705D02*
X737882Y407450D01*
X755152Y420705D02*
X757100Y422653D01*
X757100Y430620D01*
X782078Y406688D02*
X782078Y391584D01*
X792118Y381544D02*
X792118Y380136D01*
X792118Y381544D02*
X782078Y391584D01*
X782078Y406688D02*
X793100Y417710D01*
X793100Y430620D01*
D26*
X703980Y367030D03*
X749700Y367030D03*
X794150Y367030D03*
D25*
X852480Y550000D02*
X852940Y550460D01*
X862177Y550460D01*
X877210Y580560D02*
X878698Y582048D01*
X893802Y582048D01*
X903842Y572008D02*
X905250Y572008D01*
X903842Y572008D02*
X893802Y582048D01*
X877210Y565493D02*
X862177Y550460D01*
X877210Y565493D02*
X877210Y580560D01*
D26*
X917340Y572770D03*
D25*
X833100Y585380D02*
X833100Y594619D01*
X801100Y585380D02*
X801100Y604260D01*
X761384Y636372D02*
X760317Y635305D01*
X777148Y585428D02*
X777100Y585380D01*
X777148Y585428D02*
X777148Y593299D01*
X751478Y636372D02*
X741064Y636372D01*
X751478Y636372D02*
X759250Y636372D01*
X760317Y635305D01*
X751478Y636372D02*
X751344Y636238D01*
X700424Y636372D02*
X690384Y626332D01*
X737148Y593299D02*
X737148Y585428D01*
X737100Y585380D01*
X690384Y609820D02*
X690384Y626332D01*
X700424Y636372D02*
X700170Y648970D01*
D26*
X700170Y648970D03*
D25*
X761384Y639318D02*
X761384Y636372D01*
D26*
X747160Y648970D03*
D25*
X805580Y648970D02*
X805580Y636372D01*
D26*
X805580Y648970D03*
D25*
X850030Y648970D02*
X849776Y636372D01*
D26*
X850030Y648970D03*
D25*
X413454Y614946D02*
X413200Y615200D01*
X690384Y609820D02*
X692507Y607697D01*
X712690Y607697D02*
X724838Y595549D01*
X734898Y595549D01*
X712690Y607697D02*
X692507Y607697D01*
X734898Y595549D02*
X737148Y593299D01*
X537595Y394828D02*
X535929Y396494D01*
D28*
X555401Y377022D02*
X565829Y377022D01*
X555401Y377022D02*
X537595Y394828D01*
D25*
X413454Y597204D02*
X413454Y614946D01*
X413454Y597204D02*
X408070Y591820D01*
X747160Y648970D02*
X751732Y648970D01*
X761384Y639318D01*
X703980Y378358D02*
X703980Y367030D01*
X703980Y378358D02*
X702456Y379882D01*
X749700Y379766D02*
X749700Y367030D01*
X749700Y379766D02*
X747922Y381544D01*
X794150Y378104D02*
X794150Y367030D01*
X794150Y378104D02*
X792118Y380136D01*
X767195Y603252D02*
X757912Y603252D01*
X753100Y608064D01*
X751344Y609820D02*
X751344Y636238D01*
X767195Y603252D02*
X777148Y593299D01*
X753100Y585380D02*
X753100Y608064D01*
X751344Y609820D01*
X647998Y420370D02*
X635400Y420370D01*
X635400Y440690D02*
X647998Y440690D01*
X849776Y634964D02*
X849776Y636372D01*
X839736Y624924D02*
X839736Y601255D01*
X839736Y624924D02*
X849776Y634964D01*
X839736Y601255D02*
X833100Y594619D01*
X801100Y604260D02*
X795540Y609820D01*
X795540Y626332D01*
X805580Y636372D01*
X646728Y527685D02*
X633495Y527685D01*
X646728Y527685D02*
X647998Y528955D01*
X658038Y518915D01*
X678446Y518915D01*
X647998Y484886D02*
X658038Y474846D01*
X679630Y474846D01*
X741064Y642874D02*
X747160Y648970D01*
X741064Y642874D02*
X741064Y636372D01*
D26*
X533400Y379730D03*
X533400Y369570D03*
X533400Y359410D03*
D28*
X533400Y356235D02*
X533400Y393965D01*
X535929Y396494D01*
D25*
X899556Y357632D02*
X901334Y359410D01*
X914400Y359410D01*
D26*
X914400Y359410D03*
D25*
X644061Y576580D02*
X634130Y576580D01*
X644061Y576580D02*
X647490Y573151D01*
X646474Y486410D02*
X635400Y486410D01*
X646474Y486410D02*
X647998Y484886D01*
X905250Y572008D02*
X906012Y572770D01*
X917340Y572770D01*
X860950Y506000D02*
X852480Y506000D01*
X876658Y490292D02*
X876658Y475623D01*
X890509Y461772D02*
X892854Y461772D01*
X890509Y461772D02*
X876658Y475623D01*
X861026Y490000D02*
X852480Y490000D01*
X892854Y461772D02*
X903014Y451612D01*
X924560Y451612D01*
D26*
X924560Y451612D03*
D25*
X876658Y490292D02*
X860950Y506000D01*
X861026Y490000D02*
X865990Y485036D01*
X865990Y471204D01*
X929039Y422148D02*
X939850Y422148D01*
X886032Y440944D02*
X876702Y450274D01*
X876702Y460492D02*
X865990Y471204D01*
X910243Y440944D02*
X929039Y422148D01*
X910243Y440944D02*
X886032Y440944D01*
X876702Y450274D02*
X876702Y460492D01*
X864107Y458000D02*
X852480Y458000D01*
X864107Y458000D02*
X866034Y456073D01*
X866034Y430062D01*
X939850Y422148D02*
X939850Y408990D01*
X939800Y408940D01*
D26*
X939800Y408940D03*
D25*
X909270Y403098D02*
X898990Y413378D01*
X882718Y413378D01*
X866034Y430062D01*
X909270Y403098D02*
X921512Y403098D01*
D26*
X921512Y403098D03*
D25*
X821100Y419097D02*
X821100Y430620D01*
X832758Y397866D02*
X832758Y396835D01*
X822478Y386555D01*
X822478Y371554D02*
X827254Y366778D01*
X832250Y366778D01*
X822478Y371554D02*
X822478Y386555D01*
X832758Y397866D02*
X832758Y407439D01*
X821100Y419097D01*
D26*
X832250Y366778D03*
D25*
X869569Y690499D02*
X869569Y707069D01*
X869541Y707097D01*
D26*
X869569Y690499D03*
D25*
X695734Y772970D02*
X676964Y772970D01*
X673608Y776326D01*
X741932Y734570D02*
X750034Y734570D01*
X703532Y772970D02*
X695734Y772970D01*
X703532Y772970D02*
X741932Y734570D01*
D28*
X408070Y429260D02*
X443365Y393965D01*
X533400Y393965D01*
D25*
X1141500Y569600D02*
X1154044Y569600D01*
X1155954Y567690D01*
D26*
X1155954Y567690D03*
X1156208Y557530D03*
X1156208Y547370D03*
X1155954Y537210D03*
D28*
X1155954Y567690D01*
D26*
X408070Y584708D03*
X408178Y564388D03*
X408178Y554228D03*
D25*
X408070Y584708D02*
X408070Y591820D01*
D26*
X408040Y574548D03*
D28*
X408070Y554336D02*
X408178Y554228D01*
X408178Y429368D01*
X408070Y429260D01*
X408070Y574578D02*
X408070Y584708D01*
X408070Y574578D02*
X408040Y574548D01*
X408178Y574410D01*
X408178Y564388D01*
X408178Y554444D01*
X408070Y554336D01*
D25*
X673608Y776326D02*
X673608Y791210D01*
D26*
X673608Y791210D03*
D25*
X830576Y706628D02*
X831846Y707898D01*
X846836Y707898D01*
D26*
X846836Y707898D03*
X782720Y562610D03*
D25*
X544160Y614240D02*
X543200Y615200D01*
X544160Y614240D02*
X544160Y605895D01*
X558119Y591936D01*
X612833Y591936D01*
D26*
X766210Y651510D03*
D25*
X679900Y659003D02*
X612833Y591936D01*
X782720Y562610D02*
X789100Y568990D01*
X789100Y585380D01*
X758759Y659003D02*
X679900Y659003D01*
X766210Y651552D02*
X766210Y651510D01*
X766210Y651552D02*
X758759Y659003D01*
X793100Y585380D02*
X793100Y562830D01*
D26*
X792880Y562610D03*
D25*
X553200Y607472D02*
X553200Y615200D01*
X561624Y599048D02*
X609887Y599048D01*
D26*
X775100Y662940D03*
D25*
X561624Y599048D02*
X553200Y607472D01*
X609887Y599048D02*
X677335Y666496D01*
X792880Y562610D02*
X793100Y562830D01*
X771864Y666496D02*
X677335Y666496D01*
X771864Y666496D02*
X775100Y663260D01*
X775100Y662940D01*
D26*
X803040Y562610D03*
D25*
X558200Y607838D02*
X558200Y615200D01*
X558200Y607838D02*
X558184Y607822D01*
D26*
X783990Y670560D03*
D25*
X563402Y602604D02*
X558184Y607822D01*
X563402Y602604D02*
X608414Y602604D01*
X676878Y671068D01*
X797100Y568550D02*
X803040Y562610D01*
X797100Y568550D02*
X797100Y585380D01*
X783482Y671068D02*
X676878Y671068D01*
X783482Y671068D02*
X783990Y670560D01*
D26*
X772560Y562610D03*
D25*
X565648Y606160D02*
X564160Y607648D01*
X564160Y614240D02*
X563200Y615200D01*
X564160Y614240D02*
X564160Y607648D01*
X565648Y606160D02*
X606941Y606160D01*
D26*
X749700Y678180D03*
D25*
X773100Y585380D02*
X773100Y563150D01*
X772560Y562610D01*
X749700Y678180D02*
X678961Y678180D01*
X606941Y606160D01*
X384448Y601448D02*
X384448Y584708D01*
X384448Y601448D02*
X398200Y615200D01*
D28*
X384448Y397312D02*
X453084Y328676D01*
X384448Y397312D02*
X384448Y584708D01*
X1046415Y328676D02*
X1191604Y473865D01*
X1046415Y328676D02*
X453084Y328676D01*
D25*
X1141500Y584600D02*
X1171810Y584600D01*
X1173988Y582422D01*
D28*
X1191604Y564806D01*
X1191604Y473865D01*
D25*
X403200Y605492D02*
X403200Y615200D01*
D28*
X396132Y584454D02*
X396132Y402152D01*
D25*
X396132Y584454D02*
X396132Y598424D01*
X403200Y605492D01*
D28*
X396132Y402152D02*
X457924Y340360D01*
X998982Y340360D01*
D25*
X1141500Y579600D02*
X1160046Y579600D01*
X1168654Y570992D01*
D28*
X1168654Y510032D01*
X998982Y340360D01*
D25*
X578200Y615200D02*
X578200Y644551D01*
X598748Y665099D01*
X642373Y665099D01*
X660800Y683526D01*
X660800Y762110D02*
X665260Y766570D01*
X695734Y766570D01*
X660800Y762110D02*
X660800Y683526D01*
X583200Y644522D02*
X583200Y615200D01*
X583200Y644522D02*
X600221Y661543D01*
X644392Y661543D01*
X706825Y723976D01*
X706825Y744982D01*
X704437Y747370D01*
X695734Y747370D01*
X588200Y622852D02*
X588200Y615200D01*
X592220Y626872D02*
X617290Y626872D01*
X710457Y720039D02*
X710457Y747141D01*
X592220Y626872D02*
X588200Y622852D01*
X617290Y626872D02*
X710457Y720039D01*
X710457Y747141D02*
X703828Y753770D01*
X695734Y753770D01*
X610647Y615200D02*
X593200Y615200D01*
X610647Y615200D02*
X715029Y719582D01*
X715029Y748792D01*
X703651Y760170D01*
X695734Y760170D01*
D26*
X813200Y571500D03*
D25*
X825148Y585332D02*
X825100Y585380D01*
X825148Y585332D02*
X825148Y577461D01*
X823152Y575465D01*
X816756Y575465D01*
X813200Y571500D01*
X548200Y606884D02*
X548200Y615200D01*
X548200Y606884D02*
X559592Y595492D01*
X611360Y595492D01*
D26*
X803040Y660400D03*
D25*
X777836Y655066D02*
X772365Y655066D01*
X764866Y662565D01*
X777836Y655066D02*
X783170Y660400D01*
X803040Y660400D01*
X764866Y662565D02*
X678433Y662565D01*
X611360Y595492D01*
X852480Y538000D02*
X952138Y538000D01*
X952138Y556260D02*
X951884Y580644D01*
X952138Y556260D02*
X952138Y538000D01*
X991508Y538000D02*
X991508Y543530D01*
X991508Y538000D02*
X952138Y538000D01*
X991508Y522224D02*
X991508Y521492D01*
X951738Y522732D02*
X911810Y522732D01*
X951738Y522224D02*
X991508Y522224D01*
X951738Y522224D02*
X951738Y522732D01*
X951738Y522224D02*
X951738Y484124D01*
X951884Y484124D01*
X885542Y530000D02*
X852480Y530000D01*
X885542Y530000D02*
X892810Y522732D01*
X648898Y593471D02*
X647490Y593471D01*
X648898Y593471D02*
X658938Y603511D01*
X674141Y603511D01*
X713100Y592492D02*
X713100Y585380D01*
X713100Y592492D02*
X685160Y592492D01*
X674141Y603511D01*
X676836Y559315D02*
X659446Y559315D01*
X649406Y549275D01*
X687214Y548937D02*
X687214Y539117D01*
X688359Y537972D01*
X697692Y537972D01*
X697720Y538000D01*
X649406Y461010D02*
X647998Y461010D01*
X649406Y461010D02*
X659446Y471050D01*
X676668Y471050D01*
X689756Y457962D01*
X697682Y457962D01*
X697720Y458000D01*
D26*
X634130Y591820D03*
X634130Y548640D03*
X634130Y506730D03*
X635400Y461010D03*
D25*
X687214Y548937D02*
X676836Y559315D01*
X687796Y502000D02*
X697720Y502000D01*
X687796Y502000D02*
X674550Y515246D01*
X658038Y515246D02*
X647998Y505206D01*
X658038Y515246D02*
X674550Y515246D01*
X733100Y430620D02*
X733100Y389444D01*
X724300Y380644D01*
X724300Y381406D02*
X722776Y379882D01*
X768242Y380136D02*
X768242Y381544D01*
X778282Y391584D01*
X778282Y408806D01*
X765100Y421988D02*
X765100Y430620D01*
X765100Y421988D02*
X778282Y408806D01*
X822478Y406688D02*
X822478Y391584D01*
X822478Y406688D02*
X820990Y408176D01*
X812438Y381544D02*
X812438Y380136D01*
X809392Y408176D02*
X820990Y408176D01*
X822478Y391584D02*
X812438Y381544D01*
X801100Y416468D02*
X801100Y430620D01*
X801100Y416468D02*
X809392Y408176D01*
D26*
X724300Y367030D03*
X768750Y367030D03*
X813200Y367030D03*
D25*
X852480Y542000D02*
X861242Y542000D01*
X861686Y541556D01*
X895118Y541556D02*
X905250Y551688D01*
X895118Y541556D02*
X861686Y541556D01*
D26*
X917340Y552450D03*
D29*
X867830Y585350D02*
X852480Y570000D01*
X867830Y585350D02*
X894226Y585350D01*
X904506Y595630D01*
D26*
X917340Y595630D03*
D25*
X791744Y626332D02*
X781704Y636372D01*
X825900Y636372D02*
X835940Y626332D01*
X835940Y609820D01*
X821415Y595295D01*
X811048Y595295D01*
X809100Y593347D01*
X809100Y585380D01*
X791744Y600336D02*
X791744Y626332D01*
X785100Y593692D02*
X785100Y585380D01*
X785100Y593692D02*
X791744Y600336D01*
X731024Y626092D02*
X720744Y636372D01*
X745100Y595744D02*
X745100Y585380D01*
X745100Y595744D02*
X731024Y609820D01*
X731024Y626092D01*
X720744Y636372D02*
X720490Y648970D01*
D26*
X720490Y648970D03*
D25*
X781450Y648970D02*
X781704Y636372D01*
D26*
X781450Y648970D03*
D25*
X825900Y648970D02*
X825900Y636372D01*
D26*
X825900Y648970D03*
D28*
X613967Y396494D02*
X594495Y377022D01*
X584829Y377022D01*
D25*
X724300Y380644D02*
X724300Y367030D01*
X724300Y380644D02*
X724300Y381406D01*
X768750Y379628D02*
X768750Y367030D01*
X768750Y379628D02*
X768242Y380136D01*
X813200Y379374D02*
X813200Y367030D01*
X813200Y379374D02*
X812438Y380136D01*
X647998Y461010D02*
X635400Y461010D01*
X905250Y595630D02*
X917340Y595630D01*
X905250Y595630D02*
X904506Y595630D01*
X647998Y548640D02*
X634130Y548640D01*
X647998Y548640D02*
X647998Y549275D01*
X649406Y549275D01*
D30*
X613967Y396494D02*
X617541Y392920D01*
X644144Y392684D01*
X656844Y392684D01*
X669544Y392684D02*
X680720Y392938D01*
X669544Y392684D02*
X656844Y392684D01*
D26*
X632714Y392684D03*
X644144Y392684D03*
X656844Y392684D03*
X680974Y392684D03*
X669544Y392684D03*
D25*
X645839Y591820D02*
X634130Y591820D01*
X645839Y591820D02*
X647490Y593471D01*
X646474Y506730D02*
X634130Y506730D01*
X646474Y506730D02*
X647998Y505206D01*
X680720Y392938D02*
X680974Y392684D01*
X905250Y551688D02*
X906012Y552450D01*
X917340Y552450D01*
X901530Y512692D02*
X911810Y502412D01*
X901530Y512692D02*
X885258Y512692D01*
X911810Y502412D02*
X924052Y502412D01*
D26*
X924052Y502412D03*
D25*
X883770Y517652D02*
X875422Y526000D01*
X883770Y517652D02*
X883770Y514180D01*
X885258Y512692D01*
X875422Y526000D02*
X852480Y526000D01*
X852480Y514000D02*
X865536Y514000D01*
X866808Y514858D01*
D26*
X866808Y514858D03*
D25*
X866808Y510822D01*
X892810Y484820D01*
X892810Y482092D01*
X863440Y498000D02*
X852480Y498000D01*
X863440Y498000D02*
X873102Y488338D01*
X873102Y474150D01*
X883814Y463438D01*
X883814Y453220D01*
X888978Y448056D02*
X913951Y448056D01*
X888978Y448056D02*
X883814Y453220D01*
X866165Y466000D02*
X852480Y466000D01*
X873146Y448801D02*
X884559Y437388D01*
X873146Y459019D02*
X866165Y466000D01*
X873146Y459019D02*
X873146Y448801D01*
X852480Y446000D02*
X852480Y427384D01*
X870230Y409634D01*
X895300Y437388D02*
X909270Y423418D01*
X895300Y437388D02*
X884559Y437388D01*
X920555Y441452D02*
X924560Y441452D01*
D26*
X924560Y441452D03*
D25*
X920555Y441452D02*
X913951Y448056D01*
X924560Y441452D02*
X938784Y441452D01*
X939800Y442468D01*
X913080Y419608D02*
X909270Y423418D01*
X913080Y419608D02*
X921512Y419608D01*
D26*
X921512Y419608D03*
D25*
X873760Y389128D02*
X870230Y392658D01*
D26*
X873760Y389128D03*
D25*
X870230Y392658D02*
X870230Y409634D01*
X873760Y389128D02*
X880110Y382778D01*
X890314Y382778D01*
D26*
X847090Y413766D03*
D25*
X829290Y430430D02*
X829100Y430620D01*
X847090Y413900D02*
X847090Y413766D01*
X847090Y413900D02*
X840285Y420705D01*
X831048Y420705D01*
X829290Y422463D02*
X829290Y430430D01*
X829290Y422463D02*
X831048Y420705D01*
X847090Y413766D02*
X853078Y407778D01*
X853078Y397866D01*
X866674Y408161D02*
X851673Y423162D01*
X844558Y423162D01*
X837100Y430620D01*
X866674Y362074D02*
X871116Y357632D01*
X866674Y362074D02*
X866674Y408161D01*
D26*
X775100Y544830D03*
D25*
X774211Y544731D02*
X743477Y575465D01*
X774211Y544731D02*
X775100Y544830D01*
X743477Y575465D02*
X735048Y575465D01*
X733100Y577413D01*
D26*
X419500Y495300D03*
D25*
X418200Y496600D02*
X418200Y615200D01*
X418200Y496600D02*
X419500Y495300D01*
X733100Y577413D02*
X733100Y585380D01*
X829100Y585380D02*
X829100Y575810D01*
X796326Y543036D01*
X795420Y542290D01*
D26*
X795420Y542290D03*
X425850Y486410D03*
D25*
X423200Y501650D02*
X423200Y615200D01*
X423200Y501650D02*
X427120Y497730D01*
X427120Y487680D01*
X425850Y486410D01*
D26*
X714140Y479425D03*
X433470Y478790D03*
D25*
X433470Y496570D01*
X428200Y501840D02*
X428200Y615200D01*
X428200Y501840D02*
X433470Y496570D01*
X707565Y486000D02*
X714140Y479425D01*
X707565Y486000D02*
X697720Y486000D01*
X697720Y490000D02*
X714459Y490000D01*
D26*
X724300Y478790D03*
X442360Y471170D03*
D25*
X442360Y492760D01*
X433200Y501920D02*
X433200Y615200D01*
X433200Y501920D02*
X442360Y492760D01*
X724300Y480159D02*
X724300Y478790D01*
X724300Y480159D02*
X714459Y490000D01*
D26*
X836060Y571500D03*
D25*
X852432Y565952D02*
X852480Y566000D01*
X852432Y565952D02*
X844561Y565952D01*
X839239Y571274D01*
X836060Y571500D01*
D26*
X448710Y441960D03*
D25*
X449726Y442976D01*
X438200Y502000D02*
X438200Y615200D01*
X438200Y502000D02*
X449726Y490474D01*
X449726Y442976D01*
X830317Y562000D02*
X852480Y562000D01*
X830317Y562000D02*
X828440Y563880D01*
D26*
X828440Y563880D03*
X456330Y449580D03*
D25*
X455822Y489407D02*
X443200Y502029D01*
X455822Y450088D02*
X456330Y449580D01*
X455822Y450088D02*
X455822Y489407D01*
X443200Y502029D02*
X443200Y615200D01*
X831494Y558000D02*
X852480Y558000D01*
X831494Y558000D02*
X829025Y554990D01*
X819550Y554990D01*
D26*
X819550Y554990D03*
X462680Y458470D03*
D25*
X461918Y488340D02*
X448200Y502058D01*
X461918Y459232D02*
X462680Y458470D01*
X461918Y459232D02*
X461918Y488340D01*
X448200Y502058D02*
X448200Y615200D01*
X833292Y554000D02*
X852480Y554000D01*
X826535Y547243D02*
X811930Y547370D01*
D26*
X811930Y547370D03*
D25*
X826535Y547243D02*
X833292Y554000D01*
X453200Y504190D02*
X453200Y615200D01*
D26*
X470300Y466090D03*
D25*
X470300Y487090D02*
X453200Y504190D01*
X470300Y487090D02*
X470300Y466090D01*
D26*
X742080Y546100D03*
D25*
X709639Y550000D02*
X697720Y550000D01*
X709639Y550000D02*
X714400Y545239D01*
X741285Y545239D02*
X742080Y546100D01*
X741285Y545239D02*
X714400Y545239D01*
X458200Y520838D02*
X458200Y615200D01*
X458200Y520838D02*
X485770Y493268D01*
D26*
X620130Y567467D03*
D25*
X620130Y564609D01*
X548789Y493268D01*
X485770Y493268D01*
D26*
X734460Y553720D03*
D25*
X734180Y554000D01*
X697720Y554000D01*
X463200Y520867D02*
X463200Y615200D01*
D26*
X609172Y567436D03*
D25*
X542243Y496824D02*
X487243Y496824D01*
X463200Y520867D01*
X542243Y496824D02*
X609172Y563753D01*
X609172Y567436D01*
D26*
X726840Y561340D03*
D25*
X468200Y520896D02*
X468200Y615200D01*
D26*
X598885Y567436D03*
D25*
X535512Y500380D02*
X488716Y500380D01*
X535512Y500380D02*
X598885Y563753D01*
X598885Y567436D01*
X488716Y500380D02*
X468200Y520896D01*
X723500Y558000D02*
X726840Y561340D01*
X723500Y558000D02*
X697720Y558000D01*
X697720Y562000D02*
X712260Y562000D01*
X719220Y568960D01*
D26*
X719220Y568960D03*
D25*
X473200Y615200D02*
X473200Y520925D01*
X490189Y503936D01*
X528777Y503936D01*
X588664Y563823D01*
X588664Y567309D01*
D26*
X588664Y567309D03*
D25*
X478200Y520954D02*
X478200Y615200D01*
X478200Y520954D02*
X491662Y507492D01*
X522624Y507492D01*
D26*
X578377Y567182D03*
X706266Y585888D03*
D25*
X711048Y575465D02*
X715152Y575465D01*
X711048Y575465D02*
X709560Y576953D01*
X709560Y582594D01*
X706266Y585888D01*
X717100Y585380D02*
X717164Y585316D01*
X717164Y577477D01*
X715152Y575465D01*
X578377Y563245D02*
X522624Y507492D01*
X578377Y563245D02*
X578377Y567182D01*
X483200Y521084D02*
X483200Y615200D01*
X483200Y521084D02*
X493156Y511128D01*
X513247Y511128D01*
D26*
X567328Y569214D03*
D25*
X567328Y565209D02*
X513247Y511128D01*
X567328Y565209D02*
X567328Y569214D01*
D26*
X701440Y600710D03*
D25*
X721100Y593750D02*
X721100Y585380D01*
X714140Y600710D02*
X701440Y600710D01*
X714140Y600710D02*
X721100Y593750D01*
X488200Y615200D02*
X488200Y521647D01*
X495116Y514731D01*
X558946Y567055D02*
X558946Y577342D01*
X558946Y567055D02*
X506622Y514731D01*
D26*
X558946Y577342D03*
D25*
X506622Y514731D02*
X495116Y514731D01*
X732102Y568353D02*
X738575Y568353D01*
X725100Y575355D02*
X725100Y585380D01*
X725100Y575355D02*
X732102Y568353D01*
X738575Y568353D02*
X754272Y552656D01*
X754780Y539750D01*
D26*
X754780Y539750D03*
X764940Y541020D03*
D25*
X493200Y522057D02*
X493200Y615200D01*
X496970Y518287D02*
X504844Y518287D01*
X496970Y518287D02*
X493200Y522057D01*
X551199Y564642D02*
X551199Y585597D01*
X551199Y564642D02*
X504844Y518287D01*
D26*
X551199Y585597D03*
D25*
X729100Y585380D02*
X729126Y585354D01*
X733575Y571909D02*
X740048Y571909D01*
X764686Y547271D01*
X764940Y541020D01*
X729126Y576358D02*
X729126Y585354D01*
X729126Y576358D02*
X733575Y571909D01*
D26*
X711600Y500380D03*
D25*
X498200Y528238D02*
X498200Y615200D01*
X498200Y528238D02*
X500560Y525878D01*
D26*
X500560Y525878D03*
D25*
X697720Y506000D02*
X705980Y506000D01*
X711600Y500380D01*
X715782Y510000D02*
X697720Y510000D01*
X715782Y510000D02*
X721760Y504190D01*
D26*
X721760Y504190D03*
D25*
X503200Y536896D02*
X503200Y615200D01*
X503200Y536896D02*
X505074Y535022D01*
D26*
X505074Y535022D03*
X731920Y508000D03*
D25*
X508200Y546760D02*
X508200Y615200D01*
X510921Y544039D02*
X510921Y543785D01*
X510921Y544039D02*
X508200Y546760D01*
D26*
X510921Y543785D03*
D25*
X725920Y514000D02*
X731920Y508000D01*
X725920Y514000D02*
X697720Y514000D01*
D26*
X739540Y516890D03*
D25*
X738532Y518000D02*
X697720Y518000D01*
X738532Y518000D02*
X739540Y516890D01*
X513200Y556184D02*
X513200Y615200D01*
X513200Y556184D02*
X516963Y552421D01*
D26*
X516963Y552421D03*
X730650Y528320D03*
D25*
X730583Y526526D02*
X726057Y522000D01*
X730583Y526526D02*
X730650Y528320D01*
X726057Y522000D02*
X697720Y522000D01*
X518200Y565405D02*
X518200Y615200D01*
X518200Y565405D02*
X522540Y561065D01*
D26*
X522540Y561065D03*
X721760Y533400D03*
D25*
X715298Y526000D02*
X697720Y526000D01*
X715298Y526000D02*
X721760Y533400D01*
X523200Y574246D02*
X523200Y615200D01*
X523200Y574246D02*
X527090Y570356D01*
D26*
X527090Y570356D03*
X711600Y534670D03*
D25*
X707581Y542000D02*
X697720Y542000D01*
X528200Y583404D02*
X528200Y615200D01*
X531773Y579831D02*
X532090Y579831D01*
X531773Y579831D02*
X528200Y583404D01*
D26*
X532090Y579831D03*
D25*
X707581Y542000D02*
X711600Y537981D01*
X711600Y534670D01*
D26*
X734460Y538480D03*
D25*
X708610Y546000D02*
X697720Y546000D01*
X533200Y593324D02*
X533200Y615200D01*
X533200Y593324D02*
X537662Y588862D01*
D26*
X537662Y588862D03*
D25*
X731920Y541020D02*
X734460Y538480D01*
X731920Y541020D02*
X713590Y541020D01*
X708610Y546000D01*
X897981Y707097D02*
X899541Y705537D01*
X897981Y707097D02*
X897981Y686973D01*
X897938Y686930D01*
X750034Y706630D02*
X750034Y728170D01*
X750034Y706630D02*
X750032Y706628D01*
X750034Y740970D02*
X767794Y740970D01*
X802136Y706628D01*
X835918Y740410D01*
X1110930Y589600D02*
X1141500Y589600D01*
X960120Y740410D02*
X835918Y740410D01*
X960120Y740410D02*
X1110930Y589600D01*
X965860Y747370D02*
X750034Y747370D01*
X1118630Y594600D02*
X1141500Y594600D01*
X1118630Y594600D02*
X965860Y747370D01*
X964490Y760170D02*
X750034Y760170D01*
X1125060Y599600D02*
X1141500Y599600D01*
X1125060Y599600D02*
X964490Y760170D01*
X978130Y772970D02*
X750034Y772970D01*
X978130Y772970D02*
X1141500Y609600D01*
X970790Y766570D02*
X750034Y766570D01*
X1132760Y604600D02*
X1141500Y604600D01*
X1132760Y604600D02*
X970790Y766570D01*
M02*
