G04 EAGLE Gerber RS-274X export*
G75*
%MOMM*%
%FSLAX34Y34*%
%LPD*%
%INCopper Layer 15*%
%IPPOS*%
%AMOC8*
5,1,8,0,0,1.08239X$1,22.5*%
G01*
%ADD10C,0.812800*%

G36*
X1206408Y316493D02*
X1206408Y316493D01*
X1206466Y316491D01*
X1206548Y316513D01*
X1206632Y316525D01*
X1206685Y316549D01*
X1206741Y316563D01*
X1206814Y316606D01*
X1206891Y316641D01*
X1206936Y316679D01*
X1206986Y316709D01*
X1207044Y316770D01*
X1207108Y316825D01*
X1207140Y316873D01*
X1207180Y316916D01*
X1207219Y316991D01*
X1207266Y317061D01*
X1207283Y317117D01*
X1207310Y317169D01*
X1207321Y317237D01*
X1207351Y317332D01*
X1207354Y317432D01*
X1207365Y317500D01*
X1207365Y797942D01*
X1207357Y798000D01*
X1207359Y798058D01*
X1207337Y798140D01*
X1207325Y798224D01*
X1207302Y798277D01*
X1207287Y798333D01*
X1207244Y798406D01*
X1207209Y798483D01*
X1207171Y798528D01*
X1207142Y798578D01*
X1207080Y798636D01*
X1207026Y798700D01*
X1206977Y798732D01*
X1206934Y798772D01*
X1206859Y798811D01*
X1206789Y798858D01*
X1206733Y798875D01*
X1206681Y798902D01*
X1206613Y798913D01*
X1206518Y798943D01*
X1206418Y798946D01*
X1206350Y798957D01*
X660400Y798957D01*
X660342Y798949D01*
X660284Y798951D01*
X660202Y798929D01*
X660119Y798917D01*
X660065Y798894D01*
X660009Y798879D01*
X659936Y798836D01*
X659859Y798801D01*
X659814Y798763D01*
X659764Y798734D01*
X659706Y798672D01*
X659642Y798618D01*
X659610Y798569D01*
X659570Y798526D01*
X659531Y798451D01*
X659485Y798381D01*
X659467Y798325D01*
X659440Y798273D01*
X659429Y798205D01*
X659399Y798110D01*
X659396Y798010D01*
X659385Y797942D01*
X659385Y674115D01*
X368300Y674115D01*
X368242Y674107D01*
X368184Y674109D01*
X368102Y674087D01*
X368019Y674075D01*
X367965Y674052D01*
X367909Y674037D01*
X367836Y673994D01*
X367759Y673959D01*
X367714Y673921D01*
X367664Y673892D01*
X367606Y673830D01*
X367542Y673776D01*
X367510Y673727D01*
X367470Y673684D01*
X367431Y673609D01*
X367385Y673539D01*
X367367Y673483D01*
X367340Y673431D01*
X367329Y673363D01*
X367299Y673268D01*
X367296Y673168D01*
X367285Y673100D01*
X367285Y317500D01*
X367293Y317442D01*
X367291Y317384D01*
X367313Y317302D01*
X367325Y317219D01*
X367349Y317165D01*
X367363Y317109D01*
X367406Y317036D01*
X367441Y316959D01*
X367479Y316914D01*
X367509Y316864D01*
X367570Y316806D01*
X367625Y316742D01*
X367673Y316710D01*
X367716Y316670D01*
X367791Y316631D01*
X367861Y316585D01*
X367917Y316567D01*
X367969Y316540D01*
X368037Y316529D01*
X368132Y316499D01*
X368232Y316496D01*
X368300Y316485D01*
X1206350Y316485D01*
X1206408Y316493D01*
G37*
%LPC*%
G36*
X577265Y561593D02*
X577265Y561593D01*
X575211Y562444D01*
X573639Y564016D01*
X573165Y565162D01*
X573106Y565261D01*
X573053Y565363D01*
X573034Y565383D01*
X573020Y565407D01*
X572937Y565485D01*
X572858Y565569D01*
X572834Y565583D01*
X572813Y565602D01*
X572711Y565654D01*
X572612Y565712D01*
X572585Y565719D01*
X572561Y565732D01*
X572448Y565754D01*
X572337Y565782D01*
X572309Y565782D01*
X572282Y565787D01*
X572167Y565777D01*
X572053Y565773D01*
X572026Y565765D01*
X571999Y565763D01*
X571892Y565721D01*
X571782Y565686D01*
X571762Y565671D01*
X571733Y565660D01*
X571521Y565500D01*
X571509Y565491D01*
X570494Y564476D01*
X568440Y563625D01*
X566216Y563625D01*
X564162Y564476D01*
X562590Y566048D01*
X561739Y568102D01*
X561739Y570326D01*
X561863Y570625D01*
X561871Y570654D01*
X561884Y570680D01*
X561906Y570791D01*
X561934Y570901D01*
X561933Y570930D01*
X561939Y570959D01*
X561929Y571072D01*
X561926Y571185D01*
X561917Y571213D01*
X561915Y571242D01*
X561874Y571347D01*
X561840Y571455D01*
X561823Y571480D01*
X561813Y571507D01*
X561744Y571598D01*
X561681Y571692D01*
X561659Y571710D01*
X561641Y571734D01*
X561550Y571802D01*
X561464Y571875D01*
X561437Y571886D01*
X561413Y571904D01*
X561307Y571944D01*
X561204Y571990D01*
X561175Y571994D01*
X561147Y572004D01*
X561034Y572014D01*
X560922Y572029D01*
X560893Y572025D01*
X560864Y572027D01*
X560788Y572010D01*
X560641Y571988D01*
X560584Y571963D01*
X560537Y571952D01*
X560058Y571753D01*
X557834Y571753D01*
X555780Y572604D01*
X554208Y574176D01*
X553357Y576230D01*
X553357Y578454D01*
X553420Y578604D01*
X553448Y578716D01*
X553483Y578825D01*
X553484Y578853D01*
X553491Y578880D01*
X553487Y578994D01*
X553490Y579109D01*
X553483Y579136D01*
X553483Y579164D01*
X553448Y579273D01*
X553419Y579384D01*
X553404Y579408D01*
X553396Y579435D01*
X553332Y579530D01*
X553273Y579629D01*
X553253Y579648D01*
X553238Y579671D01*
X553150Y579745D01*
X553066Y579823D01*
X553041Y579836D01*
X553020Y579854D01*
X552915Y579900D01*
X552813Y579953D01*
X552788Y579957D01*
X552760Y579969D01*
X552496Y580006D01*
X552482Y580008D01*
X550087Y580008D01*
X548033Y580859D01*
X546461Y582431D01*
X545610Y584485D01*
X545610Y586709D01*
X546461Y588763D01*
X548033Y590335D01*
X550087Y591186D01*
X552311Y591186D01*
X554365Y590335D01*
X555937Y588763D01*
X556788Y586709D01*
X556788Y584485D01*
X556725Y584335D01*
X556697Y584223D01*
X556662Y584114D01*
X556661Y584086D01*
X556654Y584059D01*
X556658Y583944D01*
X556655Y583830D01*
X556662Y583803D01*
X556662Y583775D01*
X556697Y583666D01*
X556726Y583555D01*
X556741Y583531D01*
X556749Y583504D01*
X556813Y583409D01*
X556872Y583310D01*
X556892Y583291D01*
X556907Y583268D01*
X556995Y583194D01*
X557079Y583116D01*
X557104Y583103D01*
X557125Y583085D01*
X557230Y583039D01*
X557332Y582986D01*
X557357Y582982D01*
X557385Y582970D01*
X557649Y582933D01*
X557663Y582931D01*
X560058Y582931D01*
X562112Y582080D01*
X563684Y580508D01*
X564535Y578454D01*
X564535Y576230D01*
X564411Y575931D01*
X564403Y575902D01*
X564390Y575876D01*
X564368Y575765D01*
X564340Y575655D01*
X564341Y575626D01*
X564335Y575597D01*
X564345Y575484D01*
X564348Y575371D01*
X564357Y575343D01*
X564359Y575314D01*
X564400Y575209D01*
X564434Y575101D01*
X564451Y575076D01*
X564461Y575049D01*
X564530Y574958D01*
X564593Y574864D01*
X564615Y574846D01*
X564633Y574822D01*
X564724Y574754D01*
X564810Y574681D01*
X564837Y574670D01*
X564861Y574652D01*
X564967Y574612D01*
X565070Y574566D01*
X565099Y574562D01*
X565127Y574552D01*
X565240Y574542D01*
X565352Y574527D01*
X565381Y574531D01*
X565410Y574529D01*
X565486Y574546D01*
X565633Y574568D01*
X565690Y574593D01*
X565737Y574604D01*
X566216Y574803D01*
X568440Y574803D01*
X570494Y573952D01*
X572066Y572380D01*
X572540Y571234D01*
X572599Y571135D01*
X572652Y571033D01*
X572671Y571013D01*
X572685Y570989D01*
X572768Y570911D01*
X572847Y570827D01*
X572871Y570813D01*
X572892Y570794D01*
X572994Y570742D01*
X573093Y570684D01*
X573120Y570677D01*
X573144Y570664D01*
X573257Y570642D01*
X573368Y570614D01*
X573396Y570614D01*
X573423Y570609D01*
X573538Y570619D01*
X573652Y570623D01*
X573679Y570631D01*
X573706Y570633D01*
X573813Y570675D01*
X573923Y570710D01*
X573943Y570725D01*
X573972Y570736D01*
X574184Y570896D01*
X574196Y570905D01*
X575211Y571920D01*
X577265Y572771D01*
X579489Y572771D01*
X581543Y571920D01*
X582739Y570724D01*
X582786Y570688D01*
X582826Y570646D01*
X582899Y570603D01*
X582966Y570553D01*
X583021Y570532D01*
X583071Y570502D01*
X583153Y570481D01*
X583232Y570451D01*
X583290Y570447D01*
X583347Y570432D01*
X583431Y570435D01*
X583515Y570428D01*
X583573Y570439D01*
X583631Y570441D01*
X583711Y570467D01*
X583794Y570484D01*
X583846Y570511D01*
X583902Y570529D01*
X583958Y570569D01*
X584046Y570615D01*
X584119Y570683D01*
X584175Y570724D01*
X585498Y572047D01*
X587552Y572898D01*
X589776Y572898D01*
X591830Y572047D01*
X592993Y570884D01*
X593040Y570848D01*
X593080Y570806D01*
X593153Y570763D01*
X593220Y570713D01*
X593275Y570692D01*
X593325Y570662D01*
X593407Y570641D01*
X593486Y570611D01*
X593544Y570607D01*
X593601Y570592D01*
X593685Y570595D01*
X593769Y570588D01*
X593827Y570599D01*
X593885Y570601D01*
X593965Y570627D01*
X594048Y570644D01*
X594100Y570671D01*
X594156Y570689D01*
X594212Y570729D01*
X594300Y570775D01*
X594373Y570843D01*
X594429Y570884D01*
X595719Y572174D01*
X597773Y573025D01*
X599997Y573025D01*
X602051Y572174D01*
X603311Y570914D01*
X603357Y570879D01*
X603398Y570836D01*
X603470Y570794D01*
X603538Y570743D01*
X603592Y570722D01*
X603643Y570693D01*
X603725Y570672D01*
X603803Y570642D01*
X603862Y570637D01*
X603918Y570623D01*
X604003Y570625D01*
X604087Y570618D01*
X604144Y570630D01*
X604203Y570632D01*
X604283Y570658D01*
X604366Y570674D01*
X604417Y570701D01*
X604473Y570719D01*
X604529Y570759D01*
X604618Y570805D01*
X604690Y570874D01*
X604746Y570914D01*
X606006Y572174D01*
X608060Y573025D01*
X610284Y573025D01*
X612338Y572174D01*
X613918Y570594D01*
X613964Y570559D01*
X614005Y570516D01*
X614030Y570502D01*
X614051Y570482D01*
X614099Y570457D01*
X614145Y570423D01*
X614199Y570402D01*
X614250Y570373D01*
X614279Y570365D01*
X614304Y570353D01*
X614350Y570345D01*
X614410Y570322D01*
X614469Y570317D01*
X614525Y570303D01*
X614590Y570305D01*
X614635Y570297D01*
X614636Y570297D01*
X614662Y570301D01*
X614694Y570298D01*
X614751Y570310D01*
X614810Y570312D01*
X614865Y570330D01*
X614918Y570337D01*
X614942Y570348D01*
X614973Y570354D01*
X615024Y570381D01*
X615080Y570399D01*
X615121Y570428D01*
X615177Y570453D01*
X615199Y570472D01*
X615225Y570485D01*
X615297Y570554D01*
X615353Y570594D01*
X616964Y572204D01*
X619018Y573055D01*
X621241Y573055D01*
X623295Y572204D01*
X624867Y570632D01*
X625718Y568578D01*
X625718Y566355D01*
X624867Y564301D01*
X623295Y562729D01*
X621241Y561878D01*
X619018Y561878D01*
X616964Y562729D01*
X615384Y564308D01*
X615337Y564344D01*
X615297Y564386D01*
X615224Y564429D01*
X615157Y564479D01*
X615102Y564500D01*
X615052Y564530D01*
X614970Y564550D01*
X614891Y564581D01*
X614833Y564585D01*
X614776Y564600D01*
X614692Y564597D01*
X614608Y564604D01*
X614550Y564593D01*
X614492Y564591D01*
X614412Y564565D01*
X614329Y564548D01*
X614277Y564521D01*
X614221Y564503D01*
X614165Y564463D01*
X614077Y564417D01*
X614004Y564348D01*
X613948Y564308D01*
X612338Y562698D01*
X610284Y561847D01*
X608060Y561847D01*
X606006Y562698D01*
X604746Y563958D01*
X604700Y563993D01*
X604659Y564036D01*
X604587Y564078D01*
X604519Y564129D01*
X604465Y564150D01*
X604414Y564179D01*
X604333Y564200D01*
X604254Y564230D01*
X604195Y564235D01*
X604139Y564249D01*
X604054Y564247D01*
X603970Y564254D01*
X603913Y564242D01*
X603854Y564240D01*
X603774Y564214D01*
X603692Y564198D01*
X603640Y564171D01*
X603584Y564153D01*
X603528Y564113D01*
X603439Y564067D01*
X603367Y563998D01*
X603311Y563958D01*
X602051Y562698D01*
X599997Y561847D01*
X597773Y561847D01*
X595719Y562698D01*
X594556Y563861D01*
X594509Y563897D01*
X594469Y563939D01*
X594396Y563982D01*
X594329Y564032D01*
X594274Y564053D01*
X594224Y564083D01*
X594142Y564103D01*
X594063Y564134D01*
X594005Y564138D01*
X593948Y564153D01*
X593864Y564150D01*
X593780Y564157D01*
X593722Y564146D01*
X593664Y564144D01*
X593584Y564118D01*
X593501Y564101D01*
X593449Y564074D01*
X593393Y564056D01*
X593337Y564016D01*
X593249Y563970D01*
X593176Y563901D01*
X593120Y563861D01*
X591830Y562571D01*
X589776Y561720D01*
X587552Y561720D01*
X585498Y562571D01*
X584302Y563767D01*
X584255Y563803D01*
X584215Y563845D01*
X584142Y563888D01*
X584075Y563938D01*
X584020Y563959D01*
X583970Y563989D01*
X583888Y564009D01*
X583809Y564040D01*
X583751Y564044D01*
X583694Y564059D01*
X583610Y564056D01*
X583526Y564063D01*
X583468Y564052D01*
X583410Y564050D01*
X583330Y564024D01*
X583247Y564007D01*
X583195Y563980D01*
X583139Y563962D01*
X583083Y563922D01*
X582995Y563876D01*
X582922Y563807D01*
X582866Y563767D01*
X581543Y562444D01*
X579489Y561593D01*
X577265Y561593D01*
G37*
%LPD*%
%LPC*%
G36*
X729538Y522731D02*
X729538Y522731D01*
X727484Y523582D01*
X725912Y525154D01*
X725059Y527213D01*
X725045Y527313D01*
X725035Y527427D01*
X725025Y527453D01*
X725021Y527480D01*
X724974Y527585D01*
X724933Y527692D01*
X724917Y527714D01*
X724905Y527740D01*
X724831Y527827D01*
X724762Y527919D01*
X724739Y527936D01*
X724722Y527957D01*
X724626Y528020D01*
X724534Y528089D01*
X724508Y528099D01*
X724485Y528114D01*
X724375Y528149D01*
X724268Y528189D01*
X724240Y528192D01*
X724214Y528200D01*
X724099Y528203D01*
X723985Y528212D01*
X723960Y528207D01*
X723930Y528207D01*
X723673Y528140D01*
X723657Y528137D01*
X722872Y527811D01*
X720648Y527811D01*
X718594Y528662D01*
X717013Y530244D01*
X716973Y530311D01*
X716920Y530413D01*
X716901Y530433D01*
X716887Y530457D01*
X716803Y530536D01*
X716724Y530619D01*
X716700Y530633D01*
X716680Y530652D01*
X716578Y530705D01*
X716479Y530763D01*
X716452Y530770D01*
X716427Y530782D01*
X716314Y530805D01*
X716203Y530833D01*
X716176Y530832D01*
X716148Y530838D01*
X716034Y530828D01*
X715919Y530824D01*
X715893Y530815D01*
X715865Y530813D01*
X715758Y530772D01*
X715649Y530737D01*
X715628Y530722D01*
X715600Y530711D01*
X715387Y530550D01*
X715375Y530542D01*
X715373Y530540D01*
X715373Y530539D01*
X714766Y529932D01*
X712712Y529081D01*
X710488Y529081D01*
X708434Y529932D01*
X706862Y531504D01*
X706011Y533558D01*
X706011Y535782D01*
X706862Y537836D01*
X708434Y539408D01*
X710488Y540259D01*
X712712Y540259D01*
X714766Y539408D01*
X716347Y537826D01*
X716387Y537759D01*
X716440Y537657D01*
X716459Y537637D01*
X716473Y537613D01*
X716557Y537534D01*
X716636Y537451D01*
X716660Y537437D01*
X716680Y537418D01*
X716782Y537365D01*
X716881Y537307D01*
X716908Y537300D01*
X716933Y537288D01*
X717046Y537265D01*
X717157Y537237D01*
X717184Y537238D01*
X717212Y537232D01*
X717326Y537242D01*
X717441Y537246D01*
X717467Y537255D01*
X717495Y537257D01*
X717602Y537298D01*
X717711Y537333D01*
X717732Y537348D01*
X717760Y537359D01*
X717973Y537520D01*
X717985Y537528D01*
X717987Y537530D01*
X717987Y537531D01*
X718594Y538138D01*
X720648Y538989D01*
X722872Y538989D01*
X724926Y538138D01*
X726498Y536566D01*
X727351Y534507D01*
X727365Y534408D01*
X727375Y534293D01*
X727385Y534267D01*
X727389Y534240D01*
X727435Y534135D01*
X727477Y534028D01*
X727493Y534006D01*
X727505Y533980D01*
X727579Y533893D01*
X727648Y533801D01*
X727671Y533784D01*
X727688Y533763D01*
X727784Y533700D01*
X727876Y533631D01*
X727902Y533621D01*
X727925Y533606D01*
X728035Y533571D01*
X728142Y533531D01*
X728170Y533528D01*
X728196Y533520D01*
X728311Y533517D01*
X728425Y533508D01*
X728450Y533513D01*
X728480Y533513D01*
X728737Y533580D01*
X728752Y533583D01*
X729258Y533793D01*
X729358Y533852D01*
X729461Y533905D01*
X729480Y533924D01*
X729503Y533937D01*
X729583Y534022D01*
X729666Y534101D01*
X729680Y534124D01*
X729698Y534144D01*
X729751Y534247D01*
X729810Y534347D01*
X729816Y534373D01*
X729829Y534397D01*
X729851Y534510D01*
X729879Y534623D01*
X729878Y534649D01*
X729884Y534676D01*
X729874Y534789D01*
X729875Y534801D01*
X729873Y534808D01*
X729870Y534907D01*
X729861Y534932D01*
X729859Y534959D01*
X729818Y535067D01*
X729803Y535111D01*
X729799Y535128D01*
X729792Y535145D01*
X729782Y535177D01*
X729775Y535186D01*
X728871Y537368D01*
X728871Y539592D01*
X729722Y541646D01*
X731294Y543218D01*
X733348Y544069D01*
X735476Y544069D01*
X735534Y544077D01*
X735592Y544075D01*
X735674Y544097D01*
X735758Y544109D01*
X735811Y544132D01*
X735867Y544147D01*
X735940Y544190D01*
X736017Y544225D01*
X736062Y544263D01*
X736112Y544292D01*
X736170Y544354D01*
X736234Y544408D01*
X736266Y544457D01*
X736306Y544500D01*
X736345Y544575D01*
X736392Y544645D01*
X736409Y544701D01*
X736436Y544753D01*
X736447Y544821D01*
X736477Y544916D01*
X736480Y545016D01*
X736491Y545084D01*
X736491Y547116D01*
X736483Y547174D01*
X736485Y547232D01*
X736463Y547314D01*
X736451Y547398D01*
X736428Y547451D01*
X736413Y547507D01*
X736370Y547580D01*
X736335Y547657D01*
X736297Y547702D01*
X736268Y547752D01*
X736206Y547810D01*
X736152Y547874D01*
X736103Y547906D01*
X736060Y547946D01*
X735985Y547985D01*
X735915Y548032D01*
X735859Y548049D01*
X735807Y548076D01*
X735739Y548087D01*
X735644Y548117D01*
X735544Y548120D01*
X735476Y548131D01*
X733348Y548131D01*
X731294Y548982D01*
X729722Y550554D01*
X728871Y552608D01*
X728871Y554736D01*
X728863Y554794D01*
X728865Y554852D01*
X728843Y554934D01*
X728831Y555018D01*
X728808Y555071D01*
X728793Y555127D01*
X728750Y555200D01*
X728715Y555277D01*
X728677Y555322D01*
X728648Y555372D01*
X728586Y555430D01*
X728532Y555494D01*
X728483Y555526D01*
X728440Y555566D01*
X728365Y555605D01*
X728295Y555652D01*
X728239Y555669D01*
X728187Y555696D01*
X728119Y555707D01*
X728024Y555737D01*
X727924Y555740D01*
X727856Y555751D01*
X725728Y555751D01*
X723674Y556602D01*
X722102Y558174D01*
X721251Y560228D01*
X721251Y562356D01*
X721243Y562414D01*
X721245Y562472D01*
X721223Y562554D01*
X721211Y562638D01*
X721188Y562691D01*
X721173Y562747D01*
X721130Y562820D01*
X721095Y562897D01*
X721057Y562942D01*
X721028Y562992D01*
X720966Y563050D01*
X720912Y563114D01*
X720863Y563146D01*
X720820Y563186D01*
X720745Y563225D01*
X720675Y563272D01*
X720619Y563289D01*
X720567Y563316D01*
X720499Y563327D01*
X720404Y563357D01*
X720304Y563360D01*
X720236Y563371D01*
X718108Y563371D01*
X716054Y564222D01*
X714482Y565794D01*
X713631Y567848D01*
X713631Y570072D01*
X714482Y572126D01*
X716054Y573698D01*
X718108Y574549D01*
X720332Y574549D01*
X722386Y573698D01*
X723958Y572126D01*
X724809Y570072D01*
X724809Y567944D01*
X724817Y567886D01*
X724815Y567828D01*
X724837Y567746D01*
X724849Y567662D01*
X724872Y567609D01*
X724887Y567553D01*
X724930Y567480D01*
X724965Y567403D01*
X725003Y567358D01*
X725032Y567308D01*
X725094Y567250D01*
X725148Y567186D01*
X725197Y567154D01*
X725240Y567114D01*
X725315Y567075D01*
X725385Y567028D01*
X725441Y567011D01*
X725493Y566984D01*
X725561Y566973D01*
X725656Y566943D01*
X725756Y566940D01*
X725824Y566929D01*
X727952Y566929D01*
X730006Y566078D01*
X731578Y564506D01*
X732429Y562452D01*
X732429Y560324D01*
X732437Y560266D01*
X732435Y560208D01*
X732457Y560126D01*
X732469Y560042D01*
X732492Y559989D01*
X732507Y559933D01*
X732550Y559860D01*
X732585Y559783D01*
X732623Y559738D01*
X732652Y559688D01*
X732714Y559630D01*
X732768Y559566D01*
X732817Y559534D01*
X732860Y559494D01*
X732935Y559455D01*
X733005Y559408D01*
X733061Y559391D01*
X733113Y559364D01*
X733181Y559353D01*
X733276Y559323D01*
X733376Y559320D01*
X733444Y559309D01*
X735572Y559309D01*
X737626Y558458D01*
X739198Y556886D01*
X740049Y554832D01*
X740049Y552704D01*
X740057Y552646D01*
X740055Y552588D01*
X740077Y552506D01*
X740089Y552422D01*
X740112Y552369D01*
X740127Y552313D01*
X740170Y552240D01*
X740205Y552163D01*
X740243Y552118D01*
X740272Y552068D01*
X740334Y552010D01*
X740388Y551946D01*
X740437Y551914D01*
X740480Y551874D01*
X740555Y551835D01*
X740625Y551788D01*
X740681Y551771D01*
X740733Y551744D01*
X740801Y551733D01*
X740896Y551703D01*
X740996Y551700D01*
X741064Y551689D01*
X743192Y551689D01*
X745246Y550838D01*
X746818Y549266D01*
X747669Y547212D01*
X747669Y544988D01*
X746818Y542934D01*
X745246Y541362D01*
X743192Y540511D01*
X741064Y540511D01*
X741006Y540503D01*
X740948Y540505D01*
X740866Y540483D01*
X740782Y540471D01*
X740729Y540448D01*
X740673Y540433D01*
X740600Y540390D01*
X740523Y540355D01*
X740478Y540317D01*
X740428Y540288D01*
X740370Y540226D01*
X740306Y540172D01*
X740274Y540123D01*
X740234Y540080D01*
X740195Y540005D01*
X740148Y539935D01*
X740131Y539879D01*
X740104Y539827D01*
X740093Y539759D01*
X740063Y539664D01*
X740060Y539564D01*
X740049Y539496D01*
X740049Y537368D01*
X739198Y535314D01*
X737626Y533742D01*
X735852Y533007D01*
X735752Y532948D01*
X735649Y532895D01*
X735630Y532876D01*
X735607Y532863D01*
X735527Y532778D01*
X735444Y532699D01*
X735430Y532676D01*
X735412Y532656D01*
X735359Y532553D01*
X735300Y532453D01*
X735294Y532427D01*
X735281Y532403D01*
X735259Y532290D01*
X735231Y532177D01*
X735232Y532151D01*
X735226Y532124D01*
X735236Y532012D01*
X735235Y531999D01*
X735237Y531992D01*
X735240Y531893D01*
X735249Y531868D01*
X735251Y531841D01*
X735292Y531734D01*
X735307Y531689D01*
X735311Y531672D01*
X735318Y531655D01*
X735328Y531623D01*
X735335Y531614D01*
X736239Y529432D01*
X736239Y527208D01*
X735388Y525154D01*
X733816Y523582D01*
X731762Y522731D01*
X729538Y522731D01*
G37*
%LPD*%
%LPC*%
G36*
X499449Y520289D02*
X499449Y520289D01*
X497394Y521140D01*
X495822Y522712D01*
X494972Y524766D01*
X494972Y526989D01*
X495822Y529044D01*
X497394Y530616D01*
X499406Y531449D01*
X499456Y531478D01*
X499511Y531499D01*
X499578Y531550D01*
X499650Y531593D01*
X499691Y531636D01*
X499737Y531671D01*
X499788Y531739D01*
X499846Y531800D01*
X499872Y531852D01*
X499907Y531899D01*
X499937Y531978D01*
X499976Y532053D01*
X499987Y532110D01*
X500008Y532165D01*
X500015Y532249D01*
X500031Y532332D01*
X500026Y532390D01*
X500031Y532448D01*
X500015Y532516D01*
X500006Y532615D01*
X499971Y532708D01*
X499955Y532775D01*
X499485Y533910D01*
X499485Y536133D01*
X500336Y538188D01*
X501908Y539760D01*
X503962Y540610D01*
X504667Y540610D01*
X504781Y540627D01*
X504895Y540636D01*
X504921Y540646D01*
X504948Y540650D01*
X505053Y540697D01*
X505160Y540738D01*
X505183Y540755D01*
X505208Y540767D01*
X505295Y540841D01*
X505387Y540910D01*
X505404Y540932D01*
X505425Y540950D01*
X505488Y541046D01*
X505557Y541138D01*
X505567Y541164D01*
X505582Y541187D01*
X505617Y541296D01*
X505658Y541404D01*
X505660Y541431D01*
X505668Y541458D01*
X505671Y541573D01*
X505680Y541687D01*
X505675Y541711D01*
X505676Y541742D01*
X505608Y541999D01*
X505605Y542014D01*
X505332Y542673D01*
X505332Y544896D01*
X506183Y546951D01*
X507755Y548523D01*
X509809Y549373D01*
X510657Y549373D01*
X510770Y549390D01*
X510885Y549399D01*
X510911Y549409D01*
X510938Y549413D01*
X511043Y549460D01*
X511150Y549501D01*
X511172Y549518D01*
X511198Y549530D01*
X511285Y549604D01*
X511377Y549673D01*
X511393Y549695D01*
X511415Y549713D01*
X511478Y549809D01*
X511547Y549901D01*
X511557Y549927D01*
X511572Y549950D01*
X511607Y550060D01*
X511647Y550167D01*
X511650Y550194D01*
X511658Y550221D01*
X511661Y550336D01*
X511670Y550450D01*
X511664Y550474D01*
X511665Y550505D01*
X511598Y550762D01*
X511595Y550777D01*
X511374Y551309D01*
X511374Y553532D01*
X512225Y555587D01*
X513797Y557159D01*
X515851Y558009D01*
X516237Y558009D01*
X516351Y558026D01*
X516465Y558035D01*
X516491Y558045D01*
X516519Y558049D01*
X516623Y558096D01*
X516731Y558137D01*
X516753Y558154D01*
X516778Y558166D01*
X516866Y558240D01*
X516957Y558309D01*
X516974Y558331D01*
X516995Y558349D01*
X517059Y558445D01*
X517127Y558537D01*
X517137Y558563D01*
X517153Y558586D01*
X517187Y558695D01*
X517228Y558803D01*
X517230Y558830D01*
X517238Y558857D01*
X517241Y558972D01*
X517250Y559086D01*
X517245Y559110D01*
X517246Y559141D01*
X517179Y559398D01*
X517175Y559413D01*
X516951Y559954D01*
X516951Y562177D01*
X517802Y564231D01*
X519374Y565803D01*
X521468Y566671D01*
X521519Y566700D01*
X521573Y566721D01*
X521641Y566772D01*
X521713Y566815D01*
X521753Y566858D01*
X521800Y566893D01*
X521850Y566961D01*
X521908Y567022D01*
X521935Y567074D01*
X521970Y567121D01*
X522000Y567200D01*
X522039Y567275D01*
X522050Y567332D01*
X522070Y567387D01*
X522077Y567471D01*
X522094Y567554D01*
X522089Y567612D01*
X522093Y567670D01*
X522078Y567737D01*
X522069Y567837D01*
X522033Y567930D01*
X522018Y567997D01*
X521501Y569244D01*
X521501Y571467D01*
X522352Y573522D01*
X523924Y575094D01*
X525978Y575944D01*
X526131Y575944D01*
X526245Y575961D01*
X526359Y575970D01*
X526385Y575980D01*
X526413Y575984D01*
X526518Y576031D01*
X526625Y576072D01*
X526647Y576089D01*
X526672Y576101D01*
X526760Y576175D01*
X526851Y576244D01*
X526868Y576266D01*
X526889Y576284D01*
X526953Y576380D01*
X527022Y576472D01*
X527031Y576498D01*
X527047Y576521D01*
X527082Y576630D01*
X527122Y576738D01*
X527124Y576765D01*
X527133Y576792D01*
X527136Y576907D01*
X527145Y577021D01*
X527139Y577046D01*
X527140Y577076D01*
X527073Y577333D01*
X527069Y577348D01*
X526501Y578720D01*
X526501Y580943D01*
X527352Y582997D01*
X528924Y584569D01*
X530978Y585420D01*
X531519Y585420D01*
X531632Y585436D01*
X531747Y585446D01*
X531773Y585456D01*
X531800Y585460D01*
X531905Y585507D01*
X532012Y585548D01*
X532034Y585565D01*
X532060Y585576D01*
X532147Y585650D01*
X532239Y585720D01*
X532255Y585742D01*
X532277Y585760D01*
X532340Y585855D01*
X532409Y585947D01*
X532419Y585973D01*
X532434Y585996D01*
X532469Y586106D01*
X532509Y586213D01*
X532512Y586241D01*
X532520Y586267D01*
X532523Y586382D01*
X532532Y586497D01*
X532526Y586521D01*
X532527Y586552D01*
X532460Y586808D01*
X532457Y586824D01*
X532073Y587751D01*
X532073Y589974D01*
X532924Y592028D01*
X534496Y593600D01*
X536550Y594451D01*
X538773Y594451D01*
X540827Y593600D01*
X542399Y592028D01*
X543250Y589974D01*
X543250Y587751D01*
X542399Y585696D01*
X540827Y584124D01*
X538773Y583274D01*
X538233Y583274D01*
X538119Y583257D01*
X538005Y583248D01*
X537979Y583238D01*
X537951Y583234D01*
X537846Y583187D01*
X537739Y583146D01*
X537717Y583129D01*
X537692Y583117D01*
X537604Y583043D01*
X537513Y582974D01*
X537496Y582952D01*
X537475Y582934D01*
X537411Y582838D01*
X537342Y582746D01*
X537333Y582720D01*
X537317Y582697D01*
X537283Y582588D01*
X537242Y582480D01*
X537240Y582453D01*
X537232Y582426D01*
X537229Y582311D01*
X537219Y582197D01*
X537225Y582172D01*
X537224Y582142D01*
X537291Y581885D01*
X537295Y581870D01*
X537679Y580943D01*
X537679Y578720D01*
X536828Y576665D01*
X535256Y575093D01*
X533202Y574243D01*
X533049Y574243D01*
X532935Y574226D01*
X532821Y574217D01*
X532795Y574207D01*
X532767Y574203D01*
X532662Y574156D01*
X532555Y574115D01*
X532533Y574098D01*
X532508Y574086D01*
X532420Y574012D01*
X532329Y573943D01*
X532312Y573921D01*
X532291Y573903D01*
X532227Y573807D01*
X532158Y573715D01*
X532149Y573689D01*
X532133Y573666D01*
X532098Y573557D01*
X532058Y573449D01*
X532056Y573422D01*
X532047Y573395D01*
X532044Y573280D01*
X532035Y573166D01*
X532041Y573141D01*
X532040Y573111D01*
X532107Y572854D01*
X532111Y572839D01*
X532679Y571467D01*
X532679Y569244D01*
X531828Y567190D01*
X530256Y565618D01*
X528162Y564750D01*
X528111Y564721D01*
X528057Y564700D01*
X527989Y564649D01*
X527917Y564606D01*
X527877Y564563D01*
X527830Y564528D01*
X527779Y564460D01*
X527722Y564399D01*
X527695Y564347D01*
X527660Y564300D01*
X527630Y564221D01*
X527591Y564147D01*
X527580Y564089D01*
X527559Y564034D01*
X527553Y563950D01*
X527536Y563868D01*
X527541Y563809D01*
X527537Y563751D01*
X527552Y563684D01*
X527561Y563584D01*
X527597Y563491D01*
X527612Y563424D01*
X528129Y562177D01*
X528129Y559954D01*
X527278Y557900D01*
X525706Y556328D01*
X523652Y555477D01*
X523266Y555477D01*
X523152Y555461D01*
X523038Y555451D01*
X523012Y555441D01*
X522984Y555437D01*
X522880Y555390D01*
X522772Y555349D01*
X522750Y555332D01*
X522725Y555321D01*
X522637Y555246D01*
X522546Y555177D01*
X522529Y555155D01*
X522508Y555137D01*
X522444Y555041D01*
X522376Y554949D01*
X522366Y554923D01*
X522350Y554900D01*
X522316Y554791D01*
X522275Y554683D01*
X522273Y554656D01*
X522265Y554629D01*
X522262Y554514D01*
X522252Y554400D01*
X522258Y554376D01*
X522257Y554345D01*
X522324Y554088D01*
X522328Y554073D01*
X522552Y553532D01*
X522552Y551309D01*
X521701Y549255D01*
X520129Y547683D01*
X518075Y546832D01*
X517227Y546832D01*
X517113Y546816D01*
X516999Y546806D01*
X516973Y546796D01*
X516946Y546792D01*
X516841Y546745D01*
X516734Y546704D01*
X516711Y546687D01*
X516686Y546676D01*
X516599Y546602D01*
X516507Y546532D01*
X516490Y546510D01*
X516469Y546492D01*
X516405Y546396D01*
X516337Y546305D01*
X516327Y546279D01*
X516312Y546256D01*
X516277Y546146D01*
X516236Y546039D01*
X516234Y546011D01*
X516226Y545985D01*
X516223Y545870D01*
X516214Y545755D01*
X516219Y545731D01*
X516219Y545700D01*
X516286Y545444D01*
X516289Y545428D01*
X516509Y544896D01*
X516509Y542673D01*
X515659Y540619D01*
X514087Y539047D01*
X512032Y538196D01*
X511328Y538196D01*
X511214Y538180D01*
X511099Y538170D01*
X511074Y538160D01*
X511046Y538156D01*
X510941Y538109D01*
X510834Y538068D01*
X510812Y538051D01*
X510787Y538040D01*
X510699Y537966D01*
X510607Y537896D01*
X510591Y537874D01*
X510570Y537856D01*
X510506Y537761D01*
X510437Y537669D01*
X510427Y537643D01*
X510412Y537620D01*
X510377Y537510D01*
X510337Y537403D01*
X510335Y537375D01*
X510326Y537349D01*
X510323Y537234D01*
X510314Y537119D01*
X510320Y537095D01*
X510319Y537064D01*
X510386Y536808D01*
X510390Y536792D01*
X510662Y536133D01*
X510662Y533910D01*
X509812Y531856D01*
X508240Y530284D01*
X506228Y529451D01*
X506178Y529421D01*
X506123Y529400D01*
X506056Y529349D01*
X505984Y529306D01*
X505943Y529264D01*
X505897Y529228D01*
X505846Y529161D01*
X505788Y529100D01*
X505762Y529048D01*
X505727Y529001D01*
X505697Y528922D01*
X505658Y528847D01*
X505647Y528790D01*
X505626Y528735D01*
X505619Y528651D01*
X505603Y528568D01*
X505608Y528510D01*
X505603Y528451D01*
X505619Y528384D01*
X505628Y528285D01*
X505663Y528192D01*
X505679Y528124D01*
X506149Y526989D01*
X506149Y524766D01*
X505298Y522712D01*
X503726Y521140D01*
X501672Y520289D01*
X499449Y520289D01*
G37*
%LPD*%
%LPC*%
G36*
X800658Y438911D02*
X800658Y438911D01*
X798604Y439762D01*
X797032Y441334D01*
X796179Y443393D01*
X796165Y443493D01*
X796155Y443607D01*
X796145Y443633D01*
X796141Y443660D01*
X796094Y443765D01*
X796053Y443872D01*
X796037Y443894D01*
X796025Y443920D01*
X795951Y444008D01*
X795882Y444099D01*
X795859Y444116D01*
X795842Y444137D01*
X795746Y444201D01*
X795654Y444269D01*
X795628Y444279D01*
X795605Y444294D01*
X795495Y444329D01*
X795388Y444370D01*
X795360Y444372D01*
X795334Y444380D01*
X795219Y444383D01*
X795105Y444392D01*
X795080Y444387D01*
X795050Y444387D01*
X794793Y444320D01*
X794777Y444317D01*
X793992Y443991D01*
X791768Y443991D01*
X789714Y444842D01*
X788142Y446414D01*
X787291Y448468D01*
X787291Y450596D01*
X787283Y450654D01*
X787285Y450712D01*
X787263Y450794D01*
X787251Y450878D01*
X787228Y450931D01*
X787213Y450987D01*
X787170Y451060D01*
X787135Y451137D01*
X787097Y451182D01*
X787068Y451232D01*
X787006Y451290D01*
X786952Y451354D01*
X786903Y451386D01*
X786860Y451426D01*
X786785Y451465D01*
X786715Y451512D01*
X786659Y451529D01*
X786607Y451556D01*
X786539Y451567D01*
X786444Y451597D01*
X786344Y451600D01*
X786276Y451611D01*
X784244Y451611D01*
X784186Y451603D01*
X784128Y451605D01*
X784046Y451583D01*
X783962Y451571D01*
X783909Y451548D01*
X783853Y451533D01*
X783780Y451490D01*
X783703Y451455D01*
X783658Y451417D01*
X783608Y451388D01*
X783550Y451326D01*
X783486Y451272D01*
X783454Y451223D01*
X783414Y451180D01*
X783375Y451105D01*
X783328Y451035D01*
X783311Y450979D01*
X783284Y450927D01*
X783273Y450859D01*
X783243Y450764D01*
X783240Y450664D01*
X783229Y450596D01*
X783229Y448468D01*
X782378Y446414D01*
X780806Y444842D01*
X778752Y443991D01*
X776528Y443991D01*
X774474Y444842D01*
X772902Y446414D01*
X772051Y448468D01*
X772051Y450692D01*
X772902Y452746D01*
X774474Y454318D01*
X776528Y455169D01*
X778656Y455169D01*
X778714Y455177D01*
X778772Y455175D01*
X778854Y455197D01*
X778938Y455209D01*
X778991Y455232D01*
X779047Y455247D01*
X779120Y455290D01*
X779197Y455325D01*
X779242Y455363D01*
X779292Y455392D01*
X779350Y455454D01*
X779414Y455508D01*
X779446Y455557D01*
X779486Y455600D01*
X779525Y455675D01*
X779572Y455745D01*
X779589Y455801D01*
X779616Y455853D01*
X779627Y455921D01*
X779657Y456016D01*
X779660Y456116D01*
X779671Y456184D01*
X779671Y458312D01*
X780522Y460366D01*
X782094Y461938D01*
X784148Y462789D01*
X786372Y462789D01*
X788426Y461938D01*
X789998Y460366D01*
X790849Y458312D01*
X790849Y456184D01*
X790857Y456126D01*
X790855Y456068D01*
X790877Y455986D01*
X790889Y455902D01*
X790912Y455849D01*
X790927Y455793D01*
X790970Y455720D01*
X791005Y455643D01*
X791043Y455598D01*
X791072Y455548D01*
X791134Y455490D01*
X791188Y455426D01*
X791237Y455394D01*
X791280Y455354D01*
X791355Y455315D01*
X791425Y455268D01*
X791481Y455251D01*
X791533Y455224D01*
X791601Y455213D01*
X791696Y455183D01*
X791796Y455180D01*
X791864Y455169D01*
X793992Y455169D01*
X796046Y454318D01*
X797618Y452746D01*
X798471Y450687D01*
X798485Y450587D01*
X798495Y450473D01*
X798505Y450447D01*
X798509Y450420D01*
X798556Y450315D01*
X798597Y450208D01*
X798613Y450186D01*
X798625Y450160D01*
X798699Y450072D01*
X798768Y449981D01*
X798791Y449964D01*
X798808Y449943D01*
X798904Y449879D01*
X798996Y449811D01*
X799022Y449801D01*
X799045Y449786D01*
X799155Y449751D01*
X799262Y449710D01*
X799290Y449708D01*
X799316Y449700D01*
X799431Y449697D01*
X799545Y449688D01*
X799570Y449693D01*
X799600Y449693D01*
X799857Y449760D01*
X799873Y449763D01*
X800658Y450089D01*
X802786Y450089D01*
X802844Y450097D01*
X802902Y450095D01*
X802984Y450117D01*
X803068Y450129D01*
X803121Y450152D01*
X803177Y450167D01*
X803250Y450210D01*
X803327Y450245D01*
X803372Y450283D01*
X803422Y450312D01*
X803480Y450374D01*
X803544Y450428D01*
X803576Y450477D01*
X803616Y450520D01*
X803655Y450595D01*
X803702Y450665D01*
X803719Y450721D01*
X803746Y450773D01*
X803757Y450841D01*
X803787Y450936D01*
X803790Y451036D01*
X803801Y451104D01*
X803801Y453232D01*
X804652Y455286D01*
X806224Y456858D01*
X808278Y457709D01*
X810502Y457709D01*
X812556Y456858D01*
X814128Y455286D01*
X814979Y453232D01*
X814979Y451104D01*
X814987Y451046D01*
X814985Y450988D01*
X815007Y450906D01*
X815019Y450822D01*
X815042Y450769D01*
X815057Y450713D01*
X815100Y450640D01*
X815135Y450563D01*
X815173Y450518D01*
X815202Y450468D01*
X815264Y450410D01*
X815318Y450346D01*
X815367Y450314D01*
X815410Y450274D01*
X815485Y450235D01*
X815555Y450188D01*
X815611Y450171D01*
X815663Y450144D01*
X815731Y450133D01*
X815826Y450103D01*
X815926Y450100D01*
X815994Y450089D01*
X818122Y450089D01*
X820176Y449238D01*
X821748Y447666D01*
X822599Y445612D01*
X822599Y443388D01*
X821748Y441334D01*
X820176Y439762D01*
X818122Y438911D01*
X815898Y438911D01*
X813844Y439762D01*
X812272Y441334D01*
X811421Y443388D01*
X811421Y445516D01*
X811413Y445574D01*
X811415Y445632D01*
X811393Y445714D01*
X811381Y445798D01*
X811358Y445851D01*
X811343Y445907D01*
X811300Y445980D01*
X811265Y446057D01*
X811227Y446102D01*
X811198Y446152D01*
X811136Y446210D01*
X811082Y446274D01*
X811033Y446306D01*
X810990Y446346D01*
X810915Y446385D01*
X810845Y446432D01*
X810789Y446449D01*
X810737Y446476D01*
X810669Y446487D01*
X810574Y446517D01*
X810474Y446520D01*
X810406Y446531D01*
X808374Y446531D01*
X808316Y446523D01*
X808258Y446525D01*
X808176Y446503D01*
X808092Y446491D01*
X808039Y446468D01*
X807983Y446453D01*
X807910Y446410D01*
X807833Y446375D01*
X807788Y446337D01*
X807738Y446308D01*
X807680Y446246D01*
X807616Y446192D01*
X807584Y446143D01*
X807544Y446100D01*
X807505Y446025D01*
X807458Y445955D01*
X807441Y445899D01*
X807414Y445847D01*
X807403Y445779D01*
X807373Y445684D01*
X807370Y445584D01*
X807359Y445516D01*
X807359Y443388D01*
X806508Y441334D01*
X804936Y439762D01*
X802882Y438911D01*
X800658Y438911D01*
G37*
%LPD*%
%LPC*%
G36*
X1065688Y534161D02*
X1065688Y534161D01*
X1063634Y535012D01*
X1062062Y536584D01*
X1061211Y538638D01*
X1061211Y540862D01*
X1062062Y542916D01*
X1063385Y544239D01*
X1063421Y544286D01*
X1063463Y544326D01*
X1063506Y544399D01*
X1063556Y544466D01*
X1063577Y544521D01*
X1063607Y544571D01*
X1063628Y544653D01*
X1063658Y544732D01*
X1063662Y544790D01*
X1063677Y544847D01*
X1063674Y544931D01*
X1063681Y545015D01*
X1063670Y545073D01*
X1063668Y545131D01*
X1063642Y545211D01*
X1063625Y545294D01*
X1063598Y545346D01*
X1063580Y545402D01*
X1063540Y545458D01*
X1063494Y545546D01*
X1063426Y545619D01*
X1063385Y545675D01*
X1062316Y546744D01*
X1061465Y548798D01*
X1061465Y551022D01*
X1062316Y553076D01*
X1063385Y554145D01*
X1063421Y554192D01*
X1063463Y554232D01*
X1063506Y554305D01*
X1063556Y554372D01*
X1063577Y554427D01*
X1063607Y554477D01*
X1063628Y554559D01*
X1063658Y554638D01*
X1063662Y554696D01*
X1063677Y554753D01*
X1063674Y554837D01*
X1063681Y554921D01*
X1063670Y554979D01*
X1063668Y555037D01*
X1063642Y555117D01*
X1063625Y555200D01*
X1063598Y555252D01*
X1063580Y555308D01*
X1063540Y555364D01*
X1063494Y555452D01*
X1063426Y555525D01*
X1063385Y555581D01*
X1062062Y556904D01*
X1061211Y558958D01*
X1061211Y561182D01*
X1062062Y563236D01*
X1063258Y564432D01*
X1063294Y564479D01*
X1063336Y564519D01*
X1063379Y564592D01*
X1063429Y564659D01*
X1063450Y564714D01*
X1063480Y564764D01*
X1063501Y564846D01*
X1063531Y564925D01*
X1063535Y564983D01*
X1063550Y565040D01*
X1063547Y565124D01*
X1063554Y565208D01*
X1063543Y565266D01*
X1063541Y565324D01*
X1063515Y565404D01*
X1063498Y565487D01*
X1063471Y565539D01*
X1063453Y565595D01*
X1063413Y565651D01*
X1063367Y565739D01*
X1063299Y565812D01*
X1063258Y565868D01*
X1062062Y567064D01*
X1061211Y569118D01*
X1061211Y571342D01*
X1062062Y573396D01*
X1063258Y574592D01*
X1063294Y574639D01*
X1063336Y574679D01*
X1063379Y574752D01*
X1063429Y574819D01*
X1063450Y574874D01*
X1063480Y574924D01*
X1063501Y575006D01*
X1063531Y575085D01*
X1063535Y575143D01*
X1063550Y575200D01*
X1063547Y575284D01*
X1063554Y575368D01*
X1063543Y575426D01*
X1063541Y575484D01*
X1063515Y575564D01*
X1063498Y575647D01*
X1063471Y575699D01*
X1063453Y575755D01*
X1063413Y575811D01*
X1063367Y575899D01*
X1063299Y575972D01*
X1063258Y576028D01*
X1062062Y577224D01*
X1061211Y579278D01*
X1061211Y581502D01*
X1062062Y583556D01*
X1063258Y584752D01*
X1063294Y584799D01*
X1063336Y584839D01*
X1063379Y584912D01*
X1063429Y584979D01*
X1063450Y585034D01*
X1063480Y585084D01*
X1063501Y585166D01*
X1063531Y585245D01*
X1063535Y585303D01*
X1063550Y585360D01*
X1063547Y585444D01*
X1063554Y585528D01*
X1063543Y585586D01*
X1063541Y585644D01*
X1063515Y585724D01*
X1063498Y585807D01*
X1063471Y585859D01*
X1063453Y585915D01*
X1063413Y585971D01*
X1063367Y586059D01*
X1063299Y586132D01*
X1063258Y586188D01*
X1062062Y587384D01*
X1061211Y589438D01*
X1061211Y591662D01*
X1062062Y593716D01*
X1063634Y595288D01*
X1065688Y596139D01*
X1067912Y596139D01*
X1069966Y595288D01*
X1071538Y593716D01*
X1072389Y591662D01*
X1072389Y589438D01*
X1071538Y587384D01*
X1070342Y586188D01*
X1070306Y586141D01*
X1070264Y586101D01*
X1070221Y586028D01*
X1070171Y585961D01*
X1070150Y585906D01*
X1070120Y585856D01*
X1070100Y585774D01*
X1070069Y585695D01*
X1070065Y585637D01*
X1070050Y585580D01*
X1070053Y585496D01*
X1070046Y585412D01*
X1070057Y585354D01*
X1070059Y585296D01*
X1070085Y585216D01*
X1070102Y585133D01*
X1070129Y585081D01*
X1070147Y585025D01*
X1070187Y584969D01*
X1070233Y584881D01*
X1070302Y584808D01*
X1070342Y584752D01*
X1071538Y583556D01*
X1072389Y581502D01*
X1072389Y579278D01*
X1071538Y577224D01*
X1070342Y576028D01*
X1070306Y575981D01*
X1070264Y575941D01*
X1070221Y575868D01*
X1070171Y575801D01*
X1070150Y575746D01*
X1070120Y575696D01*
X1070100Y575614D01*
X1070069Y575535D01*
X1070065Y575477D01*
X1070050Y575420D01*
X1070053Y575336D01*
X1070046Y575252D01*
X1070057Y575194D01*
X1070059Y575136D01*
X1070085Y575056D01*
X1070102Y574973D01*
X1070129Y574921D01*
X1070147Y574865D01*
X1070187Y574809D01*
X1070233Y574721D01*
X1070302Y574648D01*
X1070342Y574592D01*
X1071538Y573396D01*
X1072389Y571342D01*
X1072389Y569118D01*
X1071538Y567064D01*
X1070342Y565868D01*
X1070306Y565821D01*
X1070264Y565781D01*
X1070221Y565708D01*
X1070171Y565641D01*
X1070150Y565586D01*
X1070120Y565536D01*
X1070100Y565454D01*
X1070069Y565375D01*
X1070065Y565317D01*
X1070050Y565260D01*
X1070053Y565176D01*
X1070046Y565092D01*
X1070057Y565034D01*
X1070059Y564976D01*
X1070085Y564896D01*
X1070102Y564813D01*
X1070129Y564761D01*
X1070147Y564705D01*
X1070187Y564649D01*
X1070233Y564561D01*
X1070302Y564488D01*
X1070342Y564432D01*
X1071538Y563236D01*
X1072389Y561182D01*
X1072389Y558958D01*
X1071538Y556904D01*
X1070469Y555835D01*
X1070433Y555788D01*
X1070391Y555748D01*
X1070348Y555675D01*
X1070298Y555608D01*
X1070277Y555553D01*
X1070247Y555503D01*
X1070227Y555421D01*
X1070196Y555342D01*
X1070192Y555284D01*
X1070177Y555227D01*
X1070180Y555143D01*
X1070173Y555059D01*
X1070184Y555001D01*
X1070186Y554943D01*
X1070212Y554863D01*
X1070229Y554780D01*
X1070256Y554728D01*
X1070274Y554672D01*
X1070314Y554616D01*
X1070360Y554528D01*
X1070429Y554455D01*
X1070437Y554443D01*
X1070443Y554433D01*
X1070447Y554429D01*
X1070469Y554399D01*
X1071792Y553076D01*
X1072643Y551022D01*
X1072643Y548798D01*
X1071792Y546744D01*
X1070469Y545421D01*
X1070433Y545374D01*
X1070391Y545334D01*
X1070348Y545261D01*
X1070298Y545194D01*
X1070277Y545139D01*
X1070247Y545089D01*
X1070227Y545007D01*
X1070196Y544928D01*
X1070192Y544870D01*
X1070177Y544813D01*
X1070180Y544729D01*
X1070173Y544645D01*
X1070184Y544587D01*
X1070186Y544529D01*
X1070212Y544449D01*
X1070229Y544366D01*
X1070256Y544314D01*
X1070274Y544258D01*
X1070314Y544202D01*
X1070360Y544114D01*
X1070429Y544041D01*
X1070469Y543985D01*
X1071538Y542916D01*
X1072389Y540862D01*
X1072389Y538638D01*
X1071538Y536584D01*
X1069966Y535012D01*
X1067912Y534161D01*
X1065688Y534161D01*
G37*
%LPD*%
%LPC*%
G36*
X631602Y387095D02*
X631602Y387095D01*
X629548Y387946D01*
X627976Y389518D01*
X627125Y391572D01*
X627125Y393796D01*
X627976Y395850D01*
X629548Y397422D01*
X631602Y398273D01*
X633826Y398273D01*
X635880Y397422D01*
X637452Y395850D01*
X637491Y395755D01*
X637506Y395730D01*
X637515Y395702D01*
X637578Y395608D01*
X637635Y395510D01*
X637657Y395490D01*
X637673Y395466D01*
X637760Y395393D01*
X637842Y395315D01*
X637868Y395302D01*
X637891Y395283D01*
X637994Y395237D01*
X638095Y395185D01*
X638124Y395179D01*
X638151Y395167D01*
X638263Y395152D01*
X638374Y395130D01*
X638403Y395133D01*
X638432Y395129D01*
X638544Y395145D01*
X638657Y395154D01*
X638684Y395165D01*
X638713Y395169D01*
X638817Y395216D01*
X638922Y395256D01*
X638946Y395274D01*
X638973Y395286D01*
X639059Y395360D01*
X639149Y395428D01*
X639167Y395452D01*
X639189Y395471D01*
X639231Y395537D01*
X639319Y395656D01*
X639341Y395714D01*
X639367Y395755D01*
X639406Y395850D01*
X640978Y397422D01*
X643032Y398273D01*
X645256Y398273D01*
X647310Y397422D01*
X648882Y395850D01*
X649556Y394222D01*
X649571Y394197D01*
X649580Y394169D01*
X649643Y394075D01*
X649701Y393977D01*
X649722Y393957D01*
X649738Y393933D01*
X649825Y393860D01*
X649907Y393782D01*
X649933Y393769D01*
X649956Y393750D01*
X650059Y393704D01*
X650160Y393652D01*
X650189Y393646D01*
X650216Y393634D01*
X650328Y393619D01*
X650439Y393597D01*
X650468Y393600D01*
X650497Y393596D01*
X650609Y393612D01*
X650722Y393621D01*
X650749Y393632D01*
X650778Y393636D01*
X650882Y393683D01*
X650987Y393723D01*
X651011Y393741D01*
X651038Y393753D01*
X651124Y393827D01*
X651214Y393895D01*
X651232Y393919D01*
X651254Y393938D01*
X651296Y394004D01*
X651384Y394123D01*
X651406Y394181D01*
X651432Y394222D01*
X652106Y395850D01*
X653678Y397422D01*
X655732Y398273D01*
X657956Y398273D01*
X660010Y397422D01*
X661582Y395850D01*
X662256Y394222D01*
X662271Y394197D01*
X662280Y394169D01*
X662343Y394075D01*
X662401Y393977D01*
X662422Y393957D01*
X662438Y393933D01*
X662525Y393860D01*
X662607Y393782D01*
X662633Y393769D01*
X662656Y393750D01*
X662759Y393704D01*
X662860Y393652D01*
X662889Y393646D01*
X662916Y393634D01*
X663028Y393619D01*
X663139Y393597D01*
X663168Y393600D01*
X663197Y393596D01*
X663309Y393612D01*
X663422Y393621D01*
X663449Y393632D01*
X663478Y393636D01*
X663582Y393683D01*
X663687Y393723D01*
X663711Y393741D01*
X663738Y393753D01*
X663824Y393827D01*
X663914Y393895D01*
X663932Y393919D01*
X663954Y393938D01*
X663996Y394004D01*
X664084Y394123D01*
X664106Y394181D01*
X664132Y394222D01*
X664806Y395850D01*
X666378Y397422D01*
X668432Y398273D01*
X670656Y398273D01*
X672710Y397422D01*
X674282Y395850D01*
X674321Y395755D01*
X674336Y395730D01*
X674345Y395702D01*
X674408Y395608D01*
X674466Y395510D01*
X674487Y395490D01*
X674503Y395466D01*
X674590Y395393D01*
X674672Y395315D01*
X674698Y395302D01*
X674721Y395283D01*
X674824Y395237D01*
X674925Y395185D01*
X674954Y395179D01*
X674981Y395167D01*
X675093Y395152D01*
X675204Y395130D01*
X675233Y395133D01*
X675262Y395129D01*
X675375Y395145D01*
X675487Y395154D01*
X675514Y395165D01*
X675544Y395169D01*
X675647Y395216D01*
X675752Y395257D01*
X675776Y395274D01*
X675803Y395286D01*
X675889Y395360D01*
X675979Y395428D01*
X675997Y395452D01*
X676019Y395471D01*
X676061Y395537D01*
X676149Y395656D01*
X676171Y395714D01*
X676197Y395755D01*
X676236Y395850D01*
X677808Y397422D01*
X679862Y398273D01*
X682086Y398273D01*
X684140Y397422D01*
X685712Y395850D01*
X686563Y393796D01*
X686563Y391572D01*
X685712Y389518D01*
X684140Y387946D01*
X682086Y387095D01*
X679862Y387095D01*
X677808Y387946D01*
X676236Y389518D01*
X676197Y389613D01*
X676182Y389638D01*
X676173Y389666D01*
X676110Y389760D01*
X676053Y389858D01*
X676031Y389878D01*
X676015Y389902D01*
X675928Y389975D01*
X675846Y390053D01*
X675820Y390066D01*
X675797Y390085D01*
X675694Y390131D01*
X675593Y390183D01*
X675564Y390189D01*
X675537Y390201D01*
X675425Y390216D01*
X675314Y390238D01*
X675285Y390235D01*
X675256Y390239D01*
X675144Y390223D01*
X675031Y390214D01*
X675004Y390203D01*
X674975Y390199D01*
X674871Y390152D01*
X674766Y390112D01*
X674742Y390094D01*
X674715Y390082D01*
X674629Y390008D01*
X674539Y389940D01*
X674521Y389916D01*
X674499Y389897D01*
X674457Y389831D01*
X674369Y389712D01*
X674347Y389654D01*
X674321Y389613D01*
X674282Y389518D01*
X672710Y387946D01*
X670656Y387095D01*
X668432Y387095D01*
X666378Y387946D01*
X664806Y389518D01*
X664132Y391146D01*
X664117Y391171D01*
X664108Y391199D01*
X664045Y391293D01*
X663987Y391391D01*
X663966Y391411D01*
X663950Y391435D01*
X663863Y391508D01*
X663781Y391586D01*
X663755Y391599D01*
X663732Y391618D01*
X663629Y391664D01*
X663528Y391716D01*
X663499Y391722D01*
X663472Y391734D01*
X663360Y391749D01*
X663249Y391771D01*
X663220Y391768D01*
X663191Y391772D01*
X663079Y391756D01*
X662966Y391747D01*
X662939Y391736D01*
X662909Y391732D01*
X662806Y391685D01*
X662701Y391644D01*
X662677Y391627D01*
X662650Y391615D01*
X662564Y391541D01*
X662474Y391473D01*
X662456Y391449D01*
X662434Y391430D01*
X662392Y391364D01*
X662304Y391245D01*
X662282Y391187D01*
X662256Y391146D01*
X661582Y389518D01*
X660010Y387946D01*
X657956Y387095D01*
X655732Y387095D01*
X653678Y387946D01*
X652106Y389518D01*
X651432Y391146D01*
X651417Y391171D01*
X651408Y391199D01*
X651345Y391293D01*
X651287Y391391D01*
X651266Y391411D01*
X651250Y391435D01*
X651163Y391508D01*
X651081Y391586D01*
X651055Y391599D01*
X651032Y391618D01*
X650929Y391664D01*
X650828Y391716D01*
X650799Y391722D01*
X650772Y391734D01*
X650660Y391749D01*
X650549Y391771D01*
X650520Y391768D01*
X650491Y391772D01*
X650379Y391756D01*
X650266Y391747D01*
X650239Y391736D01*
X650209Y391732D01*
X650106Y391685D01*
X650001Y391644D01*
X649977Y391627D01*
X649950Y391615D01*
X649864Y391541D01*
X649774Y391473D01*
X649756Y391449D01*
X649734Y391430D01*
X649692Y391364D01*
X649604Y391245D01*
X649582Y391187D01*
X649556Y391146D01*
X648882Y389518D01*
X647310Y387946D01*
X645256Y387095D01*
X643032Y387095D01*
X640978Y387946D01*
X639406Y389518D01*
X639367Y389613D01*
X639352Y389638D01*
X639343Y389666D01*
X639280Y389760D01*
X639222Y389858D01*
X639201Y389878D01*
X639185Y389902D01*
X639098Y389975D01*
X639016Y390053D01*
X638990Y390066D01*
X638967Y390085D01*
X638864Y390131D01*
X638763Y390183D01*
X638734Y390189D01*
X638707Y390201D01*
X638595Y390216D01*
X638484Y390238D01*
X638455Y390235D01*
X638426Y390239D01*
X638313Y390223D01*
X638201Y390214D01*
X638174Y390203D01*
X638144Y390199D01*
X638041Y390152D01*
X637936Y390111D01*
X637912Y390094D01*
X637885Y390082D01*
X637799Y390008D01*
X637709Y389940D01*
X637691Y389916D01*
X637669Y389897D01*
X637627Y389831D01*
X637539Y389712D01*
X637517Y389654D01*
X637491Y389613D01*
X637452Y389518D01*
X635880Y387946D01*
X633826Y387095D01*
X631602Y387095D01*
G37*
%LPD*%
%LPC*%
G36*
X824788Y459231D02*
X824788Y459231D01*
X822734Y460082D01*
X821162Y461654D01*
X820493Y463269D01*
X820435Y463368D01*
X820382Y463470D01*
X820363Y463490D01*
X820349Y463514D01*
X820265Y463593D01*
X820186Y463676D01*
X820162Y463690D01*
X820142Y463709D01*
X820040Y463762D01*
X819941Y463820D01*
X819914Y463827D01*
X819889Y463840D01*
X819776Y463862D01*
X819665Y463890D01*
X819638Y463889D01*
X819610Y463895D01*
X819496Y463885D01*
X819381Y463881D01*
X819355Y463873D01*
X819327Y463870D01*
X819220Y463829D01*
X819111Y463794D01*
X819090Y463779D01*
X819062Y463768D01*
X818956Y463688D01*
X816852Y462817D01*
X814628Y462817D01*
X812574Y463667D01*
X811002Y465239D01*
X810151Y467294D01*
X810151Y469517D01*
X810792Y471065D01*
X810821Y471176D01*
X810856Y471285D01*
X810856Y471313D01*
X810863Y471340D01*
X810860Y471455D01*
X810863Y471570D01*
X810856Y471596D01*
X810855Y471624D01*
X810820Y471734D01*
X810791Y471845D01*
X810777Y471869D01*
X810769Y471895D01*
X810705Y471990D01*
X810646Y472089D01*
X810626Y472108D01*
X810610Y472131D01*
X810523Y472205D01*
X810439Y472284D01*
X810414Y472296D01*
X810393Y472314D01*
X810288Y472361D01*
X810186Y472413D01*
X810161Y472417D01*
X810133Y472430D01*
X810012Y472446D01*
X807904Y473319D01*
X806332Y474891D01*
X805482Y476946D01*
X805482Y479169D01*
X806332Y481223D01*
X807904Y482795D01*
X810008Y483667D01*
X810070Y483672D01*
X810096Y483682D01*
X810124Y483686D01*
X810229Y483733D01*
X810336Y483774D01*
X810358Y483791D01*
X810383Y483802D01*
X810471Y483876D01*
X810562Y483946D01*
X810579Y483968D01*
X810600Y483986D01*
X810664Y484081D01*
X810733Y484173D01*
X810742Y484199D01*
X810758Y484222D01*
X810793Y484332D01*
X810833Y484439D01*
X810835Y484467D01*
X810844Y484493D01*
X810847Y484608D01*
X810856Y484723D01*
X810850Y484747D01*
X810851Y484778D01*
X810784Y485034D01*
X810780Y485050D01*
X810151Y486568D01*
X810151Y488792D01*
X811002Y490846D01*
X812574Y492418D01*
X814628Y493269D01*
X816852Y493269D01*
X818761Y492478D01*
X818818Y492463D01*
X818871Y492439D01*
X818955Y492428D01*
X819036Y492407D01*
X819095Y492409D01*
X819153Y492401D01*
X819236Y492413D01*
X819321Y492415D01*
X819376Y492433D01*
X819434Y492441D01*
X819511Y492476D01*
X819591Y492502D01*
X819640Y492534D01*
X819693Y492558D01*
X819757Y492613D01*
X819827Y492660D01*
X819865Y492705D01*
X819910Y492743D01*
X819946Y492801D01*
X820010Y492878D01*
X820051Y492969D01*
X820088Y493027D01*
X820762Y494656D01*
X822334Y496228D01*
X824388Y497079D01*
X826612Y497079D01*
X828666Y496228D01*
X830238Y494656D01*
X831089Y492602D01*
X831089Y490378D01*
X830238Y488324D01*
X828666Y486752D01*
X826612Y485901D01*
X824388Y485901D01*
X822479Y486692D01*
X822422Y486707D01*
X822369Y486731D01*
X822285Y486742D01*
X822204Y486763D01*
X822145Y486761D01*
X822087Y486769D01*
X822004Y486757D01*
X821919Y486755D01*
X821864Y486737D01*
X821806Y486729D01*
X821729Y486694D01*
X821649Y486668D01*
X821600Y486636D01*
X821547Y486612D01*
X821483Y486557D01*
X821413Y486510D01*
X821375Y486465D01*
X821330Y486427D01*
X821294Y486369D01*
X821230Y486292D01*
X821189Y486201D01*
X821152Y486143D01*
X820478Y484514D01*
X818906Y482942D01*
X816802Y482071D01*
X816740Y482065D01*
X816714Y482055D01*
X816686Y482051D01*
X816582Y482004D01*
X816474Y481963D01*
X816452Y481947D01*
X816427Y481935D01*
X816339Y481861D01*
X816248Y481792D01*
X816231Y481769D01*
X816210Y481752D01*
X816146Y481656D01*
X816078Y481564D01*
X816068Y481538D01*
X816052Y481515D01*
X816018Y481405D01*
X815977Y481298D01*
X815975Y481270D01*
X815967Y481244D01*
X815964Y481129D01*
X815955Y481015D01*
X815960Y480990D01*
X815959Y480960D01*
X816026Y480703D01*
X816030Y480687D01*
X816659Y479169D01*
X816659Y476946D01*
X816018Y475398D01*
X815989Y475287D01*
X815955Y475177D01*
X815954Y475149D01*
X815947Y475122D01*
X815950Y475008D01*
X815947Y474893D01*
X815954Y474866D01*
X815955Y474838D01*
X815990Y474729D01*
X816019Y474618D01*
X816033Y474594D01*
X816042Y474568D01*
X816106Y474472D01*
X816164Y474373D01*
X816185Y474354D01*
X816200Y474331D01*
X816288Y474258D01*
X816372Y474179D01*
X816396Y474166D01*
X816418Y474148D01*
X816522Y474102D01*
X816625Y474049D01*
X816649Y474045D01*
X816677Y474033D01*
X816798Y474016D01*
X818906Y473143D01*
X820478Y471571D01*
X821147Y469956D01*
X821205Y469857D01*
X821258Y469755D01*
X821277Y469735D01*
X821291Y469711D01*
X821375Y469632D01*
X821454Y469549D01*
X821478Y469535D01*
X821498Y469516D01*
X821600Y469463D01*
X821699Y469405D01*
X821726Y469398D01*
X821751Y469386D01*
X821864Y469363D01*
X821975Y469335D01*
X822002Y469336D01*
X822030Y469331D01*
X822144Y469340D01*
X822259Y469344D01*
X822285Y469353D01*
X822313Y469355D01*
X822420Y469396D01*
X822529Y469432D01*
X822550Y469446D01*
X822578Y469457D01*
X822684Y469537D01*
X824788Y470409D01*
X827012Y470409D01*
X829066Y469558D01*
X830638Y467986D01*
X831489Y465932D01*
X831489Y463708D01*
X830638Y461654D01*
X829066Y460082D01*
X827012Y459231D01*
X824788Y459231D01*
G37*
%LPD*%
%LPC*%
G36*
X1154080Y518921D02*
X1154080Y518921D01*
X1152026Y519772D01*
X1150454Y521344D01*
X1149603Y523398D01*
X1149603Y525622D01*
X1150454Y527676D01*
X1152026Y529248D01*
X1154035Y530080D01*
X1154060Y530095D01*
X1154088Y530104D01*
X1154182Y530167D01*
X1154280Y530224D01*
X1154300Y530246D01*
X1154324Y530262D01*
X1154397Y530349D01*
X1154475Y530431D01*
X1154488Y530457D01*
X1154507Y530480D01*
X1154553Y530583D01*
X1154605Y530684D01*
X1154611Y530713D01*
X1154623Y530739D01*
X1154638Y530852D01*
X1154660Y530963D01*
X1154657Y530992D01*
X1154661Y531021D01*
X1154645Y531133D01*
X1154636Y531246D01*
X1154625Y531273D01*
X1154621Y531302D01*
X1154574Y531406D01*
X1154533Y531511D01*
X1154516Y531535D01*
X1154504Y531561D01*
X1154430Y531648D01*
X1154362Y531738D01*
X1154338Y531756D01*
X1154319Y531778D01*
X1154253Y531819D01*
X1154134Y531908D01*
X1154076Y531930D01*
X1154035Y531956D01*
X1152788Y532472D01*
X1151216Y534044D01*
X1150365Y536098D01*
X1150365Y538322D01*
X1151216Y540376D01*
X1152539Y541699D01*
X1152575Y541746D01*
X1152617Y541786D01*
X1152660Y541859D01*
X1152710Y541926D01*
X1152731Y541981D01*
X1152761Y542031D01*
X1152782Y542113D01*
X1152812Y542192D01*
X1152816Y542250D01*
X1152831Y542307D01*
X1152828Y542391D01*
X1152835Y542475D01*
X1152824Y542533D01*
X1152822Y542591D01*
X1152796Y542671D01*
X1152779Y542754D01*
X1152752Y542806D01*
X1152734Y542862D01*
X1152694Y542918D01*
X1152648Y543006D01*
X1152580Y543079D01*
X1152539Y543135D01*
X1151470Y544204D01*
X1150619Y546258D01*
X1150619Y548482D01*
X1151470Y550536D01*
X1152666Y551732D01*
X1152702Y551779D01*
X1152744Y551819D01*
X1152787Y551892D01*
X1152837Y551959D01*
X1152858Y552014D01*
X1152888Y552064D01*
X1152909Y552146D01*
X1152939Y552225D01*
X1152943Y552283D01*
X1152958Y552340D01*
X1152955Y552424D01*
X1152962Y552508D01*
X1152951Y552566D01*
X1152949Y552624D01*
X1152923Y552704D01*
X1152906Y552787D01*
X1152879Y552839D01*
X1152861Y552895D01*
X1152821Y552951D01*
X1152775Y553039D01*
X1152707Y553112D01*
X1152666Y553168D01*
X1151470Y554364D01*
X1150619Y556418D01*
X1150619Y558642D01*
X1151470Y560696D01*
X1152539Y561765D01*
X1152575Y561812D01*
X1152617Y561852D01*
X1152660Y561925D01*
X1152710Y561992D01*
X1152731Y562047D01*
X1152761Y562097D01*
X1152782Y562179D01*
X1152812Y562258D01*
X1152816Y562316D01*
X1152831Y562373D01*
X1152828Y562457D01*
X1152835Y562541D01*
X1152824Y562599D01*
X1152822Y562657D01*
X1152796Y562737D01*
X1152779Y562820D01*
X1152752Y562872D01*
X1152734Y562928D01*
X1152694Y562984D01*
X1152648Y563072D01*
X1152580Y563145D01*
X1152539Y563201D01*
X1151216Y564524D01*
X1150365Y566578D01*
X1150365Y568802D01*
X1151216Y570856D01*
X1152788Y572428D01*
X1154842Y573279D01*
X1157066Y573279D01*
X1159120Y572428D01*
X1160692Y570856D01*
X1161543Y568802D01*
X1161543Y566578D01*
X1160692Y564524D01*
X1159623Y563455D01*
X1159587Y563408D01*
X1159545Y563368D01*
X1159502Y563295D01*
X1159452Y563228D01*
X1159431Y563173D01*
X1159401Y563123D01*
X1159381Y563041D01*
X1159350Y562962D01*
X1159346Y562904D01*
X1159331Y562847D01*
X1159334Y562763D01*
X1159327Y562679D01*
X1159338Y562621D01*
X1159340Y562563D01*
X1159366Y562483D01*
X1159383Y562400D01*
X1159410Y562348D01*
X1159428Y562292D01*
X1159468Y562236D01*
X1159514Y562148D01*
X1159583Y562075D01*
X1159623Y562019D01*
X1160946Y560696D01*
X1161797Y558642D01*
X1161797Y556418D01*
X1160946Y554364D01*
X1159750Y553168D01*
X1159714Y553121D01*
X1159672Y553081D01*
X1159629Y553008D01*
X1159579Y552941D01*
X1159558Y552886D01*
X1159528Y552836D01*
X1159508Y552754D01*
X1159477Y552675D01*
X1159473Y552617D01*
X1159458Y552560D01*
X1159461Y552476D01*
X1159454Y552392D01*
X1159465Y552334D01*
X1159467Y552276D01*
X1159493Y552196D01*
X1159510Y552113D01*
X1159537Y552061D01*
X1159555Y552005D01*
X1159595Y551949D01*
X1159641Y551861D01*
X1159710Y551788D01*
X1159750Y551732D01*
X1160946Y550536D01*
X1161797Y548482D01*
X1161797Y546258D01*
X1160946Y544204D01*
X1159623Y542881D01*
X1159587Y542834D01*
X1159545Y542794D01*
X1159502Y542721D01*
X1159452Y542654D01*
X1159431Y542599D01*
X1159401Y542549D01*
X1159381Y542467D01*
X1159350Y542388D01*
X1159346Y542330D01*
X1159331Y542273D01*
X1159334Y542189D01*
X1159327Y542105D01*
X1159338Y542047D01*
X1159340Y541989D01*
X1159366Y541909D01*
X1159383Y541826D01*
X1159410Y541774D01*
X1159428Y541718D01*
X1159468Y541662D01*
X1159514Y541574D01*
X1159583Y541501D01*
X1159623Y541445D01*
X1160692Y540376D01*
X1161543Y538322D01*
X1161543Y536098D01*
X1160692Y534044D01*
X1159120Y532472D01*
X1157111Y531640D01*
X1157086Y531625D01*
X1157058Y531616D01*
X1157011Y531585D01*
X1156960Y531562D01*
X1156917Y531525D01*
X1156866Y531496D01*
X1156846Y531474D01*
X1156822Y531458D01*
X1156784Y531413D01*
X1156743Y531378D01*
X1156712Y531332D01*
X1156671Y531289D01*
X1156658Y531263D01*
X1156639Y531240D01*
X1156615Y531186D01*
X1156585Y531141D01*
X1156569Y531090D01*
X1156541Y531036D01*
X1156535Y531007D01*
X1156523Y530981D01*
X1156515Y530920D01*
X1156499Y530870D01*
X1156498Y530818D01*
X1156486Y530757D01*
X1156489Y530728D01*
X1156485Y530699D01*
X1156493Y530638D01*
X1156492Y530586D01*
X1156505Y530536D01*
X1156510Y530474D01*
X1156521Y530447D01*
X1156525Y530418D01*
X1156551Y530361D01*
X1156564Y530311D01*
X1156590Y530267D01*
X1156613Y530209D01*
X1156630Y530185D01*
X1156642Y530159D01*
X1156683Y530111D01*
X1156709Y530067D01*
X1156747Y530031D01*
X1156784Y529982D01*
X1156808Y529964D01*
X1156827Y529942D01*
X1156872Y529914D01*
X1156916Y529872D01*
X1156963Y529848D01*
X1157012Y529812D01*
X1157070Y529790D01*
X1157111Y529764D01*
X1158358Y529248D01*
X1159930Y527676D01*
X1160781Y525622D01*
X1160781Y523398D01*
X1159930Y521344D01*
X1158358Y519772D01*
X1156304Y518921D01*
X1154080Y518921D01*
G37*
%LPD*%
%LPC*%
G36*
X771448Y557021D02*
X771448Y557021D01*
X769394Y557872D01*
X767822Y559444D01*
X766971Y561498D01*
X766971Y562759D01*
X766955Y562873D01*
X766945Y562987D01*
X766935Y563013D01*
X766931Y563040D01*
X766884Y563145D01*
X766843Y563252D01*
X766827Y563274D01*
X766815Y563300D01*
X766741Y563388D01*
X766672Y563479D01*
X766649Y563496D01*
X766632Y563517D01*
X766536Y563581D01*
X766444Y563649D01*
X766418Y563659D01*
X766395Y563674D01*
X766285Y563709D01*
X766178Y563750D01*
X766150Y563752D01*
X766124Y563760D01*
X766009Y563763D01*
X765895Y563772D01*
X765870Y563767D01*
X765840Y563767D01*
X765583Y563700D01*
X765567Y563697D01*
X764782Y563371D01*
X762558Y563371D01*
X760504Y564222D01*
X758932Y565794D01*
X758081Y567848D01*
X758081Y570072D01*
X758932Y572126D01*
X760504Y573698D01*
X762558Y574549D01*
X764782Y574549D01*
X766836Y573698D01*
X768408Y572126D01*
X769259Y570072D01*
X769259Y568811D01*
X769275Y568697D01*
X769285Y568583D01*
X769295Y568557D01*
X769299Y568530D01*
X769346Y568425D01*
X769387Y568318D01*
X769403Y568296D01*
X769415Y568270D01*
X769489Y568183D01*
X769558Y568091D01*
X769581Y568074D01*
X769598Y568053D01*
X769694Y567990D01*
X769786Y567921D01*
X769812Y567911D01*
X769835Y567896D01*
X769945Y567861D01*
X770052Y567821D01*
X770080Y567818D01*
X770106Y567810D01*
X770221Y567807D01*
X770335Y567798D01*
X770360Y567803D01*
X770390Y567803D01*
X770647Y567870D01*
X770663Y567873D01*
X771448Y568199D01*
X773672Y568199D01*
X775726Y567348D01*
X776922Y566152D01*
X776969Y566116D01*
X777009Y566074D01*
X777082Y566031D01*
X777149Y565981D01*
X777204Y565960D01*
X777254Y565930D01*
X777336Y565909D01*
X777415Y565879D01*
X777473Y565875D01*
X777530Y565860D01*
X777614Y565863D01*
X777698Y565856D01*
X777756Y565867D01*
X777814Y565869D01*
X777894Y565895D01*
X777977Y565912D01*
X778029Y565939D01*
X778085Y565957D01*
X778141Y565997D01*
X778229Y566043D01*
X778302Y566111D01*
X778358Y566152D01*
X779554Y567348D01*
X781608Y568199D01*
X783832Y568199D01*
X785886Y567348D01*
X787082Y566152D01*
X787129Y566116D01*
X787169Y566074D01*
X787242Y566031D01*
X787309Y565981D01*
X787364Y565960D01*
X787414Y565930D01*
X787496Y565910D01*
X787575Y565879D01*
X787633Y565875D01*
X787690Y565860D01*
X787774Y565863D01*
X787858Y565856D01*
X787916Y565867D01*
X787974Y565869D01*
X788054Y565895D01*
X788137Y565912D01*
X788189Y565939D01*
X788245Y565957D01*
X788301Y565997D01*
X788389Y566043D01*
X788462Y566112D01*
X788518Y566152D01*
X789714Y567348D01*
X791768Y568199D01*
X793992Y568199D01*
X796046Y567348D01*
X797242Y566152D01*
X797289Y566116D01*
X797329Y566074D01*
X797402Y566031D01*
X797469Y565981D01*
X797524Y565960D01*
X797574Y565930D01*
X797656Y565910D01*
X797735Y565879D01*
X797793Y565875D01*
X797850Y565860D01*
X797934Y565863D01*
X798018Y565856D01*
X798076Y565867D01*
X798134Y565869D01*
X798214Y565895D01*
X798297Y565912D01*
X798349Y565939D01*
X798405Y565957D01*
X798461Y565997D01*
X798549Y566043D01*
X798622Y566112D01*
X798678Y566152D01*
X799874Y567348D01*
X801928Y568199D01*
X804152Y568199D01*
X806206Y567348D01*
X807778Y565776D01*
X808629Y563722D01*
X808629Y561498D01*
X807778Y559444D01*
X806206Y557872D01*
X804152Y557021D01*
X801928Y557021D01*
X799874Y557872D01*
X798678Y559068D01*
X798631Y559104D01*
X798591Y559146D01*
X798518Y559189D01*
X798451Y559239D01*
X798396Y559260D01*
X798346Y559290D01*
X798264Y559311D01*
X798185Y559341D01*
X798127Y559345D01*
X798070Y559360D01*
X797986Y559357D01*
X797902Y559364D01*
X797844Y559353D01*
X797786Y559351D01*
X797706Y559325D01*
X797623Y559308D01*
X797571Y559281D01*
X797515Y559263D01*
X797459Y559223D01*
X797371Y559177D01*
X797298Y559109D01*
X797242Y559068D01*
X796046Y557872D01*
X793992Y557021D01*
X791768Y557021D01*
X789714Y557872D01*
X788518Y559068D01*
X788471Y559104D01*
X788431Y559146D01*
X788358Y559189D01*
X788291Y559239D01*
X788236Y559260D01*
X788186Y559290D01*
X788104Y559311D01*
X788025Y559341D01*
X787967Y559345D01*
X787910Y559360D01*
X787826Y559357D01*
X787742Y559364D01*
X787684Y559353D01*
X787626Y559351D01*
X787546Y559325D01*
X787463Y559308D01*
X787411Y559281D01*
X787355Y559263D01*
X787299Y559223D01*
X787211Y559177D01*
X787138Y559109D01*
X787082Y559068D01*
X785886Y557872D01*
X783832Y557021D01*
X781608Y557021D01*
X779554Y557872D01*
X778358Y559068D01*
X778311Y559104D01*
X778271Y559146D01*
X778198Y559189D01*
X778131Y559239D01*
X778076Y559260D01*
X778026Y559290D01*
X777944Y559310D01*
X777865Y559341D01*
X777807Y559345D01*
X777750Y559360D01*
X777666Y559357D01*
X777582Y559364D01*
X777524Y559353D01*
X777466Y559351D01*
X777386Y559325D01*
X777303Y559308D01*
X777251Y559281D01*
X777195Y559263D01*
X777139Y559223D01*
X777051Y559177D01*
X776978Y559108D01*
X776922Y559068D01*
X775726Y557872D01*
X773672Y557021D01*
X771448Y557021D01*
G37*
%LPD*%
%LPC*%
G36*
X710488Y494791D02*
X710488Y494791D01*
X708434Y495642D01*
X706862Y497214D01*
X706011Y499268D01*
X706011Y501492D01*
X706862Y503546D01*
X708434Y505118D01*
X710488Y505969D01*
X712712Y505969D01*
X714952Y505041D01*
X714984Y505033D01*
X715071Y504994D01*
X715097Y504990D01*
X715122Y504981D01*
X715216Y504973D01*
X715228Y504970D01*
X715242Y504970D01*
X715352Y504955D01*
X715379Y504959D01*
X715406Y504956D01*
X715519Y504979D01*
X715634Y504996D01*
X715658Y505007D01*
X715684Y505012D01*
X715787Y505065D01*
X715893Y505113D01*
X715913Y505130D01*
X715937Y505142D01*
X716021Y505222D01*
X716109Y505297D01*
X716122Y505317D01*
X716144Y505338D01*
X716283Y505575D01*
X716287Y505582D01*
X717022Y507356D01*
X718594Y508928D01*
X720648Y509779D01*
X722872Y509779D01*
X725112Y508851D01*
X725144Y508843D01*
X725231Y508804D01*
X725257Y508800D01*
X725282Y508791D01*
X725376Y508783D01*
X725388Y508780D01*
X725402Y508780D01*
X725512Y508765D01*
X725539Y508769D01*
X725566Y508766D01*
X725679Y508789D01*
X725794Y508806D01*
X725818Y508817D01*
X725844Y508822D01*
X725947Y508875D01*
X726053Y508923D01*
X726073Y508940D01*
X726097Y508952D01*
X726181Y509032D01*
X726269Y509107D01*
X726282Y509127D01*
X726304Y509148D01*
X726443Y509385D01*
X726447Y509392D01*
X727182Y511166D01*
X728754Y512738D01*
X730808Y513589D01*
X733047Y513589D01*
X733138Y513571D01*
X733247Y513542D01*
X733277Y513543D01*
X733306Y513538D01*
X733418Y513547D01*
X733532Y513551D01*
X733560Y513560D01*
X733589Y513562D01*
X733694Y513603D01*
X733802Y513637D01*
X733827Y513654D01*
X733854Y513664D01*
X733944Y513733D01*
X734038Y513796D01*
X734057Y513818D01*
X734081Y513836D01*
X734149Y513927D01*
X734221Y514013D01*
X734233Y514040D01*
X734251Y514063D01*
X734291Y514169D01*
X734337Y514273D01*
X734341Y514302D01*
X734351Y514329D01*
X734360Y514442D01*
X734376Y514555D01*
X734372Y514584D01*
X734374Y514613D01*
X734356Y514689D01*
X734335Y514836D01*
X734309Y514893D01*
X734299Y514940D01*
X733951Y515778D01*
X733951Y518002D01*
X734802Y520056D01*
X736374Y521628D01*
X738428Y522479D01*
X740652Y522479D01*
X742706Y521628D01*
X744278Y520056D01*
X745129Y518002D01*
X745129Y515778D01*
X744278Y513724D01*
X742706Y512152D01*
X740652Y511301D01*
X738413Y511301D01*
X738322Y511319D01*
X738213Y511348D01*
X738183Y511347D01*
X738154Y511352D01*
X738042Y511343D01*
X737928Y511339D01*
X737900Y511330D01*
X737871Y511328D01*
X737766Y511287D01*
X737658Y511253D01*
X737633Y511236D01*
X737606Y511226D01*
X737516Y511157D01*
X737422Y511094D01*
X737403Y511072D01*
X737379Y511054D01*
X737311Y510963D01*
X737239Y510877D01*
X737227Y510850D01*
X737209Y510827D01*
X737169Y510721D01*
X737123Y510617D01*
X737119Y510588D01*
X737109Y510561D01*
X737100Y510448D01*
X737084Y510335D01*
X737088Y510306D01*
X737086Y510277D01*
X737104Y510201D01*
X737125Y510054D01*
X737151Y509997D01*
X737161Y509950D01*
X737509Y509112D01*
X737509Y506888D01*
X736658Y504834D01*
X735086Y503262D01*
X733032Y502411D01*
X730808Y502411D01*
X728568Y503339D01*
X728536Y503347D01*
X728449Y503386D01*
X728423Y503390D01*
X728398Y503399D01*
X728304Y503407D01*
X728292Y503410D01*
X728278Y503410D01*
X728168Y503425D01*
X728141Y503421D01*
X728114Y503424D01*
X728001Y503401D01*
X727886Y503384D01*
X727862Y503373D01*
X727836Y503368D01*
X727733Y503315D01*
X727627Y503267D01*
X727607Y503250D01*
X727583Y503238D01*
X727499Y503158D01*
X727411Y503083D01*
X727398Y503063D01*
X727376Y503042D01*
X727237Y502805D01*
X727233Y502798D01*
X726498Y501024D01*
X724926Y499452D01*
X722872Y498601D01*
X720648Y498601D01*
X718408Y499529D01*
X718376Y499537D01*
X718289Y499576D01*
X718263Y499580D01*
X718238Y499589D01*
X718144Y499597D01*
X718132Y499600D01*
X718118Y499600D01*
X718008Y499615D01*
X717981Y499611D01*
X717954Y499614D01*
X717841Y499591D01*
X717726Y499574D01*
X717702Y499563D01*
X717676Y499558D01*
X717573Y499505D01*
X717467Y499457D01*
X717447Y499440D01*
X717423Y499428D01*
X717339Y499348D01*
X717251Y499273D01*
X717238Y499253D01*
X717216Y499232D01*
X717077Y498995D01*
X717073Y498988D01*
X716338Y497214D01*
X714766Y495642D01*
X712712Y494791D01*
X710488Y494791D01*
G37*
%LPD*%
%LPC*%
G36*
X441248Y465581D02*
X441248Y465581D01*
X439194Y466432D01*
X437622Y468004D01*
X436771Y470058D01*
X436771Y472297D01*
X436789Y472387D01*
X436818Y472497D01*
X436817Y472527D01*
X436822Y472555D01*
X436813Y472668D01*
X436809Y472781D01*
X436800Y472809D01*
X436798Y472839D01*
X436757Y472944D01*
X436723Y473052D01*
X436706Y473077D01*
X436696Y473104D01*
X436627Y473194D01*
X436564Y473288D01*
X436542Y473307D01*
X436524Y473331D01*
X436434Y473398D01*
X436347Y473471D01*
X436320Y473483D01*
X436297Y473501D01*
X436191Y473541D01*
X436087Y473587D01*
X436058Y473591D01*
X436031Y473601D01*
X435918Y473610D01*
X435806Y473626D01*
X435777Y473622D01*
X435747Y473624D01*
X435671Y473606D01*
X435524Y473585D01*
X435467Y473559D01*
X435420Y473549D01*
X434582Y473201D01*
X432358Y473201D01*
X430304Y474052D01*
X428732Y475624D01*
X427881Y477678D01*
X427881Y479806D01*
X427873Y479864D01*
X427875Y479922D01*
X427853Y480004D01*
X427841Y480088D01*
X427818Y480141D01*
X427803Y480197D01*
X427760Y480270D01*
X427725Y480347D01*
X427687Y480392D01*
X427658Y480442D01*
X427596Y480500D01*
X427542Y480564D01*
X427493Y480596D01*
X427450Y480636D01*
X427375Y480675D01*
X427305Y480722D01*
X427249Y480739D01*
X427197Y480766D01*
X427129Y480777D01*
X427034Y480807D01*
X426934Y480810D01*
X426866Y480821D01*
X424738Y480821D01*
X422684Y481672D01*
X421112Y483244D01*
X420261Y485298D01*
X420261Y487522D01*
X420587Y488307D01*
X420615Y488419D01*
X420650Y488528D01*
X420651Y488556D01*
X420658Y488583D01*
X420654Y488697D01*
X420657Y488812D01*
X420650Y488839D01*
X420650Y488867D01*
X420615Y488976D01*
X420586Y489087D01*
X420571Y489111D01*
X420563Y489138D01*
X420499Y489233D01*
X420440Y489332D01*
X420420Y489351D01*
X420405Y489374D01*
X420317Y489448D01*
X420233Y489526D01*
X420208Y489539D01*
X420187Y489557D01*
X420082Y489603D01*
X419980Y489656D01*
X419955Y489660D01*
X419927Y489672D01*
X419664Y489709D01*
X419649Y489711D01*
X418388Y489711D01*
X416334Y490562D01*
X414762Y492134D01*
X413911Y494188D01*
X413911Y496412D01*
X414762Y498466D01*
X416334Y500038D01*
X418388Y500889D01*
X420612Y500889D01*
X422666Y500038D01*
X424238Y498466D01*
X425089Y496412D01*
X425089Y494188D01*
X424763Y493403D01*
X424735Y493291D01*
X424700Y493182D01*
X424699Y493154D01*
X424692Y493127D01*
X424696Y493013D01*
X424693Y492898D01*
X424700Y492871D01*
X424700Y492843D01*
X424735Y492734D01*
X424764Y492623D01*
X424779Y492599D01*
X424787Y492572D01*
X424851Y492477D01*
X424910Y492378D01*
X424930Y492359D01*
X424945Y492336D01*
X425033Y492262D01*
X425117Y492184D01*
X425142Y492171D01*
X425163Y492153D01*
X425268Y492107D01*
X425370Y492054D01*
X425395Y492050D01*
X425423Y492038D01*
X425686Y492001D01*
X425701Y491999D01*
X426962Y491999D01*
X429016Y491148D01*
X430588Y489576D01*
X431439Y487522D01*
X431439Y485394D01*
X431447Y485336D01*
X431445Y485278D01*
X431467Y485196D01*
X431479Y485112D01*
X431502Y485059D01*
X431517Y485003D01*
X431560Y484930D01*
X431595Y484853D01*
X431633Y484808D01*
X431662Y484758D01*
X431724Y484700D01*
X431778Y484636D01*
X431827Y484604D01*
X431870Y484564D01*
X431945Y484525D01*
X432015Y484478D01*
X432071Y484461D01*
X432123Y484434D01*
X432191Y484423D01*
X432286Y484393D01*
X432386Y484390D01*
X432454Y484379D01*
X434582Y484379D01*
X436636Y483528D01*
X438208Y481956D01*
X439059Y479902D01*
X439059Y477663D01*
X439041Y477573D01*
X439012Y477463D01*
X439013Y477433D01*
X439008Y477405D01*
X439017Y477292D01*
X439021Y477179D01*
X439030Y477151D01*
X439032Y477121D01*
X439073Y477016D01*
X439107Y476908D01*
X439124Y476883D01*
X439134Y476856D01*
X439203Y476766D01*
X439266Y476672D01*
X439288Y476653D01*
X439306Y476629D01*
X439396Y476562D01*
X439483Y476489D01*
X439510Y476477D01*
X439533Y476459D01*
X439639Y476419D01*
X439743Y476373D01*
X439772Y476369D01*
X439799Y476359D01*
X439912Y476350D01*
X440024Y476334D01*
X440053Y476338D01*
X440083Y476336D01*
X440159Y476354D01*
X440306Y476375D01*
X440363Y476401D01*
X440410Y476411D01*
X441248Y476759D01*
X443472Y476759D01*
X445526Y475908D01*
X447098Y474336D01*
X447949Y472282D01*
X447949Y470058D01*
X447098Y468004D01*
X445526Y466432D01*
X443472Y465581D01*
X441248Y465581D01*
G37*
%LPD*%
%LPC*%
G36*
X810818Y541781D02*
X810818Y541781D01*
X808764Y542632D01*
X807192Y544204D01*
X806341Y546258D01*
X806341Y548482D01*
X807192Y550536D01*
X808764Y552108D01*
X810818Y552959D01*
X812946Y552959D01*
X813004Y552967D01*
X813062Y552965D01*
X813144Y552987D01*
X813228Y552999D01*
X813281Y553022D01*
X813337Y553037D01*
X813410Y553080D01*
X813487Y553115D01*
X813532Y553153D01*
X813582Y553182D01*
X813640Y553244D01*
X813704Y553298D01*
X813736Y553347D01*
X813776Y553390D01*
X813815Y553465D01*
X813862Y553535D01*
X813879Y553591D01*
X813906Y553643D01*
X813917Y553711D01*
X813947Y553806D01*
X813950Y553906D01*
X813961Y553974D01*
X813961Y556102D01*
X814812Y558156D01*
X816384Y559728D01*
X818438Y560579D01*
X820662Y560579D01*
X822135Y559968D01*
X822164Y559961D01*
X822190Y559948D01*
X822301Y559926D01*
X822410Y559897D01*
X822440Y559898D01*
X822469Y559893D01*
X822581Y559902D01*
X822695Y559906D01*
X822723Y559915D01*
X822752Y559917D01*
X822857Y559958D01*
X822965Y559992D01*
X822990Y560009D01*
X823017Y560019D01*
X823108Y560088D01*
X823201Y560151D01*
X823220Y560173D01*
X823244Y560191D01*
X823312Y560282D01*
X823384Y560368D01*
X823396Y560395D01*
X823414Y560418D01*
X823454Y560524D01*
X823500Y560628D01*
X823504Y560657D01*
X823514Y560684D01*
X823523Y560797D01*
X823539Y560909D01*
X823535Y560939D01*
X823537Y560968D01*
X823519Y561044D01*
X823498Y561191D01*
X823472Y561248D01*
X823462Y561295D01*
X822851Y562768D01*
X822851Y564992D01*
X823702Y567046D01*
X825274Y568618D01*
X827328Y569469D01*
X829456Y569469D01*
X829514Y569477D01*
X829572Y569475D01*
X829654Y569497D01*
X829738Y569509D01*
X829791Y569532D01*
X829847Y569547D01*
X829920Y569590D01*
X829997Y569625D01*
X830042Y569663D01*
X830092Y569692D01*
X830150Y569754D01*
X830214Y569808D01*
X830246Y569857D01*
X830286Y569900D01*
X830325Y569975D01*
X830372Y570045D01*
X830389Y570101D01*
X830416Y570153D01*
X830427Y570221D01*
X830457Y570316D01*
X830460Y570416D01*
X830471Y570484D01*
X830471Y572612D01*
X831322Y574666D01*
X832894Y576238D01*
X834948Y577089D01*
X837172Y577089D01*
X839226Y576238D01*
X840798Y574666D01*
X841649Y572612D01*
X841649Y570388D01*
X840798Y568334D01*
X839226Y566762D01*
X837172Y565911D01*
X835044Y565911D01*
X834986Y565903D01*
X834928Y565905D01*
X834846Y565883D01*
X834762Y565871D01*
X834709Y565848D01*
X834653Y565833D01*
X834580Y565790D01*
X834503Y565755D01*
X834458Y565717D01*
X834408Y565688D01*
X834350Y565626D01*
X834286Y565572D01*
X834254Y565523D01*
X834214Y565480D01*
X834175Y565405D01*
X834128Y565335D01*
X834111Y565279D01*
X834084Y565227D01*
X834073Y565159D01*
X834043Y565064D01*
X834040Y564964D01*
X834029Y564896D01*
X834029Y562768D01*
X833178Y560714D01*
X831606Y559142D01*
X829552Y558291D01*
X827328Y558291D01*
X825855Y558902D01*
X825826Y558909D01*
X825800Y558922D01*
X825689Y558944D01*
X825580Y558973D01*
X825550Y558972D01*
X825521Y558977D01*
X825409Y558968D01*
X825295Y558964D01*
X825267Y558955D01*
X825238Y558953D01*
X825133Y558912D01*
X825025Y558878D01*
X825000Y558861D01*
X824973Y558851D01*
X824882Y558782D01*
X824789Y558719D01*
X824770Y558697D01*
X824746Y558679D01*
X824678Y558588D01*
X824606Y558502D01*
X824594Y558475D01*
X824576Y558452D01*
X824536Y558346D01*
X824490Y558242D01*
X824486Y558213D01*
X824476Y558186D01*
X824467Y558073D01*
X824451Y557961D01*
X824455Y557931D01*
X824453Y557902D01*
X824471Y557826D01*
X824492Y557679D01*
X824518Y557622D01*
X824528Y557575D01*
X825139Y556102D01*
X825139Y553878D01*
X824288Y551824D01*
X822716Y550252D01*
X820662Y549401D01*
X818534Y549401D01*
X818476Y549393D01*
X818418Y549395D01*
X818336Y549373D01*
X818252Y549361D01*
X818199Y549338D01*
X818143Y549323D01*
X818070Y549280D01*
X817993Y549245D01*
X817948Y549207D01*
X817898Y549178D01*
X817840Y549116D01*
X817776Y549062D01*
X817744Y549013D01*
X817704Y548970D01*
X817665Y548895D01*
X817618Y548825D01*
X817601Y548769D01*
X817574Y548717D01*
X817563Y548649D01*
X817533Y548554D01*
X817530Y548454D01*
X817519Y548386D01*
X817519Y546258D01*
X816668Y544204D01*
X815096Y542632D01*
X813042Y541781D01*
X810818Y541781D01*
G37*
%LPD*%
%LPC*%
G36*
X447598Y436371D02*
X447598Y436371D01*
X445544Y437222D01*
X443972Y438794D01*
X443121Y440848D01*
X443121Y443072D01*
X443972Y445126D01*
X445544Y446698D01*
X447598Y447549D01*
X449726Y447549D01*
X449784Y447557D01*
X449842Y447555D01*
X449924Y447577D01*
X450008Y447589D01*
X450061Y447612D01*
X450117Y447627D01*
X450190Y447670D01*
X450267Y447705D01*
X450312Y447743D01*
X450362Y447772D01*
X450420Y447834D01*
X450484Y447888D01*
X450516Y447937D01*
X450556Y447980D01*
X450595Y448055D01*
X450642Y448125D01*
X450659Y448181D01*
X450686Y448233D01*
X450697Y448301D01*
X450727Y448396D01*
X450730Y448496D01*
X450741Y448564D01*
X450741Y450692D01*
X451592Y452746D01*
X453164Y454318D01*
X455218Y455169D01*
X456479Y455169D01*
X456593Y455185D01*
X456707Y455195D01*
X456733Y455205D01*
X456760Y455209D01*
X456865Y455256D01*
X456972Y455297D01*
X456994Y455313D01*
X457020Y455325D01*
X457108Y455399D01*
X457199Y455468D01*
X457216Y455491D01*
X457237Y455508D01*
X457301Y455604D01*
X457369Y455696D01*
X457379Y455722D01*
X457394Y455745D01*
X457429Y455855D01*
X457470Y455962D01*
X457472Y455990D01*
X457480Y456016D01*
X457483Y456131D01*
X457492Y456245D01*
X457487Y456270D01*
X457487Y456300D01*
X457420Y456557D01*
X457417Y456573D01*
X457091Y457358D01*
X457091Y459582D01*
X457942Y461636D01*
X459514Y463208D01*
X461568Y464059D01*
X463696Y464059D01*
X463754Y464067D01*
X463812Y464065D01*
X463894Y464087D01*
X463978Y464099D01*
X464031Y464122D01*
X464087Y464137D01*
X464160Y464180D01*
X464237Y464215D01*
X464282Y464253D01*
X464332Y464282D01*
X464390Y464344D01*
X464454Y464398D01*
X464486Y464447D01*
X464526Y464490D01*
X464565Y464565D01*
X464612Y464635D01*
X464629Y464691D01*
X464656Y464743D01*
X464667Y464811D01*
X464697Y464906D01*
X464700Y465006D01*
X464711Y465074D01*
X464711Y467202D01*
X465562Y469256D01*
X467134Y470828D01*
X469188Y471679D01*
X471412Y471679D01*
X473466Y470828D01*
X475038Y469256D01*
X475889Y467202D01*
X475889Y464978D01*
X475038Y462924D01*
X473466Y461352D01*
X471412Y460501D01*
X469284Y460501D01*
X469226Y460493D01*
X469168Y460495D01*
X469086Y460473D01*
X469002Y460461D01*
X468949Y460438D01*
X468893Y460423D01*
X468820Y460380D01*
X468743Y460345D01*
X468698Y460307D01*
X468648Y460278D01*
X468590Y460216D01*
X468526Y460162D01*
X468494Y460113D01*
X468454Y460070D01*
X468415Y459995D01*
X468368Y459925D01*
X468351Y459869D01*
X468324Y459817D01*
X468313Y459749D01*
X468283Y459654D01*
X468280Y459554D01*
X468269Y459486D01*
X468269Y457358D01*
X467418Y455304D01*
X465846Y453732D01*
X463792Y452881D01*
X462531Y452881D01*
X462417Y452865D01*
X462303Y452855D01*
X462277Y452845D01*
X462250Y452841D01*
X462145Y452794D01*
X462038Y452753D01*
X462016Y452737D01*
X461990Y452725D01*
X461903Y452651D01*
X461811Y452582D01*
X461794Y452559D01*
X461773Y452542D01*
X461710Y452446D01*
X461641Y452354D01*
X461631Y452328D01*
X461616Y452305D01*
X461581Y452195D01*
X461541Y452088D01*
X461538Y452060D01*
X461530Y452034D01*
X461527Y451919D01*
X461518Y451805D01*
X461523Y451780D01*
X461523Y451750D01*
X461590Y451493D01*
X461593Y451477D01*
X461919Y450692D01*
X461919Y448468D01*
X461068Y446414D01*
X459496Y444842D01*
X457442Y443991D01*
X455314Y443991D01*
X455256Y443983D01*
X455198Y443985D01*
X455116Y443963D01*
X455032Y443951D01*
X454979Y443928D01*
X454923Y443913D01*
X454850Y443870D01*
X454773Y443835D01*
X454728Y443797D01*
X454678Y443768D01*
X454620Y443706D01*
X454556Y443652D01*
X454524Y443603D01*
X454484Y443560D01*
X454445Y443485D01*
X454398Y443415D01*
X454381Y443359D01*
X454354Y443307D01*
X454343Y443239D01*
X454313Y443144D01*
X454310Y443044D01*
X454299Y442976D01*
X454299Y440848D01*
X453448Y438794D01*
X451876Y437222D01*
X449822Y436371D01*
X447598Y436371D01*
G37*
%LPD*%
%LPC*%
G36*
X407066Y548639D02*
X407066Y548639D01*
X405012Y549490D01*
X403440Y551062D01*
X402589Y553116D01*
X402589Y555340D01*
X403440Y557394D01*
X404636Y558590D01*
X404672Y558637D01*
X404714Y558677D01*
X404757Y558750D01*
X404807Y558817D01*
X404828Y558872D01*
X404858Y558922D01*
X404879Y559004D01*
X404909Y559083D01*
X404913Y559141D01*
X404928Y559198D01*
X404925Y559282D01*
X404932Y559366D01*
X404921Y559424D01*
X404919Y559482D01*
X404893Y559562D01*
X404876Y559645D01*
X404849Y559697D01*
X404831Y559753D01*
X404791Y559809D01*
X404745Y559897D01*
X404677Y559970D01*
X404636Y560026D01*
X403440Y561222D01*
X402589Y563276D01*
X402589Y565500D01*
X403440Y567554D01*
X404567Y568681D01*
X404603Y568728D01*
X404645Y568768D01*
X404688Y568841D01*
X404738Y568908D01*
X404759Y568963D01*
X404789Y569013D01*
X404809Y569095D01*
X404840Y569174D01*
X404844Y569232D01*
X404859Y569289D01*
X404856Y569373D01*
X404863Y569457D01*
X404852Y569515D01*
X404850Y569573D01*
X404824Y569653D01*
X404807Y569736D01*
X404780Y569788D01*
X404762Y569844D01*
X404722Y569900D01*
X404676Y569988D01*
X404607Y570061D01*
X404567Y570117D01*
X403302Y571382D01*
X402451Y573436D01*
X402451Y575660D01*
X403302Y577714D01*
X404513Y578925D01*
X404549Y578972D01*
X404591Y579012D01*
X404634Y579085D01*
X404684Y579152D01*
X404705Y579207D01*
X404735Y579257D01*
X404756Y579339D01*
X404786Y579418D01*
X404790Y579476D01*
X404805Y579533D01*
X404802Y579617D01*
X404809Y579701D01*
X404798Y579759D01*
X404796Y579817D01*
X404770Y579897D01*
X404753Y579980D01*
X404726Y580032D01*
X404708Y580088D01*
X404668Y580144D01*
X404622Y580232D01*
X404554Y580305D01*
X404513Y580361D01*
X403332Y581542D01*
X402481Y583596D01*
X402481Y585820D01*
X403332Y587874D01*
X404904Y589446D01*
X406958Y590297D01*
X409182Y590297D01*
X411236Y589446D01*
X412808Y587874D01*
X413659Y585820D01*
X413659Y583596D01*
X412808Y581542D01*
X411597Y580331D01*
X411561Y580284D01*
X411519Y580244D01*
X411476Y580171D01*
X411426Y580104D01*
X411405Y580049D01*
X411375Y579999D01*
X411355Y579917D01*
X411324Y579838D01*
X411320Y579780D01*
X411305Y579723D01*
X411308Y579639D01*
X411301Y579555D01*
X411312Y579497D01*
X411314Y579439D01*
X411340Y579359D01*
X411357Y579276D01*
X411384Y579224D01*
X411402Y579168D01*
X411442Y579112D01*
X411488Y579024D01*
X411557Y578951D01*
X411597Y578895D01*
X412778Y577714D01*
X413629Y575660D01*
X413629Y573436D01*
X412778Y571382D01*
X411651Y570255D01*
X411615Y570208D01*
X411573Y570168D01*
X411530Y570095D01*
X411480Y570028D01*
X411459Y569973D01*
X411429Y569923D01*
X411408Y569841D01*
X411378Y569762D01*
X411374Y569704D01*
X411359Y569647D01*
X411362Y569563D01*
X411355Y569479D01*
X411366Y569421D01*
X411368Y569363D01*
X411394Y569283D01*
X411411Y569200D01*
X411438Y569148D01*
X411456Y569092D01*
X411496Y569036D01*
X411542Y568948D01*
X411610Y568875D01*
X411651Y568819D01*
X412916Y567554D01*
X413767Y565500D01*
X413767Y563276D01*
X412916Y561222D01*
X411720Y560026D01*
X411684Y559979D01*
X411642Y559939D01*
X411599Y559866D01*
X411549Y559799D01*
X411528Y559744D01*
X411498Y559694D01*
X411478Y559612D01*
X411447Y559533D01*
X411443Y559475D01*
X411428Y559418D01*
X411431Y559334D01*
X411424Y559250D01*
X411435Y559192D01*
X411437Y559134D01*
X411463Y559054D01*
X411480Y558971D01*
X411507Y558919D01*
X411525Y558863D01*
X411565Y558807D01*
X411611Y558719D01*
X411680Y558646D01*
X411720Y558590D01*
X412916Y557394D01*
X413767Y555340D01*
X413767Y553116D01*
X412916Y551062D01*
X411344Y549490D01*
X409290Y548639D01*
X407066Y548639D01*
G37*
%LPD*%
%LPC*%
G36*
X753668Y534161D02*
X753668Y534161D01*
X751614Y535012D01*
X750042Y536584D01*
X749191Y538638D01*
X749191Y540862D01*
X750042Y542916D01*
X751614Y544488D01*
X753668Y545339D01*
X755892Y545339D01*
X757946Y544488D01*
X758555Y543878D01*
X758647Y543810D01*
X758735Y543735D01*
X758760Y543724D01*
X758783Y543707D01*
X758890Y543667D01*
X758995Y543620D01*
X759022Y543616D01*
X759048Y543606D01*
X759162Y543597D01*
X759276Y543581D01*
X759304Y543585D01*
X759332Y543583D01*
X759444Y543605D01*
X759558Y543622D01*
X759583Y543633D01*
X759610Y543639D01*
X759712Y543691D01*
X759817Y543739D01*
X759838Y543757D01*
X759863Y543770D01*
X759946Y543849D01*
X760033Y543923D01*
X760047Y543944D01*
X760069Y543965D01*
X760192Y544176D01*
X761774Y545758D01*
X763828Y546609D01*
X766052Y546609D01*
X768292Y545681D01*
X768324Y545673D01*
X768411Y545634D01*
X768437Y545630D01*
X768462Y545621D01*
X768556Y545613D01*
X768568Y545610D01*
X768582Y545610D01*
X768692Y545595D01*
X768719Y545599D01*
X768746Y545596D01*
X768859Y545619D01*
X768974Y545636D01*
X768998Y545647D01*
X769024Y545652D01*
X769127Y545705D01*
X769233Y545753D01*
X769253Y545770D01*
X769277Y545782D01*
X769361Y545862D01*
X769449Y545937D01*
X769462Y545957D01*
X769484Y545978D01*
X769623Y546215D01*
X769627Y546222D01*
X770362Y547996D01*
X771934Y549568D01*
X773988Y550419D01*
X776212Y550419D01*
X778266Y549568D01*
X779838Y547996D01*
X780689Y545942D01*
X780689Y543718D01*
X779838Y541664D01*
X778266Y540092D01*
X776212Y539241D01*
X773988Y539241D01*
X771748Y540169D01*
X771716Y540177D01*
X771629Y540216D01*
X771603Y540220D01*
X771578Y540229D01*
X771484Y540237D01*
X771472Y540240D01*
X771458Y540240D01*
X771348Y540255D01*
X771321Y540251D01*
X771294Y540254D01*
X771181Y540231D01*
X771066Y540214D01*
X771042Y540203D01*
X771016Y540198D01*
X770913Y540145D01*
X770807Y540097D01*
X770787Y540080D01*
X770763Y540068D01*
X770679Y539988D01*
X770591Y539913D01*
X770578Y539893D01*
X770556Y539872D01*
X770417Y539635D01*
X770413Y539628D01*
X769678Y537854D01*
X768106Y536282D01*
X766052Y535431D01*
X763828Y535431D01*
X761774Y536282D01*
X761165Y536892D01*
X761073Y536960D01*
X760985Y537035D01*
X760960Y537046D01*
X760937Y537063D01*
X760830Y537103D01*
X760725Y537150D01*
X760698Y537154D01*
X760672Y537164D01*
X760558Y537173D01*
X760444Y537189D01*
X760416Y537185D01*
X760388Y537187D01*
X760276Y537165D01*
X760162Y537148D01*
X760137Y537137D01*
X760110Y537131D01*
X760008Y537079D01*
X759903Y537031D01*
X759882Y537013D01*
X759857Y537000D01*
X759774Y536921D01*
X759687Y536847D01*
X759673Y536826D01*
X759651Y536805D01*
X759528Y536594D01*
X757946Y535012D01*
X755892Y534161D01*
X753668Y534161D01*
G37*
%LPD*%
%LPC*%
G36*
X1074943Y491284D02*
X1074943Y491284D01*
X1072889Y492135D01*
X1071317Y493707D01*
X1070466Y495761D01*
X1070466Y497984D01*
X1071317Y500038D01*
X1072889Y501610D01*
X1074943Y502461D01*
X1076450Y502461D01*
X1076564Y502477D01*
X1076678Y502487D01*
X1076704Y502497D01*
X1076732Y502501D01*
X1076836Y502548D01*
X1076944Y502589D01*
X1076966Y502606D01*
X1076991Y502617D01*
X1077079Y502692D01*
X1077170Y502761D01*
X1077187Y502783D01*
X1077208Y502801D01*
X1077272Y502897D01*
X1077340Y502989D01*
X1077350Y503014D01*
X1077366Y503038D01*
X1077400Y503147D01*
X1077441Y503255D01*
X1077443Y503282D01*
X1077451Y503309D01*
X1077454Y503424D01*
X1077463Y503538D01*
X1077458Y503562D01*
X1077459Y503593D01*
X1077392Y503849D01*
X1077388Y503865D01*
X1077104Y504551D01*
X1077104Y506775D01*
X1077955Y508829D01*
X1079527Y510401D01*
X1081581Y511252D01*
X1083168Y511252D01*
X1083225Y511260D01*
X1083284Y511258D01*
X1083365Y511280D01*
X1083449Y511292D01*
X1083502Y511315D01*
X1083559Y511330D01*
X1083631Y511373D01*
X1083708Y511408D01*
X1083753Y511446D01*
X1083803Y511475D01*
X1083861Y511537D01*
X1083925Y511591D01*
X1083958Y511640D01*
X1083998Y511683D01*
X1084036Y511758D01*
X1084083Y511828D01*
X1084101Y511884D01*
X1084127Y511936D01*
X1084139Y512004D01*
X1084169Y512099D01*
X1084171Y512199D01*
X1084183Y512267D01*
X1084183Y514108D01*
X1085034Y516162D01*
X1086606Y517734D01*
X1088660Y518585D01*
X1090883Y518585D01*
X1092937Y517734D01*
X1094509Y516162D01*
X1095360Y514108D01*
X1095360Y511884D01*
X1094509Y509830D01*
X1092937Y508258D01*
X1090883Y507407D01*
X1089296Y507407D01*
X1089239Y507399D01*
X1089180Y507401D01*
X1089099Y507379D01*
X1089015Y507367D01*
X1088962Y507344D01*
X1088905Y507329D01*
X1088833Y507286D01*
X1088756Y507251D01*
X1088711Y507213D01*
X1088661Y507184D01*
X1088603Y507122D01*
X1088539Y507068D01*
X1088506Y507019D01*
X1088466Y506976D01*
X1088428Y506901D01*
X1088381Y506831D01*
X1088363Y506775D01*
X1088337Y506723D01*
X1088325Y506655D01*
X1088295Y506560D01*
X1088293Y506460D01*
X1088281Y506392D01*
X1088281Y504551D01*
X1087430Y502497D01*
X1085858Y500925D01*
X1083804Y500074D01*
X1082297Y500074D01*
X1082184Y500058D01*
X1082069Y500048D01*
X1082043Y500038D01*
X1082016Y500034D01*
X1081911Y499987D01*
X1081804Y499946D01*
X1081782Y499930D01*
X1081756Y499918D01*
X1081669Y499844D01*
X1081577Y499775D01*
X1081561Y499752D01*
X1081539Y499735D01*
X1081476Y499639D01*
X1081407Y499547D01*
X1081397Y499521D01*
X1081382Y499498D01*
X1081347Y499388D01*
X1081307Y499281D01*
X1081304Y499253D01*
X1081296Y499227D01*
X1081293Y499112D01*
X1081284Y498998D01*
X1081290Y498973D01*
X1081289Y498943D01*
X1081356Y498686D01*
X1081359Y498670D01*
X1081644Y497984D01*
X1081644Y495761D01*
X1080793Y493707D01*
X1079221Y492135D01*
X1077167Y491284D01*
X1074943Y491284D01*
G37*
%LPD*%
%LPC*%
G36*
X532288Y353821D02*
X532288Y353821D01*
X530234Y354672D01*
X528662Y356244D01*
X527811Y358298D01*
X527811Y360522D01*
X528662Y362576D01*
X529858Y363772D01*
X529894Y363819D01*
X529936Y363859D01*
X529979Y363932D01*
X530029Y363999D01*
X530050Y364054D01*
X530080Y364104D01*
X530101Y364186D01*
X530131Y364265D01*
X530135Y364323D01*
X530150Y364380D01*
X530147Y364464D01*
X530154Y364548D01*
X530143Y364606D01*
X530141Y364664D01*
X530115Y364744D01*
X530098Y364827D01*
X530071Y364879D01*
X530053Y364935D01*
X530013Y364991D01*
X529967Y365079D01*
X529899Y365152D01*
X529858Y365208D01*
X528662Y366404D01*
X527811Y368458D01*
X527811Y370682D01*
X528662Y372736D01*
X529858Y373932D01*
X529894Y373979D01*
X529936Y374019D01*
X529979Y374092D01*
X530029Y374159D01*
X530050Y374214D01*
X530080Y374264D01*
X530101Y374346D01*
X530131Y374425D01*
X530135Y374483D01*
X530150Y374540D01*
X530147Y374624D01*
X530154Y374708D01*
X530143Y374766D01*
X530141Y374824D01*
X530115Y374904D01*
X530098Y374987D01*
X530071Y375039D01*
X530053Y375095D01*
X530013Y375151D01*
X529967Y375239D01*
X529899Y375312D01*
X529858Y375368D01*
X528662Y376564D01*
X527811Y378618D01*
X527811Y380842D01*
X528662Y382896D01*
X530234Y384468D01*
X532288Y385319D01*
X534512Y385319D01*
X536566Y384468D01*
X538138Y382896D01*
X538989Y380842D01*
X538989Y378618D01*
X538138Y376564D01*
X536942Y375368D01*
X536906Y375321D01*
X536864Y375281D01*
X536821Y375208D01*
X536771Y375141D01*
X536750Y375086D01*
X536720Y375036D01*
X536700Y374954D01*
X536669Y374875D01*
X536665Y374817D01*
X536650Y374760D01*
X536653Y374676D01*
X536646Y374592D01*
X536657Y374534D01*
X536659Y374476D01*
X536685Y374396D01*
X536702Y374313D01*
X536729Y374261D01*
X536747Y374205D01*
X536787Y374149D01*
X536833Y374061D01*
X536902Y373988D01*
X536942Y373932D01*
X538138Y372736D01*
X538989Y370682D01*
X538989Y368458D01*
X538138Y366404D01*
X536942Y365208D01*
X536906Y365161D01*
X536864Y365121D01*
X536821Y365048D01*
X536771Y364981D01*
X536750Y364926D01*
X536720Y364876D01*
X536700Y364794D01*
X536669Y364715D01*
X536665Y364657D01*
X536650Y364600D01*
X536653Y364516D01*
X536646Y364432D01*
X536657Y364374D01*
X536659Y364316D01*
X536685Y364236D01*
X536702Y364153D01*
X536729Y364101D01*
X536747Y364045D01*
X536787Y363989D01*
X536833Y363901D01*
X536902Y363828D01*
X536942Y363772D01*
X538138Y362576D01*
X538989Y360522D01*
X538989Y358298D01*
X538138Y356244D01*
X536566Y354672D01*
X534512Y353821D01*
X532288Y353821D01*
G37*
%LPD*%
%LPC*%
G36*
X773988Y657351D02*
X773988Y657351D01*
X771934Y658202D01*
X770362Y659774D01*
X769511Y661828D01*
X769511Y664052D01*
X770362Y666106D01*
X771934Y667678D01*
X773988Y668529D01*
X776212Y668529D01*
X777050Y668181D01*
X777079Y668174D01*
X777105Y668161D01*
X777216Y668139D01*
X777325Y668111D01*
X777355Y668111D01*
X777384Y668106D01*
X777496Y668115D01*
X777610Y668119D01*
X777637Y668128D01*
X777667Y668130D01*
X777773Y668171D01*
X777880Y668205D01*
X777905Y668222D01*
X777932Y668232D01*
X778022Y668301D01*
X778116Y668364D01*
X778135Y668386D01*
X778159Y668404D01*
X778227Y668495D01*
X778299Y668581D01*
X778311Y668608D01*
X778329Y668632D01*
X778369Y668738D01*
X778415Y668841D01*
X778419Y668870D01*
X778429Y668898D01*
X778438Y669010D01*
X778454Y669123D01*
X778450Y669152D01*
X778452Y669181D01*
X778434Y669257D01*
X778413Y669404D01*
X778401Y669430D01*
X778401Y671672D01*
X779252Y673726D01*
X780824Y675298D01*
X782878Y676149D01*
X785102Y676149D01*
X787156Y675298D01*
X788728Y673726D01*
X789579Y671672D01*
X789579Y669448D01*
X788728Y667394D01*
X787156Y665822D01*
X785102Y664971D01*
X782878Y664971D01*
X782040Y665319D01*
X782011Y665326D01*
X781985Y665339D01*
X781874Y665361D01*
X781765Y665389D01*
X781735Y665389D01*
X781706Y665394D01*
X781594Y665385D01*
X781480Y665381D01*
X781453Y665372D01*
X781423Y665370D01*
X781317Y665329D01*
X781210Y665295D01*
X781185Y665278D01*
X781158Y665268D01*
X781068Y665199D01*
X780974Y665136D01*
X780955Y665114D01*
X780931Y665096D01*
X780863Y665005D01*
X780791Y664919D01*
X780779Y664892D01*
X780761Y664868D01*
X780721Y664762D01*
X780675Y664659D01*
X780671Y664630D01*
X780661Y664602D01*
X780652Y664490D01*
X780636Y664377D01*
X780640Y664348D01*
X780638Y664319D01*
X780656Y664243D01*
X780677Y664096D01*
X780689Y664070D01*
X780689Y661828D01*
X779838Y659774D01*
X778266Y658202D01*
X776212Y657351D01*
X773988Y657351D01*
G37*
%LPD*%
%LPC*%
G36*
X804468Y643381D02*
X804468Y643381D01*
X802414Y644232D01*
X800842Y645804D01*
X799991Y647858D01*
X799991Y650082D01*
X800842Y652136D01*
X801978Y653271D01*
X802047Y653363D01*
X802121Y653451D01*
X802132Y653476D01*
X802149Y653499D01*
X802190Y653606D01*
X802236Y653711D01*
X802240Y653738D01*
X802250Y653764D01*
X802259Y653879D01*
X802275Y653992D01*
X802271Y654020D01*
X802273Y654048D01*
X802251Y654160D01*
X802234Y654274D01*
X802223Y654299D01*
X802218Y654326D01*
X802165Y654428D01*
X802117Y654533D01*
X802099Y654554D01*
X802087Y654579D01*
X802007Y654662D01*
X801933Y654749D01*
X801912Y654762D01*
X801891Y654785D01*
X801661Y654919D01*
X801648Y654927D01*
X799874Y655662D01*
X798302Y657234D01*
X797451Y659288D01*
X797451Y661512D01*
X798302Y663566D01*
X799874Y665138D01*
X801928Y665989D01*
X804152Y665989D01*
X806206Y665138D01*
X807778Y663566D01*
X808629Y661512D01*
X808629Y659288D01*
X807778Y657234D01*
X806642Y656099D01*
X806573Y656007D01*
X806499Y655919D01*
X806488Y655894D01*
X806471Y655871D01*
X806430Y655764D01*
X806384Y655659D01*
X806380Y655632D01*
X806370Y655606D01*
X806361Y655491D01*
X806345Y655378D01*
X806349Y655350D01*
X806347Y655322D01*
X806369Y655210D01*
X806386Y655096D01*
X806397Y655071D01*
X806402Y655044D01*
X806455Y654942D01*
X806503Y654837D01*
X806521Y654816D01*
X806533Y654791D01*
X806613Y654708D01*
X806687Y654621D01*
X806708Y654608D01*
X806729Y654585D01*
X806959Y654451D01*
X806972Y654443D01*
X808746Y653708D01*
X810318Y652136D01*
X811169Y650082D01*
X811169Y647858D01*
X810318Y645804D01*
X808746Y644232D01*
X806692Y643381D01*
X804468Y643381D01*
G37*
%LPD*%
%LPC*%
G36*
X1095406Y520615D02*
X1095406Y520615D01*
X1093352Y521466D01*
X1091780Y523038D01*
X1090929Y525092D01*
X1090929Y527316D01*
X1091780Y529370D01*
X1093352Y530942D01*
X1095406Y531793D01*
X1097630Y531793D01*
X1099684Y530942D01*
X1101134Y529492D01*
X1101181Y529456D01*
X1101221Y529414D01*
X1101294Y529371D01*
X1101361Y529321D01*
X1101416Y529300D01*
X1101466Y529270D01*
X1101548Y529250D01*
X1101627Y529219D01*
X1101685Y529215D01*
X1101742Y529200D01*
X1101826Y529203D01*
X1101910Y529196D01*
X1101968Y529207D01*
X1102026Y529209D01*
X1102106Y529235D01*
X1102189Y529252D01*
X1102241Y529279D01*
X1102297Y529297D01*
X1102353Y529337D01*
X1102441Y529383D01*
X1102514Y529452D01*
X1102570Y529492D01*
X1104020Y530942D01*
X1106074Y531793D01*
X1108298Y531793D01*
X1110352Y530942D01*
X1111924Y529370D01*
X1112775Y527316D01*
X1112775Y525092D01*
X1111924Y523038D01*
X1110352Y521466D01*
X1108298Y520615D01*
X1106074Y520615D01*
X1104020Y521466D01*
X1102570Y522916D01*
X1102523Y522952D01*
X1102483Y522994D01*
X1102410Y523037D01*
X1102343Y523087D01*
X1102288Y523108D01*
X1102238Y523138D01*
X1102156Y523159D01*
X1102077Y523189D01*
X1102019Y523193D01*
X1101962Y523208D01*
X1101878Y523205D01*
X1101794Y523212D01*
X1101736Y523201D01*
X1101678Y523199D01*
X1101598Y523173D01*
X1101515Y523156D01*
X1101463Y523129D01*
X1101407Y523111D01*
X1101351Y523071D01*
X1101263Y523025D01*
X1101190Y522957D01*
X1101134Y522916D01*
X1099684Y521466D01*
X1097630Y520615D01*
X1095406Y520615D01*
G37*
%LPD*%
%LPC*%
G36*
X723188Y473201D02*
X723188Y473201D01*
X721134Y474052D01*
X719620Y475566D01*
X719574Y475601D01*
X719533Y475644D01*
X719460Y475686D01*
X719393Y475737D01*
X719339Y475758D01*
X719288Y475787D01*
X719206Y475808D01*
X719128Y475838D01*
X719069Y475843D01*
X719013Y475857D01*
X718928Y475855D01*
X718844Y475862D01*
X718787Y475850D01*
X718728Y475848D01*
X718648Y475822D01*
X718565Y475806D01*
X718514Y475779D01*
X718458Y475761D01*
X718402Y475721D01*
X718313Y475675D01*
X718241Y475606D01*
X718185Y475566D01*
X717306Y474687D01*
X715252Y473836D01*
X713028Y473836D01*
X710974Y474687D01*
X709402Y476259D01*
X708551Y478313D01*
X708551Y480537D01*
X709402Y482591D01*
X710974Y484163D01*
X713028Y485014D01*
X715252Y485014D01*
X717306Y484163D01*
X718820Y482649D01*
X718866Y482614D01*
X718907Y482571D01*
X718979Y482529D01*
X719047Y482478D01*
X719101Y482457D01*
X719152Y482428D01*
X719233Y482407D01*
X719312Y482377D01*
X719371Y482372D01*
X719427Y482358D01*
X719512Y482360D01*
X719596Y482353D01*
X719653Y482365D01*
X719712Y482367D01*
X719792Y482393D01*
X719874Y482409D01*
X719926Y482436D01*
X719982Y482454D01*
X720038Y482494D01*
X720127Y482540D01*
X720199Y482609D01*
X720255Y482649D01*
X721134Y483528D01*
X723188Y484379D01*
X725412Y484379D01*
X727466Y483528D01*
X729038Y481956D01*
X729889Y479902D01*
X729889Y477678D01*
X729038Y475624D01*
X727466Y474052D01*
X725412Y473201D01*
X723188Y473201D01*
G37*
%LPD*%
%LPC*%
G36*
X923448Y435863D02*
X923448Y435863D01*
X921394Y436714D01*
X919822Y438286D01*
X918971Y440340D01*
X918971Y442564D01*
X919822Y444618D01*
X921018Y445814D01*
X921054Y445861D01*
X921096Y445901D01*
X921139Y445974D01*
X921189Y446041D01*
X921210Y446096D01*
X921240Y446146D01*
X921261Y446228D01*
X921291Y446307D01*
X921295Y446365D01*
X921310Y446422D01*
X921307Y446506D01*
X921314Y446590D01*
X921303Y446648D01*
X921301Y446706D01*
X921275Y446786D01*
X921258Y446869D01*
X921231Y446921D01*
X921213Y446977D01*
X921173Y447033D01*
X921127Y447121D01*
X921059Y447194D01*
X921018Y447250D01*
X919822Y448446D01*
X918971Y450500D01*
X918971Y452724D01*
X919822Y454778D01*
X921394Y456350D01*
X923448Y457201D01*
X925672Y457201D01*
X927726Y456350D01*
X929298Y454778D01*
X930149Y452724D01*
X930149Y450500D01*
X929298Y448446D01*
X928102Y447250D01*
X928066Y447203D01*
X928024Y447163D01*
X927981Y447090D01*
X927931Y447023D01*
X927910Y446968D01*
X927880Y446918D01*
X927860Y446836D01*
X927829Y446757D01*
X927825Y446699D01*
X927810Y446642D01*
X927813Y446558D01*
X927806Y446474D01*
X927817Y446416D01*
X927819Y446358D01*
X927845Y446278D01*
X927862Y446195D01*
X927889Y446143D01*
X927907Y446087D01*
X927947Y446031D01*
X927993Y445943D01*
X928062Y445870D01*
X928102Y445814D01*
X929298Y444618D01*
X930149Y442564D01*
X930149Y440340D01*
X929298Y438286D01*
X927726Y436714D01*
X925672Y435863D01*
X923448Y435863D01*
G37*
%LPD*%
%LPC*%
G36*
X699058Y643381D02*
X699058Y643381D01*
X697004Y644232D01*
X695432Y645804D01*
X694581Y647858D01*
X694581Y650082D01*
X695432Y652136D01*
X697004Y653708D01*
X699058Y654559D01*
X701282Y654559D01*
X703336Y653708D01*
X704908Y652136D01*
X705759Y650082D01*
X705759Y647858D01*
X704908Y645804D01*
X703336Y644232D01*
X701282Y643381D01*
X699058Y643381D01*
G37*
%LPD*%
%LPC*%
G36*
X700328Y595121D02*
X700328Y595121D01*
X698274Y595972D01*
X696702Y597544D01*
X695851Y599598D01*
X695851Y601822D01*
X696702Y603876D01*
X698274Y605448D01*
X700328Y606299D01*
X702552Y606299D01*
X704606Y605448D01*
X706178Y603876D01*
X707029Y601822D01*
X707029Y599598D01*
X706178Y597544D01*
X704606Y595972D01*
X702552Y595121D01*
X700328Y595121D01*
G37*
%LPD*%
%LPC*%
G36*
X916228Y590041D02*
X916228Y590041D01*
X914174Y590892D01*
X912602Y592464D01*
X911751Y594518D01*
X911751Y596742D01*
X912602Y598796D01*
X914174Y600368D01*
X916228Y601219D01*
X918452Y601219D01*
X920506Y600368D01*
X922078Y598796D01*
X922929Y596742D01*
X922929Y594518D01*
X922078Y592464D01*
X920506Y590892D01*
X918452Y590041D01*
X916228Y590041D01*
G37*
%LPD*%
%LPC*%
G36*
X633018Y586231D02*
X633018Y586231D01*
X630964Y587082D01*
X629392Y588654D01*
X628541Y590708D01*
X628541Y592932D01*
X629392Y594986D01*
X630964Y596558D01*
X633018Y597409D01*
X635242Y597409D01*
X637296Y596558D01*
X638868Y594986D01*
X639719Y592932D01*
X639719Y590708D01*
X638868Y588654D01*
X637296Y587082D01*
X635242Y586231D01*
X633018Y586231D01*
G37*
%LPD*%
%LPC*%
G36*
X705154Y580299D02*
X705154Y580299D01*
X703100Y581150D01*
X701528Y582722D01*
X700677Y584776D01*
X700677Y587000D01*
X701528Y589054D01*
X703100Y590626D01*
X705154Y591477D01*
X707378Y591477D01*
X709432Y590626D01*
X711004Y589054D01*
X711855Y587000D01*
X711855Y584776D01*
X711004Y582722D01*
X709432Y581150D01*
X707378Y580299D01*
X705154Y580299D01*
G37*
%LPD*%
%LPC*%
G36*
X633018Y570991D02*
X633018Y570991D01*
X630964Y571842D01*
X629392Y573414D01*
X628541Y575468D01*
X628541Y577692D01*
X629392Y579746D01*
X630964Y581318D01*
X633018Y582169D01*
X635242Y582169D01*
X637296Y581318D01*
X638868Y579746D01*
X639719Y577692D01*
X639719Y575468D01*
X638868Y573414D01*
X637296Y571842D01*
X635242Y570991D01*
X633018Y570991D01*
G37*
%LPD*%
%LPC*%
G36*
X916228Y567181D02*
X916228Y567181D01*
X914174Y568032D01*
X912602Y569604D01*
X911751Y571658D01*
X911751Y573882D01*
X912602Y575936D01*
X914174Y577508D01*
X916228Y578359D01*
X918452Y578359D01*
X920506Y577508D01*
X922078Y575936D01*
X922929Y573882D01*
X922929Y571658D01*
X922078Y569604D01*
X920506Y568032D01*
X918452Y567181D01*
X916228Y567181D01*
G37*
%LPD*%
%LPC*%
G36*
X916228Y546861D02*
X916228Y546861D01*
X914174Y547712D01*
X912602Y549284D01*
X911751Y551338D01*
X911751Y553562D01*
X912602Y555616D01*
X914174Y557188D01*
X916228Y558039D01*
X918452Y558039D01*
X920506Y557188D01*
X922078Y555616D01*
X922929Y553562D01*
X922929Y551338D01*
X922078Y549284D01*
X920506Y547712D01*
X918452Y546861D01*
X916228Y546861D01*
G37*
%LPD*%
%LPC*%
G36*
X633018Y543051D02*
X633018Y543051D01*
X630964Y543902D01*
X629392Y545474D01*
X628541Y547528D01*
X628541Y549752D01*
X629392Y551806D01*
X630964Y553378D01*
X633018Y554229D01*
X635242Y554229D01*
X637296Y553378D01*
X638868Y551806D01*
X639719Y549752D01*
X639719Y547528D01*
X638868Y545474D01*
X637296Y543902D01*
X635242Y543051D01*
X633018Y543051D01*
G37*
%LPD*%
%LPC*%
G36*
X794308Y536701D02*
X794308Y536701D01*
X792254Y537552D01*
X790682Y539124D01*
X789831Y541178D01*
X789831Y543402D01*
X790682Y545456D01*
X792254Y547028D01*
X794308Y547879D01*
X796532Y547879D01*
X798586Y547028D01*
X800158Y545456D01*
X801009Y543402D01*
X801009Y541178D01*
X800158Y539124D01*
X798586Y537552D01*
X796532Y536701D01*
X794308Y536701D01*
G37*
%LPD*%
%LPC*%
G36*
X812088Y565911D02*
X812088Y565911D01*
X810034Y566762D01*
X808462Y568334D01*
X807611Y570388D01*
X807611Y572612D01*
X808462Y574666D01*
X810034Y576238D01*
X812088Y577089D01*
X814312Y577089D01*
X816366Y576238D01*
X817938Y574666D01*
X818789Y572612D01*
X818789Y570388D01*
X817938Y568334D01*
X816366Y566762D01*
X814312Y565911D01*
X812088Y565911D01*
G37*
%LPD*%
%LPC*%
G36*
X672496Y785621D02*
X672496Y785621D01*
X670442Y786472D01*
X668870Y788044D01*
X668019Y790098D01*
X668019Y792322D01*
X668870Y794376D01*
X670442Y795948D01*
X672496Y796799D01*
X674720Y796799D01*
X676774Y795948D01*
X678346Y794376D01*
X679197Y792322D01*
X679197Y790098D01*
X678346Y788044D01*
X676774Y786472D01*
X674720Y785621D01*
X672496Y785621D01*
G37*
%LPD*%
%LPC*%
G36*
X845724Y702309D02*
X845724Y702309D01*
X843670Y703160D01*
X842098Y704732D01*
X841247Y706786D01*
X841247Y709010D01*
X842098Y711064D01*
X843670Y712636D01*
X845724Y713487D01*
X847948Y713487D01*
X850002Y712636D01*
X851574Y711064D01*
X852425Y709010D01*
X852425Y706786D01*
X851574Y704732D01*
X850002Y703160D01*
X847948Y702309D01*
X845724Y702309D01*
G37*
%LPD*%
%LPC*%
G36*
X865696Y509269D02*
X865696Y509269D01*
X863642Y510120D01*
X862070Y511692D01*
X861219Y513746D01*
X861219Y515970D01*
X862070Y518024D01*
X863642Y519596D01*
X865696Y520447D01*
X867920Y520447D01*
X869974Y519596D01*
X871546Y518024D01*
X872397Y515970D01*
X872397Y513746D01*
X871546Y511692D01*
X869974Y510120D01*
X867920Y509269D01*
X865696Y509269D01*
G37*
%LPD*%
%LPC*%
G36*
X868457Y684910D02*
X868457Y684910D01*
X866403Y685761D01*
X864831Y687333D01*
X863980Y689387D01*
X863980Y691611D01*
X864831Y693665D01*
X866403Y695237D01*
X868457Y696088D01*
X870681Y696088D01*
X872735Y695237D01*
X874307Y693665D01*
X875158Y691611D01*
X875158Y689387D01*
X874307Y687333D01*
X872735Y685761D01*
X870681Y684910D01*
X868457Y684910D01*
G37*
%LPD*%
%LPC*%
G36*
X633018Y501141D02*
X633018Y501141D01*
X630964Y501992D01*
X629392Y503564D01*
X628541Y505618D01*
X628541Y507842D01*
X629392Y509896D01*
X630964Y511468D01*
X633018Y512319D01*
X635242Y512319D01*
X637296Y511468D01*
X638868Y509896D01*
X639719Y507842D01*
X639719Y505618D01*
X638868Y503564D01*
X637296Y501992D01*
X635242Y501141D01*
X633018Y501141D01*
G37*
%LPD*%
%LPC*%
G36*
X922940Y496823D02*
X922940Y496823D01*
X920886Y497674D01*
X919314Y499246D01*
X918463Y501300D01*
X918463Y503524D01*
X919314Y505578D01*
X920886Y507150D01*
X922940Y508001D01*
X925164Y508001D01*
X927218Y507150D01*
X928790Y505578D01*
X929641Y503524D01*
X929641Y501300D01*
X928790Y499246D01*
X927218Y497674D01*
X925164Y496823D01*
X922940Y496823D01*
G37*
%LPD*%
%LPC*%
G36*
X748588Y672591D02*
X748588Y672591D01*
X746534Y673442D01*
X744962Y675014D01*
X744111Y677068D01*
X744111Y679292D01*
X744962Y681346D01*
X746534Y682918D01*
X748588Y683769D01*
X750812Y683769D01*
X752866Y682918D01*
X754438Y681346D01*
X755289Y679292D01*
X755289Y677068D01*
X754438Y675014D01*
X752866Y673442D01*
X750812Y672591D01*
X748588Y672591D01*
G37*
%LPD*%
%LPC*%
G36*
X632383Y522096D02*
X632383Y522096D01*
X630329Y522947D01*
X628757Y524519D01*
X627906Y526573D01*
X627906Y528797D01*
X628757Y530851D01*
X630329Y532423D01*
X632383Y533274D01*
X634607Y533274D01*
X636661Y532423D01*
X638233Y530851D01*
X639084Y528797D01*
X639084Y526573D01*
X638233Y524519D01*
X636661Y522947D01*
X634607Y522096D01*
X632383Y522096D01*
G37*
%LPD*%
%LPC*%
G36*
X634288Y480821D02*
X634288Y480821D01*
X632234Y481672D01*
X630662Y483244D01*
X629811Y485298D01*
X629811Y487522D01*
X630662Y489576D01*
X632234Y491148D01*
X634288Y491999D01*
X636512Y491999D01*
X638566Y491148D01*
X640138Y489576D01*
X640989Y487522D01*
X640989Y485298D01*
X640138Y483244D01*
X638566Y481672D01*
X636512Y480821D01*
X634288Y480821D01*
G37*
%LPD*%
%LPC*%
G36*
X765098Y645921D02*
X765098Y645921D01*
X763044Y646772D01*
X761472Y648344D01*
X760621Y650398D01*
X760621Y652622D01*
X761472Y654676D01*
X763044Y656248D01*
X765098Y657099D01*
X767322Y657099D01*
X769376Y656248D01*
X770948Y654676D01*
X771799Y652622D01*
X771799Y650398D01*
X770948Y648344D01*
X769376Y646772D01*
X767322Y645921D01*
X765098Y645921D01*
G37*
%LPD*%
%LPC*%
G36*
X848918Y643381D02*
X848918Y643381D01*
X846864Y644232D01*
X845292Y645804D01*
X844441Y647858D01*
X844441Y650082D01*
X845292Y652136D01*
X846864Y653708D01*
X848918Y654559D01*
X851142Y654559D01*
X853196Y653708D01*
X854768Y652136D01*
X855619Y650082D01*
X855619Y647858D01*
X854768Y645804D01*
X853196Y644232D01*
X851142Y643381D01*
X848918Y643381D01*
G37*
%LPD*%
%LPC*%
G36*
X634288Y455421D02*
X634288Y455421D01*
X632234Y456272D01*
X630662Y457844D01*
X629811Y459898D01*
X629811Y462122D01*
X630662Y464176D01*
X632234Y465748D01*
X634288Y466599D01*
X636512Y466599D01*
X638566Y465748D01*
X640138Y464176D01*
X640989Y462122D01*
X640989Y459898D01*
X640138Y457844D01*
X638566Y456272D01*
X636512Y455421D01*
X634288Y455421D01*
G37*
%LPD*%
%LPC*%
G36*
X824788Y643381D02*
X824788Y643381D01*
X822734Y644232D01*
X821162Y645804D01*
X820311Y647858D01*
X820311Y650082D01*
X821162Y652136D01*
X822734Y653708D01*
X824788Y654559D01*
X827012Y654559D01*
X829066Y653708D01*
X830638Y652136D01*
X831489Y650082D01*
X831489Y647858D01*
X830638Y645804D01*
X829066Y644232D01*
X827012Y643381D01*
X824788Y643381D01*
G37*
%LPD*%
%LPC*%
G36*
X780338Y643381D02*
X780338Y643381D01*
X778284Y644232D01*
X776712Y645804D01*
X775861Y647858D01*
X775861Y650082D01*
X776712Y652136D01*
X778284Y653708D01*
X780338Y654559D01*
X782562Y654559D01*
X784616Y653708D01*
X786188Y652136D01*
X787039Y650082D01*
X787039Y647858D01*
X786188Y645804D01*
X784616Y644232D01*
X782562Y643381D01*
X780338Y643381D01*
G37*
%LPD*%
%LPC*%
G36*
X832408Y438911D02*
X832408Y438911D01*
X830354Y439762D01*
X828782Y441334D01*
X827931Y443388D01*
X827931Y445612D01*
X828782Y447666D01*
X830354Y449238D01*
X832408Y450089D01*
X834632Y450089D01*
X836686Y449238D01*
X838258Y447666D01*
X839109Y445612D01*
X839109Y443388D01*
X838258Y441334D01*
X836686Y439762D01*
X834632Y438911D01*
X832408Y438911D01*
G37*
%LPD*%
%LPC*%
G36*
X634288Y435101D02*
X634288Y435101D01*
X632234Y435952D01*
X630662Y437524D01*
X629811Y439578D01*
X629811Y441802D01*
X630662Y443856D01*
X632234Y445428D01*
X634288Y446279D01*
X636512Y446279D01*
X638566Y445428D01*
X640138Y443856D01*
X640989Y441802D01*
X640989Y439578D01*
X640138Y437524D01*
X638566Y435952D01*
X636512Y435101D01*
X634288Y435101D01*
G37*
%LPD*%
%LPC*%
G36*
X634288Y414781D02*
X634288Y414781D01*
X632234Y415632D01*
X630662Y417204D01*
X629811Y419258D01*
X629811Y421482D01*
X630662Y423536D01*
X632234Y425108D01*
X634288Y425959D01*
X636512Y425959D01*
X638566Y425108D01*
X640138Y423536D01*
X640989Y421482D01*
X640989Y419258D01*
X640138Y417204D01*
X638566Y415632D01*
X636512Y414781D01*
X634288Y414781D01*
G37*
%LPD*%
%LPC*%
G36*
X920400Y414019D02*
X920400Y414019D01*
X918346Y414870D01*
X916774Y416442D01*
X915923Y418496D01*
X915923Y420720D01*
X916774Y422774D01*
X918346Y424346D01*
X920400Y425197D01*
X922624Y425197D01*
X924678Y424346D01*
X926250Y422774D01*
X927101Y420720D01*
X927101Y418496D01*
X926250Y416442D01*
X924678Y414870D01*
X922624Y414019D01*
X920400Y414019D01*
G37*
%LPD*%
%LPC*%
G36*
X845978Y408177D02*
X845978Y408177D01*
X843924Y409028D01*
X842352Y410600D01*
X841501Y412654D01*
X841501Y414878D01*
X842352Y416932D01*
X843924Y418504D01*
X845978Y419355D01*
X848202Y419355D01*
X850256Y418504D01*
X851828Y416932D01*
X852679Y414878D01*
X852679Y412654D01*
X851828Y410600D01*
X850256Y409028D01*
X848202Y408177D01*
X845978Y408177D01*
G37*
%LPD*%
%LPC*%
G36*
X938688Y403351D02*
X938688Y403351D01*
X936634Y404202D01*
X935062Y405774D01*
X934211Y407828D01*
X934211Y410052D01*
X935062Y412106D01*
X936634Y413678D01*
X938688Y414529D01*
X940912Y414529D01*
X942966Y413678D01*
X944538Y412106D01*
X945389Y410052D01*
X945389Y407828D01*
X944538Y405774D01*
X942966Y404202D01*
X940912Y403351D01*
X938688Y403351D01*
G37*
%LPD*%
%LPC*%
G36*
X920400Y397509D02*
X920400Y397509D01*
X918346Y398360D01*
X916774Y399932D01*
X915923Y401986D01*
X915923Y404210D01*
X916774Y406264D01*
X918346Y407836D01*
X920400Y408687D01*
X922624Y408687D01*
X924678Y407836D01*
X926250Y406264D01*
X927101Y404210D01*
X927101Y401986D01*
X926250Y399932D01*
X924678Y398360D01*
X922624Y397509D01*
X920400Y397509D01*
G37*
%LPD*%
%LPC*%
G36*
X746048Y643381D02*
X746048Y643381D01*
X743994Y644232D01*
X742422Y645804D01*
X741571Y647858D01*
X741571Y650082D01*
X742422Y652136D01*
X743994Y653708D01*
X746048Y654559D01*
X748272Y654559D01*
X750326Y653708D01*
X751898Y652136D01*
X752749Y650082D01*
X752749Y647858D01*
X751898Y645804D01*
X750326Y644232D01*
X748272Y643381D01*
X746048Y643381D01*
G37*
%LPD*%
%LPC*%
G36*
X872648Y383539D02*
X872648Y383539D01*
X870594Y384390D01*
X869022Y385962D01*
X868171Y388016D01*
X868171Y390240D01*
X869022Y392294D01*
X870594Y393866D01*
X872648Y394717D01*
X874872Y394717D01*
X876926Y393866D01*
X878498Y392294D01*
X879349Y390240D01*
X879349Y388016D01*
X878498Y385962D01*
X876926Y384390D01*
X874872Y383539D01*
X872648Y383539D01*
G37*
%LPD*%
%LPC*%
G36*
X719378Y643381D02*
X719378Y643381D01*
X717324Y644232D01*
X715752Y645804D01*
X714901Y647858D01*
X714901Y650082D01*
X715752Y652136D01*
X717324Y653708D01*
X719378Y654559D01*
X721602Y654559D01*
X723656Y653708D01*
X725228Y652136D01*
X726079Y650082D01*
X726079Y647858D01*
X725228Y645804D01*
X723656Y644232D01*
X721602Y643381D01*
X719378Y643381D01*
G37*
%LPD*%
%LPC*%
G36*
X920908Y365251D02*
X920908Y365251D01*
X918854Y366102D01*
X917282Y367674D01*
X916431Y369728D01*
X916431Y371952D01*
X917282Y374006D01*
X918854Y375578D01*
X920908Y376429D01*
X923132Y376429D01*
X925186Y375578D01*
X926758Y374006D01*
X927609Y371952D01*
X927609Y369728D01*
X926758Y367674D01*
X925186Y366102D01*
X923132Y365251D01*
X920908Y365251D01*
G37*
%LPD*%
%LPC*%
G36*
X812088Y361441D02*
X812088Y361441D01*
X810034Y362292D01*
X808462Y363864D01*
X807611Y365918D01*
X807611Y368142D01*
X808462Y370196D01*
X810034Y371768D01*
X812088Y372619D01*
X814312Y372619D01*
X816366Y371768D01*
X817938Y370196D01*
X818789Y368142D01*
X818789Y365918D01*
X817938Y363864D01*
X816366Y362292D01*
X814312Y361441D01*
X812088Y361441D01*
G37*
%LPD*%
%LPC*%
G36*
X793038Y361441D02*
X793038Y361441D01*
X790984Y362292D01*
X789412Y363864D01*
X788561Y365918D01*
X788561Y368142D01*
X789412Y370196D01*
X790984Y371768D01*
X793038Y372619D01*
X795262Y372619D01*
X797316Y371768D01*
X798888Y370196D01*
X799739Y368142D01*
X799739Y365918D01*
X798888Y363864D01*
X797316Y362292D01*
X795262Y361441D01*
X793038Y361441D01*
G37*
%LPD*%
%LPC*%
G36*
X767638Y361441D02*
X767638Y361441D01*
X765584Y362292D01*
X764012Y363864D01*
X763161Y365918D01*
X763161Y368142D01*
X764012Y370196D01*
X765584Y371768D01*
X767638Y372619D01*
X769862Y372619D01*
X771916Y371768D01*
X773488Y370196D01*
X774339Y368142D01*
X774339Y365918D01*
X773488Y363864D01*
X771916Y362292D01*
X769862Y361441D01*
X767638Y361441D01*
G37*
%LPD*%
%LPC*%
G36*
X748588Y361441D02*
X748588Y361441D01*
X746534Y362292D01*
X744962Y363864D01*
X744111Y365918D01*
X744111Y368142D01*
X744962Y370196D01*
X746534Y371768D01*
X748588Y372619D01*
X750812Y372619D01*
X752866Y371768D01*
X754438Y370196D01*
X755289Y368142D01*
X755289Y365918D01*
X754438Y363864D01*
X752866Y362292D01*
X750812Y361441D01*
X748588Y361441D01*
G37*
%LPD*%
%LPC*%
G36*
X723188Y361441D02*
X723188Y361441D01*
X721134Y362292D01*
X719562Y363864D01*
X718711Y365918D01*
X718711Y368142D01*
X719562Y370196D01*
X721134Y371768D01*
X723188Y372619D01*
X725412Y372619D01*
X727466Y371768D01*
X729038Y370196D01*
X729889Y368142D01*
X729889Y365918D01*
X729038Y363864D01*
X727466Y362292D01*
X725412Y361441D01*
X723188Y361441D01*
G37*
%LPD*%
%LPC*%
G36*
X702868Y361441D02*
X702868Y361441D01*
X700814Y362292D01*
X699242Y363864D01*
X698391Y365918D01*
X698391Y368142D01*
X699242Y370196D01*
X700814Y371768D01*
X702868Y372619D01*
X705092Y372619D01*
X707146Y371768D01*
X708718Y370196D01*
X709569Y368142D01*
X709569Y365918D01*
X708718Y363864D01*
X707146Y362292D01*
X705092Y361441D01*
X702868Y361441D01*
G37*
%LPD*%
%LPC*%
G36*
X831138Y361189D02*
X831138Y361189D01*
X829084Y362040D01*
X827512Y363612D01*
X826661Y365666D01*
X826661Y367890D01*
X827512Y369944D01*
X829084Y371516D01*
X831138Y372367D01*
X833362Y372367D01*
X835416Y371516D01*
X836988Y369944D01*
X837839Y367890D01*
X837839Y365666D01*
X836988Y363612D01*
X835416Y362040D01*
X833362Y361189D01*
X831138Y361189D01*
G37*
%LPD*%
%LPC*%
G36*
X913288Y353821D02*
X913288Y353821D01*
X911234Y354672D01*
X909662Y356244D01*
X908811Y358298D01*
X908811Y360522D01*
X909662Y362576D01*
X911234Y364148D01*
X913288Y364999D01*
X915512Y364999D01*
X917566Y364148D01*
X919138Y362576D01*
X919989Y360522D01*
X919989Y358298D01*
X919138Y356244D01*
X917566Y354672D01*
X915512Y353821D01*
X913288Y353821D01*
G37*
%LPD*%
D10*
X679850Y486410D03*
X679850Y457200D03*
X682390Y579120D03*
X679850Y541020D03*
X684930Y431800D03*
X724300Y411480D03*
X761130Y412750D03*
X796690Y411480D03*
X872890Y548640D03*
X726840Y603250D03*
X745890Y604520D03*
X781450Y603250D03*
X808120Y603250D03*
X972820Y474980D03*
X854475Y589922D03*
X976630Y595630D03*
X934720Y595630D03*
X984250Y474980D03*
X972820Y463550D03*
X986790Y595630D03*
X554990Y414020D03*
X575310Y414020D03*
X585470Y414020D03*
X595630Y414020D03*
X565150Y414020D03*
X461010Y635000D03*
X471170Y635000D03*
X481330Y635000D03*
X491490Y635000D03*
X501650Y635000D03*
X939800Y529590D03*
X949960Y529590D03*
X839216Y501904D03*
X877062Y514858D03*
X924052Y482092D03*
X924306Y461772D03*
X876808Y430022D03*
X877062Y409194D03*
X971042Y442468D03*
X971042Y423672D03*
X921512Y385064D03*
X813733Y416985D03*
X852170Y366776D03*
X883666Y652018D03*
X1125220Y574548D03*
X1115060Y574802D03*
X1104900Y574548D03*
X1094740Y574548D03*
X673100Y736600D03*
X768858Y722122D03*
X817010Y444500D03*
X1089772Y512996D03*
X809390Y452120D03*
X1082693Y505663D03*
X801770Y444500D03*
X1076055Y496873D03*
X763670Y568960D03*
X1066800Y590550D03*
X825900Y464820D03*
X1066800Y580390D03*
X815740Y468405D03*
X1066800Y570230D03*
X811070Y478057D03*
X1066800Y560070D03*
X815740Y487680D03*
X1067054Y549910D03*
X825500Y491490D03*
X1066800Y539750D03*
X792880Y449580D03*
X1096518Y526204D03*
X785260Y457200D03*
X1107186Y526204D03*
X777640Y449580D03*
X1155192Y524510D03*
X833520Y444500D03*
X922020Y370840D03*
X634130Y576580D03*
X633495Y527685D03*
X635400Y486410D03*
X635400Y440690D03*
X635400Y420370D03*
X703980Y367030D03*
X749700Y367030D03*
X794150Y367030D03*
X917340Y572770D03*
X700170Y648970D03*
X747160Y648970D03*
X805580Y648970D03*
X850030Y648970D03*
X533400Y379730D03*
X533400Y369570D03*
X533400Y359410D03*
X914400Y359410D03*
X924560Y451612D03*
X939800Y408940D03*
X921512Y403098D03*
X832250Y366778D03*
X869569Y690499D03*
X1155954Y567690D03*
X1156208Y557530D03*
X1156208Y547370D03*
X1155954Y537210D03*
X408070Y584708D03*
X408178Y564388D03*
X408178Y554228D03*
X408040Y574548D03*
X673608Y791210D03*
X846836Y707898D03*
X782720Y562610D03*
X766210Y651510D03*
X792880Y562610D03*
X775100Y662940D03*
X803040Y562610D03*
X783990Y670560D03*
X772560Y562610D03*
X749700Y678180D03*
X813200Y571500D03*
X803040Y660400D03*
X634130Y591820D03*
X634130Y548640D03*
X634130Y506730D03*
X635400Y461010D03*
X724300Y367030D03*
X768750Y367030D03*
X813200Y367030D03*
X917340Y552450D03*
X917340Y595630D03*
X720490Y648970D03*
X781450Y648970D03*
X825900Y648970D03*
X632714Y392684D03*
X644144Y392684D03*
X656844Y392684D03*
X680974Y392684D03*
X669544Y392684D03*
X924052Y502412D03*
X866808Y514858D03*
X924560Y441452D03*
X921512Y419608D03*
X873760Y389128D03*
X847090Y413766D03*
X775100Y544830D03*
X419500Y495300D03*
X795420Y542290D03*
X425850Y486410D03*
X714140Y479425D03*
X433470Y478790D03*
X724300Y478790D03*
X442360Y471170D03*
X836060Y571500D03*
X448710Y441960D03*
X828440Y563880D03*
X456330Y449580D03*
X819550Y554990D03*
X462680Y458470D03*
X811930Y547370D03*
X470300Y466090D03*
X742080Y546100D03*
X620130Y567467D03*
X734460Y553720D03*
X609172Y567436D03*
X726840Y561340D03*
X598885Y567436D03*
X719220Y568960D03*
X588664Y567309D03*
X578377Y567182D03*
X706266Y585888D03*
X567328Y569214D03*
X701440Y600710D03*
X558946Y577342D03*
X754780Y539750D03*
X764940Y541020D03*
X551199Y585597D03*
X711600Y500380D03*
X500560Y525878D03*
X721760Y504190D03*
X505074Y535022D03*
X731920Y508000D03*
X510921Y543785D03*
X739540Y516890D03*
X516963Y552421D03*
X730650Y528320D03*
X522540Y561065D03*
X721760Y533400D03*
X527090Y570356D03*
X711600Y534670D03*
X532090Y579831D03*
X734460Y538480D03*
X537662Y588862D03*
M02*
