G04 EAGLE Gerber RS-274X export*
G75*
%MOMM*%
%FSLAX34Y34*%
%LPD*%
%INSoldermask Top*%
%IPPOS*%
%AMOC8*
5,1,8,0,0,1.08239X$1,22.5*%
G01*
%ADD10R,1.803200X2.003200*%
%ADD11R,1.503200X1.703200*%
%ADD12R,2.003200X1.803200*%
%ADD13R,0.400000X1.400000*%
%ADD14R,1.900000X2.350000*%
%ADD15R,1.803200X2.006200*%
%ADD16R,1.678200X0.403200*%
%ADD17R,0.403200X1.678200*%
%ADD18R,0.853200X1.453200*%
%ADD19R,1.703200X1.503200*%
%ADD20R,2.133600X5.537200*%
%ADD21R,1.703200X1.703200*%
%ADD22R,1.400000X0.400000*%
%ADD23R,2.350000X1.900000*%
%ADD24R,1.723200X0.643200*%
%ADD25C,1.016000*%


D10*
X585967Y396494D03*
X613967Y396494D03*
X563929Y396494D03*
X535929Y396494D03*
D11*
X911810Y482092D03*
X892810Y482092D03*
D12*
X991508Y571530D03*
X991508Y543530D03*
X991508Y493492D03*
X991508Y521492D03*
D13*
X593200Y615200D03*
X588200Y615200D03*
X583200Y615200D03*
X578200Y615200D03*
X573200Y615200D03*
X568200Y615200D03*
X563200Y615200D03*
X558200Y615200D03*
X553200Y615200D03*
X548200Y615200D03*
X543200Y615200D03*
X538200Y615200D03*
X533200Y615200D03*
X528200Y615200D03*
X523200Y615200D03*
X518200Y615200D03*
X513200Y615200D03*
X508200Y615200D03*
X503200Y615200D03*
X498200Y615200D03*
X493200Y615200D03*
X488200Y615200D03*
X483200Y615200D03*
X478200Y615200D03*
X473200Y615200D03*
X468200Y615200D03*
X463200Y615200D03*
X458200Y615200D03*
X453200Y615200D03*
X448200Y615200D03*
X443200Y615200D03*
X438200Y615200D03*
X433200Y615200D03*
X428200Y615200D03*
X423200Y615200D03*
X418200Y615200D03*
X413200Y615200D03*
X408200Y615200D03*
X403200Y615200D03*
X398200Y615200D03*
D14*
X379200Y647700D03*
X612200Y647700D03*
D15*
X897981Y707097D03*
X869541Y707097D03*
X899556Y357632D03*
X871116Y357632D03*
D11*
X911810Y522732D03*
X892810Y522732D03*
D16*
X852480Y446000D03*
X852480Y450000D03*
X852480Y454000D03*
X852480Y458000D03*
X852480Y462000D03*
X852480Y466000D03*
X852480Y470000D03*
X852480Y474000D03*
X852480Y478000D03*
X852480Y482000D03*
X852480Y486000D03*
X852480Y490000D03*
X852480Y494000D03*
X852480Y498000D03*
X852480Y502000D03*
X852480Y506000D03*
X852480Y510000D03*
X852480Y514000D03*
X852480Y518000D03*
X852480Y522000D03*
X852480Y526000D03*
X852480Y530000D03*
X852480Y534000D03*
X852480Y538000D03*
X852480Y542000D03*
X852480Y546000D03*
X852480Y550000D03*
X852480Y554000D03*
X852480Y558000D03*
X852480Y562000D03*
X852480Y566000D03*
X852480Y570000D03*
D17*
X837100Y585380D03*
X833100Y585380D03*
X829100Y585380D03*
X825100Y585380D03*
X821100Y585380D03*
X817100Y585380D03*
X813100Y585380D03*
X809100Y585380D03*
X805100Y585380D03*
X801100Y585380D03*
X797100Y585380D03*
X793100Y585380D03*
X789100Y585380D03*
X785100Y585380D03*
X781100Y585380D03*
X777100Y585380D03*
X773100Y585380D03*
X769100Y585380D03*
X765100Y585380D03*
X761100Y585380D03*
X757100Y585380D03*
X753100Y585380D03*
X749100Y585380D03*
X745100Y585380D03*
X741100Y585380D03*
X737100Y585380D03*
X733100Y585380D03*
X729100Y585380D03*
X725100Y585380D03*
X721100Y585380D03*
X717100Y585380D03*
X713100Y585380D03*
D16*
X697720Y570000D03*
X697720Y566000D03*
X697720Y562000D03*
X697720Y558000D03*
X697720Y554000D03*
X697720Y550000D03*
X697720Y546000D03*
X697720Y542000D03*
X697720Y538000D03*
X697720Y534000D03*
X697720Y530000D03*
X697720Y526000D03*
X697720Y522000D03*
X697720Y518000D03*
X697720Y514000D03*
X697720Y510000D03*
X697720Y506000D03*
X697720Y502000D03*
X697720Y498000D03*
X697720Y494000D03*
X697720Y490000D03*
X697720Y486000D03*
X697720Y482000D03*
X697720Y478000D03*
X697720Y474000D03*
X697720Y470000D03*
X697720Y466000D03*
X697720Y462000D03*
X697720Y458000D03*
X697720Y454000D03*
X697720Y450000D03*
X697720Y446000D03*
D17*
X713100Y430620D03*
X717100Y430620D03*
X721100Y430620D03*
X725100Y430620D03*
X729100Y430620D03*
X733100Y430620D03*
X737100Y430620D03*
X741100Y430620D03*
X745100Y430620D03*
X749100Y430620D03*
X753100Y430620D03*
X757100Y430620D03*
X761100Y430620D03*
X765100Y430620D03*
X769100Y430620D03*
X773100Y430620D03*
X777100Y430620D03*
X781100Y430620D03*
X785100Y430620D03*
X789100Y430620D03*
X793100Y430620D03*
X797100Y430620D03*
X801100Y430620D03*
X805100Y430620D03*
X809100Y430620D03*
X813100Y430620D03*
X817100Y430620D03*
X821100Y430620D03*
X825100Y430620D03*
X829100Y430620D03*
X833100Y430620D03*
X837100Y430620D03*
D18*
X584829Y377022D03*
X565829Y377022D03*
X575329Y356022D03*
D19*
X768242Y399136D03*
X768242Y380136D03*
X812438Y399136D03*
X812438Y380136D03*
X853078Y378866D03*
X853078Y397866D03*
D11*
X909314Y382778D03*
X890314Y382778D03*
X890270Y423418D03*
X909270Y423418D03*
X958800Y442468D03*
X939800Y442468D03*
X886250Y551688D03*
X905250Y551688D03*
X892810Y502412D03*
X911810Y502412D03*
D19*
X781704Y617372D03*
X781704Y636372D03*
X720744Y617372D03*
X720744Y636372D03*
X825900Y617372D03*
X825900Y636372D03*
D11*
X886250Y595630D03*
X905250Y595630D03*
X666490Y573151D03*
X647490Y573151D03*
X666998Y528955D03*
X647998Y528955D03*
X666998Y484886D03*
X647998Y484886D03*
X666998Y440690D03*
X647998Y440690D03*
X666998Y420370D03*
X647998Y420370D03*
D19*
X702456Y398882D03*
X702456Y379882D03*
X747922Y399136D03*
X747922Y380136D03*
X792118Y399136D03*
X792118Y380136D03*
X832758Y378866D03*
X832758Y397866D03*
D11*
X890270Y403098D03*
X909270Y403098D03*
X958850Y422148D03*
X939850Y422148D03*
X911854Y461772D03*
X892854Y461772D03*
X886250Y572008D03*
X905250Y572008D03*
D19*
X849776Y617372D03*
X849776Y636372D03*
X805580Y617372D03*
X805580Y636372D03*
X761384Y617372D03*
X761384Y636372D03*
X741064Y617372D03*
X741064Y636372D03*
X700424Y617372D03*
X700424Y636372D03*
D11*
X666490Y593471D03*
X647490Y593471D03*
X666998Y549275D03*
X647998Y549275D03*
X666998Y505206D03*
X647998Y505206D03*
X666998Y461010D03*
X647998Y461010D03*
D19*
X722776Y398882D03*
X722776Y379882D03*
D20*
X951884Y484124D03*
X951884Y580644D03*
D21*
X897938Y651930D03*
X897938Y686930D03*
D22*
X1141500Y504600D03*
X1141500Y509600D03*
X1141500Y514600D03*
X1141500Y519600D03*
X1141500Y524600D03*
X1141500Y529600D03*
X1141500Y534600D03*
X1141500Y539600D03*
X1141500Y544600D03*
X1141500Y549600D03*
X1141500Y554600D03*
X1141500Y559600D03*
X1141500Y564600D03*
X1141500Y569600D03*
X1141500Y574600D03*
X1141500Y579600D03*
X1141500Y584600D03*
X1141500Y589600D03*
X1141500Y594600D03*
X1141500Y599600D03*
X1141500Y604600D03*
X1141500Y609600D03*
D23*
X1174000Y628600D03*
X1174000Y485600D03*
D24*
X695734Y772970D03*
X695734Y766570D03*
X695734Y760170D03*
X695734Y753770D03*
X695734Y747370D03*
X695734Y740970D03*
X695734Y734570D03*
X695734Y728170D03*
X750034Y728170D03*
X750034Y734570D03*
X750034Y740970D03*
X750034Y747370D03*
X750034Y753770D03*
X750034Y760170D03*
X750034Y766570D03*
X750034Y772970D03*
D10*
X778032Y706628D03*
X750032Y706628D03*
D19*
X673608Y757326D03*
X673608Y776326D03*
D15*
X830576Y706628D03*
X802136Y706628D03*
D25*
X679850Y486410D03*
X679850Y457200D03*
X682390Y579120D03*
X679850Y541020D03*
X684930Y431800D03*
X724300Y411480D03*
X761130Y412750D03*
X796690Y411480D03*
X872890Y548640D03*
X726840Y603250D03*
X745890Y604520D03*
X781450Y603250D03*
X808120Y603250D03*
X972820Y474980D03*
X854475Y589922D03*
X976630Y595630D03*
X934720Y595630D03*
X984250Y474980D03*
X972820Y463550D03*
X986790Y595630D03*
X554990Y414020D03*
X575310Y414020D03*
X585470Y414020D03*
X595630Y414020D03*
X565150Y414020D03*
X461010Y635000D03*
X471170Y635000D03*
X481330Y635000D03*
X491490Y635000D03*
X501650Y635000D03*
X939800Y529590D03*
X949960Y529590D03*
X839216Y501904D03*
X877062Y514858D03*
X924052Y482092D03*
X924306Y461772D03*
X876808Y430022D03*
X877062Y409194D03*
X971042Y442468D03*
X971042Y423672D03*
X921512Y385064D03*
X813733Y416985D03*
X852170Y366776D03*
X883666Y652018D03*
X1125220Y574548D03*
X1115060Y574802D03*
X1104900Y574548D03*
X1094740Y574548D03*
X673100Y736600D03*
X768858Y722122D03*
X817010Y444500D03*
X1089772Y512996D03*
X809390Y452120D03*
X1082693Y505663D03*
X801770Y444500D03*
X1076055Y496873D03*
X763670Y568960D03*
X1066800Y590550D03*
X825900Y464820D03*
X1066800Y580390D03*
X815740Y468405D03*
X1066800Y570230D03*
X811070Y478057D03*
X1066800Y560070D03*
X815740Y487680D03*
X1067054Y549910D03*
X825500Y491490D03*
X1066800Y539750D03*
X792880Y449580D03*
X1096518Y526204D03*
X785260Y457200D03*
X1107186Y526204D03*
X777640Y449580D03*
X1155192Y524510D03*
X833520Y444500D03*
X922020Y370840D03*
X634130Y576580D03*
X633495Y527685D03*
X635400Y486410D03*
X635400Y440690D03*
X635400Y420370D03*
X703980Y367030D03*
X749700Y367030D03*
X794150Y367030D03*
X917340Y572770D03*
X700170Y648970D03*
X747160Y648970D03*
X805580Y648970D03*
X850030Y648970D03*
X533400Y379730D03*
X533400Y369570D03*
X533400Y359410D03*
X914400Y359410D03*
X924560Y451612D03*
X939800Y408940D03*
X921512Y403098D03*
X832250Y366778D03*
X869569Y690499D03*
X1155954Y567690D03*
X1156208Y557530D03*
X1156208Y547370D03*
X1155954Y537210D03*
X408070Y584708D03*
X408178Y564388D03*
X408178Y554228D03*
X408040Y574548D03*
X673608Y791210D03*
X846836Y707898D03*
X782720Y562610D03*
X766210Y651510D03*
X792880Y562610D03*
X775100Y662940D03*
X803040Y562610D03*
X783990Y670560D03*
X772560Y562610D03*
X749700Y678180D03*
X813200Y571500D03*
X803040Y660400D03*
X634130Y591820D03*
X634130Y548640D03*
X634130Y506730D03*
X635400Y461010D03*
X724300Y367030D03*
X768750Y367030D03*
X813200Y367030D03*
X917340Y552450D03*
X917340Y595630D03*
X720490Y648970D03*
X781450Y648970D03*
X825900Y648970D03*
X632714Y392684D03*
X644144Y392684D03*
X656844Y392684D03*
X680974Y392684D03*
X669544Y392684D03*
X924052Y502412D03*
X866808Y514858D03*
X924560Y441452D03*
X921512Y419608D03*
X873760Y389128D03*
X847090Y413766D03*
X775100Y544830D03*
X419500Y495300D03*
X795420Y542290D03*
X425850Y486410D03*
X714140Y479425D03*
X433470Y478790D03*
X724300Y478790D03*
X442360Y471170D03*
X836060Y571500D03*
X448710Y441960D03*
X828440Y563880D03*
X456330Y449580D03*
X819550Y554990D03*
X462680Y458470D03*
X811930Y547370D03*
X470300Y466090D03*
X742080Y546100D03*
X620130Y567467D03*
X734460Y553720D03*
X609172Y567436D03*
X726840Y561340D03*
X598885Y567436D03*
X719220Y568960D03*
X588664Y567309D03*
X578377Y567182D03*
X706266Y585888D03*
X567328Y569214D03*
X701440Y600710D03*
X558946Y577342D03*
X754780Y539750D03*
X764940Y541020D03*
X551199Y585597D03*
X711600Y500380D03*
X500560Y525878D03*
X721760Y504190D03*
X505074Y535022D03*
X731920Y508000D03*
X510921Y543785D03*
X739540Y516890D03*
X516963Y552421D03*
X730650Y528320D03*
X522540Y561065D03*
X721760Y533400D03*
X527090Y570356D03*
X711600Y534670D03*
X532090Y579831D03*
X734460Y538480D03*
X537662Y588862D03*
M02*
